<svg width="101" height="52" viewBox="0 0 101 52" fill="none" xmlns="http://www.w3.org/2000/svg">
<path d="M100.539 28.6774C100.074 28.0277 99.3239 27.6427 98.5246 27.6427H95.4956C94.9644 27.4923 93.5979 26.9003 93.1967 26.6738C91.0247 25.4456 89.7489 23.4421 88.272 21.1214C86.9694 19.0757 85.6224 16.9599 83.5195 15.2066C82.4294 14.2985 78.3813 11.6618 75.6668 11.6618H73.2741C73.0957 11.6618 72.9193 11.6814 72.7481 11.7185C72.0004 9.7417 70.8731 7.91526 69.3797 6.2865C65.7721 2.35049 60.2275 0 54.5479 0C50.6298 0 46.8551 1.0903 43.6311 3.15148C40.6474 5.06029 38.7157 7.63625 36.9067 10.1824C34.81 9.52652 32.8741 9.2053 31.0301 9.2053C28.3764 9.2053 25.9208 9.8879 23.7322 11.2346C21.2044 12.7902 19.7729 14.9533 18.5105 16.8621C17.8298 17.8917 17.1873 18.8636 16.4055 19.7202C13.1372 23.3051 8.43217 25.3622 3.49511 25.3622C3.19705 25.3622 2.89486 25.355 2.5968 25.3395C2.55555 25.3375 2.51429 25.3364 2.47304 25.3364C1.67168 25.3364 0.916735 25.7246 0.451596 26.3825C-0.0372631 27.0743 -0.138335 27.967 0.185508 28.7494C3.78595 37.4698 10.006 43.3908 17.2523 44.9969C18.6384 45.3037 20.1308 45.4602 21.6881 45.4602C23.131 45.4602 24.7337 45.314 26.3684 44.9835C26.5148 45.418 26.7819 45.8113 27.1501 46.1119C31.7386 49.8503 37.3749 51.827 43.4475 51.826C48.9972 51.826 54.6655 50.1581 59.6355 47.0941C62.4707 50.1993 66.1073 51.9979 69.7098 51.9979C72.2283 51.9979 74.6767 51.1012 76.79 49.4055C78.3638 48.1422 79.3983 46.3673 79.8098 44.4091C81.0319 44.6417 82.2695 44.7601 83.4958 44.7601C84.4065 44.7601 85.3254 44.6953 86.2279 44.5666C92.8749 43.6184 98.2101 38.6425 100.864 30.9156C101.124 30.161 101.001 29.327 100.537 28.6774H100.539Z" fill="#65AEEE"/>
<path d="M98.5248 30.1137C96.5127 35.9729 92.3501 41.1969 85.8794 42.1204C83.8714 42.4066 81.851 42.3263 79.8687 41.9001C79.6202 40.5452 79.4397 39.2613 78.8106 38.0145C76.8882 34.2062 72.5008 32.4951 68.4919 34.1537C61.7356 36.9479 63.7178 47.2034 71.0321 46.2448C74.6181 45.7754 76.5076 40.8747 72.2027 39.9975C72.2986 40.3949 72.6245 40.7007 72.7091 41.1454C73.2155 43.7955 69.4036 44.9291 67.5967 42.9482C65.1339 40.2477 67.4812 36.1881 70.8744 35.8731C77.2367 35.2831 79.7563 43.8573 75.2411 47.4813C69.8946 51.7715 63.6054 48.7323 60.1514 43.7842C50.8249 50.499 37.9764 51.7437 28.7169 44.1991C32.8712 42.6908 37.2183 40.0438 38.5364 35.5518C40.9508 27.3287 33.489 18.5229 25.0505 22.5835C16.5181 26.6894 21.1943 39.5002 29.7019 36.4527C32.9702 35.2821 34.0377 29.95 30.036 29.1274C33.3436 34.4152 24.9113 36.8697 23.0961 31.3584C21.5573 26.6853 26.3881 23.0828 30.7332 24.064C33.7004 24.7342 36.2148 27.7426 36.5954 30.7325C37.8475 40.5709 25.5486 44.3051 17.7908 42.5858C10.3806 40.9436 5.2424 34.5079 2.47632 27.8095C8.44989 28.1071 14.2285 25.7854 18.2395 21.3851C20.6951 18.6917 21.7564 15.3549 25.033 13.3391C29.0975 10.8383 33.6066 11.49 37.8495 13.1311C39.97 10.1711 41.8326 7.23789 44.9679 5.23231C56.0229 -1.83871 72.542 5.31776 71.2931 19.3198C70.4938 28.2862 60.1824 34.4255 52.5689 28.2965C48.557 25.0668 47.8794 19.1025 51.6583 15.3694C56.256 10.8269 64.8791 15.2499 62.0068 21.2512C60.6753 24.0331 58.0557 23.3649 55.6197 22.5341C57.2863 26.8232 62.9567 25.7906 64.3934 21.8216C67.7762 12.4784 54.0654 6.7262 48.49 15.6659C44.1222 22.6689 48.8045 31.0135 56.4375 32.6721C67.4173 35.0587 75.5288 24.3533 73.2764 14.1318H75.6691C77.2801 14.1318 80.6711 16.0478 81.9356 17.1021C86.0362 20.5213 87.1346 26.083 91.9789 28.8226C92.575 29.1593 94.7356 30.1127 95.308 30.1127H98.5258L98.5248 30.1137Z" fill="#F2E8D5"/>
</svg>
