<svg width="88" height="86" viewBox="0 0 88 86" fill="none" xmlns="http://www.w3.org/2000/svg">
<mask id="path-1-outside-1_32_64" maskUnits="userSpaceOnUse" x="0" y="0" width="89" height="86" fill="black">
<rect fill="white" width="89" height="86"/>
<path fill-rule="evenodd" clip-rule="evenodd" d="M52.0895 79.8208H6.39287C5.62331 79.8208 5 79.2222 5 78.4637V45.8116C5 45.2096 5.41437 44.6722 6.00982 44.5055L24.4999 39.3458V16.2342L23.4205 16.4757C23.0061 16.5675 22.5709 16.4757 22.2401 16.207C21.9093 15.9519 21.7143 15.5676 21.7143 15.1458V11.0745C21.7143 10.435 22.1635 9.884 22.7937 9.74121L43.6898 5.03042C43.9335 4.9794 44.1947 4.99301 44.4419 5.06783L61.1528 10.5099C61.7238 10.6901 62.1069 11.2139 62.1069 11.8024V15.3363C62.1069 15.7716 61.9014 16.1696 61.5462 16.4247C61.191 16.6832 60.7349 16.758 60.3135 16.6424L59.3211 16.3498V37.6451C71.5712 37.6451 81.5134 47.3624 81.5134 59.3217C81.5134 60.0768 80.89 60.6924 80.1205 60.6924C79.3509 60.6924 78.7311 60.0768 78.7311 59.3217C78.7311 48.8591 70.0327 40.3696 59.3219 40.3696C58.3782 40.3696 57.4485 40.4342 56.5362 40.5635C52.1904 41.1791 48.3113 43.1994 45.3933 46.1347C44.3277 47.2095 43.391 48.4 42.6075 49.6924C41.8136 51.0121 41.1763 52.4202 40.7202 53.9065C40.5844 54.3419 40.2466 54.6854 39.8044 54.8147C39.5398 54.9031 39.2577 54.9031 38.9896 54.8283C38.5439 54.699 38.1957 54.3657 38.0564 53.9304L35.7059 46.6721C35.4761 45.9681 35.8835 45.1994 36.6147 44.9681C37.3495 44.7369 38.1329 45.1348 38.3662 45.8524L39.5432 49.502C40.3754 47.9 41.4097 46.4136 42.6075 45.0702V12.149L27.2855 15.6047V40.3968V77.1065H42.6075V73.5862C39.1985 69.77 37.1301 64.7771 37.1301 59.3211C37.1301 58.5797 37.7534 57.964 38.5195 57.964C39.289 57.964 39.9158 58.5796 39.9158 59.3211C39.9158 62.8415 40.8978 66.1338 42.6075 68.9635C43.391 70.256 44.3277 71.4465 45.3932 72.5246C47.3885 74.5347 49.833 76.1095 52.5734 77.1061C54.6767 77.8611 56.9506 78.2863 59.3219 78.2863C68.1039 78.2863 75.5353 72.5756 77.9234 64.7492C77.9234 64.7492 77.9234 64.739 77.9269 64.739C78.0557 64.3138 78.397 63.9703 78.8392 63.8274C79.1073 63.7526 79.3894 63.7526 79.6575 63.8274C80.0997 63.9567 80.448 64.29 80.5873 64.7253L82.9342 71.9734C83.1675 72.6911 82.7601 73.4563 82.0289 73.6877C81.2942 73.9054 80.5107 73.5074 80.2809 72.7932L79.1039 69.1538C75.4302 76.1842 67.9503 81 59.3221 81C56.7906 81 54.3566 80.5884 52.0896 79.8197L52.0895 79.8208ZM24.5006 42.176L7.78618 46.8392V77.1072H24.5006V42.176ZM56.5369 37.8224V15.5302L45.394 12.265V42.4581C48.521 39.9855 52.3479 38.336 56.5369 37.8224ZM45.394 76.1986V77.1068H46.6267C46.2018 76.8143 45.7944 76.5184 45.394 76.1986ZM45.394 64.1243C44.8508 62.6141 44.5583 61.0122 44.5583 59.3218C44.5583 57.6449 44.8508 56.0328 45.394 54.5328C47.1177 49.7574 51.345 46.1351 56.5369 45.1586C57.4388 44.9919 58.372 44.9035 59.3226 44.9035C67.4709 44.9035 74.0866 51.3693 74.0866 59.3218C74.0866 67.2875 67.4704 73.7531 59.3226 73.7531C58.372 73.7531 57.4388 73.6647 56.5369 73.498C51.345 72.5253 47.118 68.9001 45.394 64.1243ZM59.3226 60.6924C60.5867 60.6924 61.7288 61.3829 61.7288 62.4203C61.7288 63.4441 60.5867 64.1482 59.3226 64.1482C58.0551 64.1482 56.9199 63.4441 56.9199 62.4203C56.9199 61.6652 56.2966 61.0632 55.5236 61.0632C54.7575 61.0632 54.1342 61.6652 54.1342 62.4203C54.1342 64.4066 55.7047 66.1719 57.9298 66.7093V67.978C57.9298 68.733 58.5531 69.3351 59.3226 69.3351C60.0922 69.3351 60.7155 68.733 60.7155 67.978V66.7093C62.9371 66.1719 64.5145 64.4067 64.5145 62.4203C64.5145 60.0394 62.2511 57.9647 59.3226 57.9647C58.0551 57.9647 56.9199 57.2742 56.9199 56.2368C56.9199 55.213 58.0551 54.5089 59.3226 54.5089C60.5867 54.5089 61.7288 55.213 61.7288 56.2368C61.7288 56.9919 62.3521 57.5939 63.1182 57.5939C63.8877 57.5939 64.5145 56.9919 64.5145 56.2368C64.5145 54.2505 62.9371 52.4852 60.7155 51.9478V50.6791C60.7155 49.9241 60.0922 49.3085 59.3226 49.3085C58.5531 49.3085 57.9298 49.9241 57.9298 50.6791V51.9478C55.7047 52.4852 54.1342 54.2504 54.1342 56.2368C54.1342 58.6177 56.3942 60.6924 59.3226 60.6924Z"/>
</mask>
<path fill-rule="evenodd" clip-rule="evenodd" d="M52.0895 79.8208H6.39287C5.62331 79.8208 5 79.2222 5 78.4637V45.8116C5 45.2096 5.41437 44.6722 6.00982 44.5055L24.4999 39.3458V16.2342L23.4205 16.4757C23.0061 16.5675 22.5709 16.4757 22.2401 16.207C21.9093 15.9519 21.7143 15.5676 21.7143 15.1458V11.0745C21.7143 10.435 22.1635 9.884 22.7937 9.74121L43.6898 5.03042C43.9335 4.9794 44.1947 4.99301 44.4419 5.06783L61.1528 10.5099C61.7238 10.6901 62.1069 11.2139 62.1069 11.8024V15.3363C62.1069 15.7716 61.9014 16.1696 61.5462 16.4247C61.191 16.6832 60.7349 16.758 60.3135 16.6424L59.3211 16.3498V37.6451C71.5712 37.6451 81.5134 47.3624 81.5134 59.3217C81.5134 60.0768 80.89 60.6924 80.1205 60.6924C79.3509 60.6924 78.7311 60.0768 78.7311 59.3217C78.7311 48.8591 70.0327 40.3696 59.3219 40.3696C58.3782 40.3696 57.4485 40.4342 56.5362 40.5635C52.1904 41.1791 48.3113 43.1994 45.3933 46.1347C44.3277 47.2095 43.391 48.4 42.6075 49.6924C41.8136 51.0121 41.1763 52.4202 40.7202 53.9065C40.5844 54.3419 40.2466 54.6854 39.8044 54.8147C39.5398 54.9031 39.2577 54.9031 38.9896 54.8283C38.5439 54.699 38.1957 54.3657 38.0564 53.9304L35.7059 46.6721C35.4761 45.9681 35.8835 45.1994 36.6147 44.9681C37.3495 44.7369 38.1329 45.1348 38.3662 45.8524L39.5432 49.502C40.3754 47.9 41.4097 46.4136 42.6075 45.0702V12.149L27.2855 15.6047V40.3968V77.1065H42.6075V73.5862C39.1985 69.77 37.1301 64.7771 37.1301 59.3211C37.1301 58.5797 37.7534 57.964 38.5195 57.964C39.289 57.964 39.9158 58.5796 39.9158 59.3211C39.9158 62.8415 40.8978 66.1338 42.6075 68.9635C43.391 70.256 44.3277 71.4465 45.3932 72.5246C47.3885 74.5347 49.833 76.1095 52.5734 77.1061C54.6767 77.8611 56.9506 78.2863 59.3219 78.2863C68.1039 78.2863 75.5353 72.5756 77.9234 64.7492C77.9234 64.7492 77.9234 64.739 77.9269 64.739C78.0557 64.3138 78.397 63.9703 78.8392 63.8274C79.1073 63.7526 79.3894 63.7526 79.6575 63.8274C80.0997 63.9567 80.448 64.29 80.5873 64.7253L82.9342 71.9734C83.1675 72.6911 82.7601 73.4563 82.0289 73.6877C81.2942 73.9054 80.5107 73.5074 80.2809 72.7932L79.1039 69.1538C75.4302 76.1842 67.9503 81 59.3221 81C56.7906 81 54.3566 80.5884 52.0896 79.8197L52.0895 79.8208ZM24.5006 42.176L7.78618 46.8392V77.1072H24.5006V42.176ZM56.5369 37.8224V15.5302L45.394 12.265V42.4581C48.521 39.9855 52.3479 38.336 56.5369 37.8224ZM45.394 76.1986V77.1068H46.6267C46.2018 76.8143 45.7944 76.5184 45.394 76.1986ZM45.394 64.1243C44.8508 62.6141 44.5583 61.0122 44.5583 59.3218C44.5583 57.6449 44.8508 56.0328 45.394 54.5328C47.1177 49.7574 51.345 46.1351 56.5369 45.1586C57.4388 44.9919 58.372 44.9035 59.3226 44.9035C67.4709 44.9035 74.0866 51.3693 74.0866 59.3218C74.0866 67.2875 67.4704 73.7531 59.3226 73.7531C58.372 73.7531 57.4388 73.6647 56.5369 73.498C51.345 72.5253 47.118 68.9001 45.394 64.1243ZM59.3226 60.6924C60.5867 60.6924 61.7288 61.3829 61.7288 62.4203C61.7288 63.4441 60.5867 64.1482 59.3226 64.1482C58.0551 64.1482 56.9199 63.4441 56.9199 62.4203C56.9199 61.6652 56.2966 61.0632 55.5236 61.0632C54.7575 61.0632 54.1342 61.6652 54.1342 62.4203C54.1342 64.4066 55.7047 66.1719 57.9298 66.7093V67.978C57.9298 68.733 58.5531 69.3351 59.3226 69.3351C60.0922 69.3351 60.7155 68.733 60.7155 67.978V66.7093C62.9371 66.1719 64.5145 64.4067 64.5145 62.4203C64.5145 60.0394 62.2511 57.9647 59.3226 57.9647C58.0551 57.9647 56.9199 57.2742 56.9199 56.2368C56.9199 55.213 58.0551 54.5089 59.3226 54.5089C60.5867 54.5089 61.7288 55.213 61.7288 56.2368C61.7288 56.9919 62.3521 57.5939 63.1182 57.5939C63.8877 57.5939 64.5145 56.9919 64.5145 56.2368C64.5145 54.2505 62.9371 52.4852 60.7155 51.9478V50.6791C60.7155 49.9241 60.0922 49.3085 59.3226 49.3085C58.5531 49.3085 57.9298 49.9241 57.9298 50.6791V51.9478C55.7047 52.4852 54.1342 54.2504 54.1342 56.2368C54.1342 58.6177 56.3942 60.6924 59.3226 60.6924Z" fill="#ACD1F2"/>
<path fill-rule="evenodd" clip-rule="evenodd" d="M52.0895 79.8208H6.39287C5.62331 79.8208 5 79.2222 5 78.4637V45.8116C5 45.2096 5.41437 44.6722 6.00982 44.5055L24.4999 39.3458V16.2342L23.4205 16.4757C23.0061 16.5675 22.5709 16.4757 22.2401 16.207C21.9093 15.9519 21.7143 15.5676 21.7143 15.1458V11.0745C21.7143 10.435 22.1635 9.884 22.7937 9.74121L43.6898 5.03042C43.9335 4.9794 44.1947 4.99301 44.4419 5.06783L61.1528 10.5099C61.7238 10.6901 62.1069 11.2139 62.1069 11.8024V15.3363C62.1069 15.7716 61.9014 16.1696 61.5462 16.4247C61.191 16.6832 60.7349 16.758 60.3135 16.6424L59.3211 16.3498V37.6451C71.5712 37.6451 81.5134 47.3624 81.5134 59.3217C81.5134 60.0768 80.89 60.6924 80.1205 60.6924C79.3509 60.6924 78.7311 60.0768 78.7311 59.3217C78.7311 48.8591 70.0327 40.3696 59.3219 40.3696C58.3782 40.3696 57.4485 40.4342 56.5362 40.5635C52.1904 41.1791 48.3113 43.1994 45.3933 46.1347C44.3277 47.2095 43.391 48.4 42.6075 49.6924C41.8136 51.0121 41.1763 52.4202 40.7202 53.9065C40.5844 54.3419 40.2466 54.6854 39.8044 54.8147C39.5398 54.9031 39.2577 54.9031 38.9896 54.8283C38.5439 54.699 38.1957 54.3657 38.0564 53.9304L35.7059 46.6721C35.4761 45.9681 35.8835 45.1994 36.6147 44.9681C37.3495 44.7369 38.1329 45.1348 38.3662 45.8524L39.5432 49.502C40.3754 47.9 41.4097 46.4136 42.6075 45.0702V12.149L27.2855 15.6047V40.3968V77.1065H42.6075V73.5862C39.1985 69.77 37.1301 64.7771 37.1301 59.3211C37.1301 58.5797 37.7534 57.964 38.5195 57.964C39.289 57.964 39.9158 58.5796 39.9158 59.3211C39.9158 62.8415 40.8978 66.1338 42.6075 68.9635C43.391 70.256 44.3277 71.4465 45.3932 72.5246C47.3885 74.5347 49.833 76.1095 52.5734 77.1061C54.6767 77.8611 56.9506 78.2863 59.3219 78.2863C68.1039 78.2863 75.5353 72.5756 77.9234 64.7492C77.9234 64.7492 77.9234 64.739 77.9269 64.739C78.0557 64.3138 78.397 63.9703 78.8392 63.8274C79.1073 63.7526 79.3894 63.7526 79.6575 63.8274C80.0997 63.9567 80.448 64.29 80.5873 64.7253L82.9342 71.9734C83.1675 72.6911 82.7601 73.4563 82.0289 73.6877C81.2942 73.9054 80.5107 73.5074 80.2809 72.7932L79.1039 69.1538C75.4302 76.1842 67.9503 81 59.3221 81C56.7906 81 54.3566 80.5884 52.0896 79.8197L52.0895 79.8208ZM24.5006 42.176L7.78618 46.8392V77.1072H24.5006V42.176ZM56.5369 37.8224V15.5302L45.394 12.265V42.4581C48.521 39.9855 52.3479 38.336 56.5369 37.8224ZM45.394 76.1986V77.1068H46.6267C46.2018 76.8143 45.7944 76.5184 45.394 76.1986ZM45.394 64.1243C44.8508 62.6141 44.5583 61.0122 44.5583 59.3218C44.5583 57.6449 44.8508 56.0328 45.394 54.5328C47.1177 49.7574 51.345 46.1351 56.5369 45.1586C57.4388 44.9919 58.372 44.9035 59.3226 44.9035C67.4709 44.9035 74.0866 51.3693 74.0866 59.3218C74.0866 67.2875 67.4704 73.7531 59.3226 73.7531C58.372 73.7531 57.4388 73.6647 56.5369 73.498C51.345 72.5253 47.118 68.9001 45.394 64.1243ZM59.3226 60.6924C60.5867 60.6924 61.7288 61.3829 61.7288 62.4203C61.7288 63.4441 60.5867 64.1482 59.3226 64.1482C58.0551 64.1482 56.9199 63.4441 56.9199 62.4203C56.9199 61.6652 56.2966 61.0632 55.5236 61.0632C54.7575 61.0632 54.1342 61.6652 54.1342 62.4203C54.1342 64.4066 55.7047 66.1719 57.9298 66.7093V67.978C57.9298 68.733 58.5531 69.3351 59.3226 69.3351C60.0922 69.3351 60.7155 68.733 60.7155 67.978V66.7093C62.9371 66.1719 64.5145 64.4067 64.5145 62.4203C64.5145 60.0394 62.2511 57.9647 59.3226 57.9647C58.0551 57.9647 56.9199 57.2742 56.9199 56.2368C56.9199 55.213 58.0551 54.5089 59.3226 54.5089C60.5867 54.5089 61.7288 55.213 61.7288 56.2368C61.7288 56.9919 62.3521 57.5939 63.1182 57.5939C63.8877 57.5939 64.5145 56.9919 64.5145 56.2368C64.5145 54.2505 62.9371 52.4852 60.7155 51.9478V50.6791C60.7155 49.9241 60.0922 49.3085 59.3226 49.3085C58.5531 49.3085 57.9298 49.9241 57.9298 50.6791V51.9478C55.7047 52.4852 54.1342 54.2504 54.1342 56.2368C54.1342 58.6177 56.3942 60.6924 59.3226 60.6924Z" stroke="#F2E8D5" stroke-width="10" mask="url(#path-1-outside-1_32_64)"/>
</svg>
