<svg width="105" height="73" viewBox="0 0 105 73" fill="none" xmlns="http://www.w3.org/2000/svg">
<mask id="path-1-outside-1_32_37" maskUnits="userSpaceOnUse" x="-0.999512" y="0" width="106" height="73" fill="black">
<rect fill="white" x="-0.999512" width="106" height="73"/>
<path fill-rule="evenodd" clip-rule="evenodd" d="M64.4043 48.1544C66.9384 52.0448 63.7805 57.0162 58.6353 57.0162C53.5172 57.0162 50.3632 52.048 52.8972 48.1544H51.0487C49.4928 48.1544 48.2258 47.0286 48.2258 45.619C48.2258 44.2366 49.4928 43.1109 51.0487 43.1109H79.94V42.1152H54.6994C53.2553 42.1152 52.0229 41.1468 51.8765 39.8945L47.3399 17.7569C46.9856 15.9298 48.2526 14.7527 49.9047 14.7801H79.9397V14.5953C79.9397 12.8708 78.353 11.4611 76.3812 11.4611L14.0399 11.4577C12.0681 11.4577 10.4814 12.8674 10.4814 14.5919V57.6426H79.9399V56.9685C75.23 56.4416 72.6459 51.795 75.0297 48.1645H64.4048L64.4043 48.1544ZM83.2594 40.7328C83.1669 40.7602 83.0514 40.7602 82.9705 40.7602H54.7033C53.9985 40.7602 53.4362 40.2914 53.3746 39.6891L48.8379 17.5235C48.6916 16.7947 49.3347 16.1412 50.1358 16.1412H86.4676L88.0542 8.63411C88.501 6.49559 90.5536 4.97295 92.9644 5.00036H98.6718C99.4074 5.00036 100 5.55467 100 6.18087C100 6.8344 99.4074 7.36137 98.6718 7.36137H92.9644C91.8129 7.334 90.8464 8.04227 90.6383 9.0585L84.4958 38.5908C88.6165 39.8431 88.7936 44.9448 84.8501 46.4572C83.6755 45.6736 82.266 45.2323 80.7602 45.2323C79.0773 45.2323 77.4714 45.7866 76.2236 46.8267H63.1912C61.955 45.7831 60.3376 45.2323 58.6353 45.2323C56.9524 45.2323 55.3465 45.7866 54.0987 46.8267H51.0486C50.313 46.8267 49.7199 46.2724 49.7199 45.6292C49.7199 45.003 50.313 44.4487 51.0486 44.4487H82.9705C84.796 44.4487 85.7625 42.4675 84.4455 41.287C84.1104 40.9996 83.6945 40.8149 83.2594 40.7328ZM58.6349 46.5598C63.1908 46.5598 65.486 51.4733 62.2781 54.3235C59.0392 57.2012 53.5091 55.1618 53.5091 51.1072C53.5168 48.5957 55.8121 46.5598 58.6349 46.5598ZM80.7592 46.5598C85.315 46.5598 87.6103 51.4733 84.3792 54.3235C81.1713 57.2012 75.641 55.1618 75.641 51.1072C75.6333 48.5957 77.9363 46.5598 80.7592 46.5598ZM82.4921 49.564C80.9671 48.1817 78.2906 49.1671 78.2906 51.1037C78.2906 53.0678 80.9671 54.0258 82.4921 52.6435C83.4549 51.8154 83.4549 50.4331 82.4921 49.564ZM60.3985 49.564C58.8427 48.1817 56.1969 49.1671 56.1969 51.1037C56.1969 53.0678 58.8427 54.0258 60.3985 52.6435C61.342 51.8154 61.342 50.4331 60.3985 49.564ZM72.372 38.4098V32.9523H63.3951V38.4098H72.372ZM72.372 30.5913V25.4931L63.3951 25.4897V30.5879L72.372 30.5913ZM72.372 23.1493V18.4924H63.3951V23.1493H72.372ZM75.0216 18.4924V23.1493H85.0264L86.0007 18.4924H75.0216ZM75.0216 25.4999V30.5982H83.4709L84.53 25.4999H75.0216ZM75.0216 32.9523V38.4098H81.8496L82.9703 32.9523H75.0216ZM54.1909 30.5913H60.7493V25.4931H53.1626L54.1909 30.5913ZM60.7493 32.9523H54.6568L55.7775 38.4098H60.7493V32.9523ZM60.7493 23.1496V18.4928H51.7223L52.6658 23.1496H60.7493ZM5.00049 59.9934H35.0009V64.6947H55.3811V59.9934H85.3816V63.9967C85.3816 66.19 83.3482 68 80.8758 68L9.50667 67.9966C7.03811 67.9966 5.00088 66.1899 5.00088 63.9933L5.00049 59.9934ZM70.8388 37.0718V34.3072H64.9235V37.0718H70.8388ZM70.8388 29.2636V26.8582H64.9235V29.2636H70.8388ZM70.8388 21.8113V19.8302H64.9235V21.8113H70.8388ZM55.457 29.2636H59.2234V26.8582H54.9564L55.457 29.2636ZM59.2234 34.3071H56.4853L57.0476 37.0717H59.2273L59.2234 34.3071ZM59.2234 21.8109V19.8298H53.5469L53.932 21.8109H59.2234ZM79.927 19.8298V21.8109H76.5457V19.8298H79.927ZM79.927 26.8544V29.2598H76.5457V26.8544H79.927ZM79.927 34.3067V37.0714H76.5457V34.3067H79.927ZM33.8911 25.4991C35.3006 25.8413 35.0966 27.6924 33.6215 27.7951C32.886 27.8498 32.1158 27.5077 31.7653 26.9089C30.9142 25.4991 28.4957 25.9679 28.3494 27.5624C28.2878 28.4486 29.0234 29.2321 30.0323 29.3143C31.2685 29.3964 32.3584 29.8857 33.094 30.6693C35.1274 32.736 34.2147 35.9694 31.3302 36.9685V37.5228C31.3302 38.149 30.7371 38.7033 30.0015 38.7033C29.2659 38.7033 28.6728 38.149 28.6728 37.5228V37.1259C27.0554 36.7838 26.2851 35.7881 26.235 35.7709C25.7382 35.6888 25.2607 35.3569 25.1451 34.8573C24.8216 33.4476 27.1476 32.7633 28.2068 34.1764C29.1811 35.4287 31.4147 34.9052 31.5264 33.3929C31.5881 32.4793 30.8525 31.7231 29.8435 31.641C25.8692 31.4015 24.2286 26.9841 27.2287 24.6882C27.6446 24.3734 28.1106 24.1168 28.6382 23.9594V23.518C28.6382 22.8919 29.2313 22.3375 29.9669 22.3375C30.7024 22.3375 31.2955 22.8918 31.2955 23.518V23.8602C32.3661 24.0894 33.302 24.6882 33.8911 25.4991ZM30.8949 19.1486C37.9848 19.59 43.3072 25.0578 42.8103 31.3294C42.3135 37.5978 36.1594 42.3303 29.1006 41.8853C22.0454 41.444 16.7189 35.9762 17.2197 29.7045C17.7127 23.4361 23.8359 18.7036 30.8949 19.1486Z"/>
</mask>
<path fill-rule="evenodd" clip-rule="evenodd" d="M64.4043 48.1544C66.9384 52.0448 63.7805 57.0162 58.6353 57.0162C53.5172 57.0162 50.3632 52.048 52.8972 48.1544H51.0487C49.4928 48.1544 48.2258 47.0286 48.2258 45.619C48.2258 44.2366 49.4928 43.1109 51.0487 43.1109H79.94V42.1152H54.6994C53.2553 42.1152 52.0229 41.1468 51.8765 39.8945L47.3399 17.7569C46.9856 15.9298 48.2526 14.7527 49.9047 14.7801H79.9397V14.5953C79.9397 12.8708 78.353 11.4611 76.3812 11.4611L14.0399 11.4577C12.0681 11.4577 10.4814 12.8674 10.4814 14.5919V57.6426H79.9399V56.9685C75.23 56.4416 72.6459 51.795 75.0297 48.1645H64.4048L64.4043 48.1544ZM83.2594 40.7328C83.1669 40.7602 83.0514 40.7602 82.9705 40.7602H54.7033C53.9985 40.7602 53.4362 40.2914 53.3746 39.6891L48.8379 17.5235C48.6916 16.7947 49.3347 16.1412 50.1358 16.1412H86.4676L88.0542 8.63411C88.501 6.49559 90.5536 4.97295 92.9644 5.00036H98.6718C99.4074 5.00036 100 5.55467 100 6.18087C100 6.8344 99.4074 7.36137 98.6718 7.36137H92.9644C91.8129 7.334 90.8464 8.04227 90.6383 9.0585L84.4958 38.5908C88.6165 39.8431 88.7936 44.9448 84.8501 46.4572C83.6755 45.6736 82.266 45.2323 80.7602 45.2323C79.0773 45.2323 77.4714 45.7866 76.2236 46.8267H63.1912C61.955 45.7831 60.3376 45.2323 58.6353 45.2323C56.9524 45.2323 55.3465 45.7866 54.0987 46.8267H51.0486C50.313 46.8267 49.7199 46.2724 49.7199 45.6292C49.7199 45.003 50.313 44.4487 51.0486 44.4487H82.9705C84.796 44.4487 85.7625 42.4675 84.4455 41.287C84.1104 40.9996 83.6945 40.8149 83.2594 40.7328ZM58.6349 46.5598C63.1908 46.5598 65.486 51.4733 62.2781 54.3235C59.0392 57.2012 53.5091 55.1618 53.5091 51.1072C53.5168 48.5957 55.8121 46.5598 58.6349 46.5598ZM80.7592 46.5598C85.315 46.5598 87.6103 51.4733 84.3792 54.3235C81.1713 57.2012 75.641 55.1618 75.641 51.1072C75.6333 48.5957 77.9363 46.5598 80.7592 46.5598ZM82.4921 49.564C80.9671 48.1817 78.2906 49.1671 78.2906 51.1037C78.2906 53.0678 80.9671 54.0258 82.4921 52.6435C83.4549 51.8154 83.4549 50.4331 82.4921 49.564ZM60.3985 49.564C58.8427 48.1817 56.1969 49.1671 56.1969 51.1037C56.1969 53.0678 58.8427 54.0258 60.3985 52.6435C61.342 51.8154 61.342 50.4331 60.3985 49.564ZM72.372 38.4098V32.9523H63.3951V38.4098H72.372ZM72.372 30.5913V25.4931L63.3951 25.4897V30.5879L72.372 30.5913ZM72.372 23.1493V18.4924H63.3951V23.1493H72.372ZM75.0216 18.4924V23.1493H85.0264L86.0007 18.4924H75.0216ZM75.0216 25.4999V30.5982H83.4709L84.53 25.4999H75.0216ZM75.0216 32.9523V38.4098H81.8496L82.9703 32.9523H75.0216ZM54.1909 30.5913H60.7493V25.4931H53.1626L54.1909 30.5913ZM60.7493 32.9523H54.6568L55.7775 38.4098H60.7493V32.9523ZM60.7493 23.1496V18.4928H51.7223L52.6658 23.1496H60.7493ZM5.00049 59.9934H35.0009V64.6947H55.3811V59.9934H85.3816V63.9967C85.3816 66.19 83.3482 68 80.8758 68L9.50667 67.9966C7.03811 67.9966 5.00088 66.1899 5.00088 63.9933L5.00049 59.9934ZM70.8388 37.0718V34.3072H64.9235V37.0718H70.8388ZM70.8388 29.2636V26.8582H64.9235V29.2636H70.8388ZM70.8388 21.8113V19.8302H64.9235V21.8113H70.8388ZM55.457 29.2636H59.2234V26.8582H54.9564L55.457 29.2636ZM59.2234 34.3071H56.4853L57.0476 37.0717H59.2273L59.2234 34.3071ZM59.2234 21.8109V19.8298H53.5469L53.932 21.8109H59.2234ZM79.927 19.8298V21.8109H76.5457V19.8298H79.927ZM79.927 26.8544V29.2598H76.5457V26.8544H79.927ZM79.927 34.3067V37.0714H76.5457V34.3067H79.927ZM33.8911 25.4991C35.3006 25.8413 35.0966 27.6924 33.6215 27.7951C32.886 27.8498 32.1158 27.5077 31.7653 26.9089C30.9142 25.4991 28.4957 25.9679 28.3494 27.5624C28.2878 28.4486 29.0234 29.2321 30.0323 29.3143C31.2685 29.3964 32.3584 29.8857 33.094 30.6693C35.1274 32.736 34.2147 35.9694 31.3302 36.9685V37.5228C31.3302 38.149 30.7371 38.7033 30.0015 38.7033C29.2659 38.7033 28.6728 38.149 28.6728 37.5228V37.1259C27.0554 36.7838 26.2851 35.7881 26.235 35.7709C25.7382 35.6888 25.2607 35.3569 25.1451 34.8573C24.8216 33.4476 27.1476 32.7633 28.2068 34.1764C29.1811 35.4287 31.4147 34.9052 31.5264 33.3929C31.5881 32.4793 30.8525 31.7231 29.8435 31.641C25.8692 31.4015 24.2286 26.9841 27.2287 24.6882C27.6446 24.3734 28.1106 24.1168 28.6382 23.9594V23.518C28.6382 22.8919 29.2313 22.3375 29.9669 22.3375C30.7024 22.3375 31.2955 22.8918 31.2955 23.518V23.8602C32.3661 24.0894 33.302 24.6882 33.8911 25.4991ZM30.8949 19.1486C37.9848 19.59 43.3072 25.0578 42.8103 31.3294C42.3135 37.5978 36.1594 42.3303 29.1006 41.8853C22.0454 41.444 16.7189 35.9762 17.2197 29.7045C17.7127 23.4361 23.8359 18.7036 30.8949 19.1486Z" fill="#ACD1F2"/>
<path fill-rule="evenodd" clip-rule="evenodd" d="M64.4043 48.1544C66.9384 52.0448 63.7805 57.0162 58.6353 57.0162C53.5172 57.0162 50.3632 52.048 52.8972 48.1544H51.0487C49.4928 48.1544 48.2258 47.0286 48.2258 45.619C48.2258 44.2366 49.4928 43.1109 51.0487 43.1109H79.94V42.1152H54.6994C53.2553 42.1152 52.0229 41.1468 51.8765 39.8945L47.3399 17.7569C46.9856 15.9298 48.2526 14.7527 49.9047 14.7801H79.9397V14.5953C79.9397 12.8708 78.353 11.4611 76.3812 11.4611L14.0399 11.4577C12.0681 11.4577 10.4814 12.8674 10.4814 14.5919V57.6426H79.9399V56.9685C75.23 56.4416 72.6459 51.795 75.0297 48.1645H64.4048L64.4043 48.1544ZM83.2594 40.7328C83.1669 40.7602 83.0514 40.7602 82.9705 40.7602H54.7033C53.9985 40.7602 53.4362 40.2914 53.3746 39.6891L48.8379 17.5235C48.6916 16.7947 49.3347 16.1412 50.1358 16.1412H86.4676L88.0542 8.63411C88.501 6.49559 90.5536 4.97295 92.9644 5.00036H98.6718C99.4074 5.00036 100 5.55467 100 6.18087C100 6.8344 99.4074 7.36137 98.6718 7.36137H92.9644C91.8129 7.334 90.8464 8.04227 90.6383 9.0585L84.4958 38.5908C88.6165 39.8431 88.7936 44.9448 84.8501 46.4572C83.6755 45.6736 82.266 45.2323 80.7602 45.2323C79.0773 45.2323 77.4714 45.7866 76.2236 46.8267H63.1912C61.955 45.7831 60.3376 45.2323 58.6353 45.2323C56.9524 45.2323 55.3465 45.7866 54.0987 46.8267H51.0486C50.313 46.8267 49.7199 46.2724 49.7199 45.6292C49.7199 45.003 50.313 44.4487 51.0486 44.4487H82.9705C84.796 44.4487 85.7625 42.4675 84.4455 41.287C84.1104 40.9996 83.6945 40.8149 83.2594 40.7328ZM58.6349 46.5598C63.1908 46.5598 65.486 51.4733 62.2781 54.3235C59.0392 57.2012 53.5091 55.1618 53.5091 51.1072C53.5168 48.5957 55.8121 46.5598 58.6349 46.5598ZM80.7592 46.5598C85.315 46.5598 87.6103 51.4733 84.3792 54.3235C81.1713 57.2012 75.641 55.1618 75.641 51.1072C75.6333 48.5957 77.9363 46.5598 80.7592 46.5598ZM82.4921 49.564C80.9671 48.1817 78.2906 49.1671 78.2906 51.1037C78.2906 53.0678 80.9671 54.0258 82.4921 52.6435C83.4549 51.8154 83.4549 50.4331 82.4921 49.564ZM60.3985 49.564C58.8427 48.1817 56.1969 49.1671 56.1969 51.1037C56.1969 53.0678 58.8427 54.0258 60.3985 52.6435C61.342 51.8154 61.342 50.4331 60.3985 49.564ZM72.372 38.4098V32.9523H63.3951V38.4098H72.372ZM72.372 30.5913V25.4931L63.3951 25.4897V30.5879L72.372 30.5913ZM72.372 23.1493V18.4924H63.3951V23.1493H72.372ZM75.0216 18.4924V23.1493H85.0264L86.0007 18.4924H75.0216ZM75.0216 25.4999V30.5982H83.4709L84.53 25.4999H75.0216ZM75.0216 32.9523V38.4098H81.8496L82.9703 32.9523H75.0216ZM54.1909 30.5913H60.7493V25.4931H53.1626L54.1909 30.5913ZM60.7493 32.9523H54.6568L55.7775 38.4098H60.7493V32.9523ZM60.7493 23.1496V18.4928H51.7223L52.6658 23.1496H60.7493ZM5.00049 59.9934H35.0009V64.6947H55.3811V59.9934H85.3816V63.9967C85.3816 66.19 83.3482 68 80.8758 68L9.50667 67.9966C7.03811 67.9966 5.00088 66.1899 5.00088 63.9933L5.00049 59.9934ZM70.8388 37.0718V34.3072H64.9235V37.0718H70.8388ZM70.8388 29.2636V26.8582H64.9235V29.2636H70.8388ZM70.8388 21.8113V19.8302H64.9235V21.8113H70.8388ZM55.457 29.2636H59.2234V26.8582H54.9564L55.457 29.2636ZM59.2234 34.3071H56.4853L57.0476 37.0717H59.2273L59.2234 34.3071ZM59.2234 21.8109V19.8298H53.5469L53.932 21.8109H59.2234ZM79.927 19.8298V21.8109H76.5457V19.8298H79.927ZM79.927 26.8544V29.2598H76.5457V26.8544H79.927ZM79.927 34.3067V37.0714H76.5457V34.3067H79.927ZM33.8911 25.4991C35.3006 25.8413 35.0966 27.6924 33.6215 27.7951C32.886 27.8498 32.1158 27.5077 31.7653 26.9089C30.9142 25.4991 28.4957 25.9679 28.3494 27.5624C28.2878 28.4486 29.0234 29.2321 30.0323 29.3143C31.2685 29.3964 32.3584 29.8857 33.094 30.6693C35.1274 32.736 34.2147 35.9694 31.3302 36.9685V37.5228C31.3302 38.149 30.7371 38.7033 30.0015 38.7033C29.2659 38.7033 28.6728 38.149 28.6728 37.5228V37.1259C27.0554 36.7838 26.2851 35.7881 26.235 35.7709C25.7382 35.6888 25.2607 35.3569 25.1451 34.8573C24.8216 33.4476 27.1476 32.7633 28.2068 34.1764C29.1811 35.4287 31.4147 34.9052 31.5264 33.3929C31.5881 32.4793 30.8525 31.7231 29.8435 31.641C25.8692 31.4015 24.2286 26.9841 27.2287 24.6882C27.6446 24.3734 28.1106 24.1168 28.6382 23.9594V23.518C28.6382 22.8919 29.2313 22.3375 29.9669 22.3375C30.7024 22.3375 31.2955 22.8918 31.2955 23.518V23.8602C32.3661 24.0894 33.302 24.6882 33.8911 25.4991ZM30.8949 19.1486C37.9848 19.59 43.3072 25.0578 42.8103 31.3294C42.3135 37.5978 36.1594 42.3303 29.1006 41.8853C22.0454 41.444 16.7189 35.9762 17.2197 29.7045C17.7127 23.4361 23.8359 18.7036 30.8949 19.1486Z" stroke="#F2E8D5" stroke-width="10" mask="url(#path-1-outside-1_32_37)"/>
</svg>
