<svg width="90" height="83" viewBox="0 0 90 83" fill="none" xmlns="http://www.w3.org/2000/svg">
<path d="M39.4539 2.5C51.4356 2.5 61.6384 11.3383 61.6384 22.7363C61.6384 27.8972 59.5087 32.5486 56.0964 36.0781C58.6701 37.2364 61.1035 38.6656 63.3416 40.3477C63.7336 40.2609 64.1428 40.2129 64.5652 40.2129C66.4754 40.2129 68.3513 41.1598 69.3728 42.8623L69.3767 42.8672L73.7439 50.1865L82.072 51.5479L82.0779 51.5449L82.9128 51.6807C84.81 51.9874 86.5193 53.2437 87.2039 55.1416C87.9041 57.0836 87.3302 59.1645 85.8728 60.5361L85.8738 60.5371L79.5798 66.4648L80.7917 74.5264C81.1033 76.5752 80.116 78.4919 78.4724 79.5684L78.4714 79.5674C76.85 80.6301 74.7724 80.7871 73.0115 80.0215L64.5652 76.3555L56.116 80.0225C55.3717 80.3455 54.5809 80.498 53.8074 80.498C52.7167 80.498 51.6123 80.1918 50.6599 79.5684H50.6589C49.0153 78.4918 48.0272 76.575 48.3386 74.5264L48.7585 71.7422H13.3171C10.1516 71.7421 7.12113 70.4708 5.02319 68.1729L5.02124 68.1719C2.94645 65.895 2.05645 62.8621 2.71362 59.8701C5.04689 49.2089 12.7488 40.6198 22.8093 36.0771C19.3971 32.5481 17.2693 27.8975 17.2693 22.7363C17.2693 11.3386 27.4722 2.50014 39.4539 2.5ZM63.7156 57.4863L63.7146 57.4854C62.8706 58.9001 61.419 59.8072 59.8445 60.0625L59.8455 60.0635L58.6287 60.2617L59.3064 60.9004L59.5242 61.1182C60.5815 62.2317 61.1189 63.7632 60.8806 65.3447L60.8816 65.3457L60.7048 66.5205L62.2498 65.8496L62.5271 65.7373C63.927 65.2125 65.4964 65.252 66.8708 65.8486L68.4148 66.5195L68.239 65.3457L68.238 65.3389C68.2324 65.3006 68.2291 65.2618 68.2244 65.2236H65.2234L69.8064 60.9043L70.4871 60.2617L69.2703 60.0635V60.0615C67.6962 59.8057 66.2438 58.8998 65.4001 57.4854V57.4844L64.5583 56.0732L63.7156 57.4863ZM39.45 42.9795C26.9544 42.9796 16.38 50.7989 13.7009 61.2881H44.0476L43.2537 60.541V60.54C41.7928 59.1681 41.2252 57.0822 41.9236 55.1455V55.1445C42.6077 53.2483 44.3152 51.9924 46.2107 51.6846L55.3777 50.1865L56.3767 48.5137C51.6783 44.9889 45.7056 42.9795 39.45 42.9795ZM39.447 12.958C33.0613 12.9581 28.3171 17.5874 28.3171 22.7393C28.3172 27.8909 33.0612 32.5204 39.447 32.5205C45.8327 32.5205 50.5768 27.8911 50.5769 22.7393C50.5769 17.5875 45.833 12.958 39.447 12.958Z" fill="#ACD1F2" stroke="#F2E8D5" stroke-width="5"/>
</svg>
