<svg width="70" height="70" viewBox="0 0 70 70" fill="none" xmlns="http://www.w3.org/2000/svg">
<path d="M34.8049 2.5C43.8098 2.50019 51.304 9.63949 51.304 18.5527C51.3038 27.4663 43.8093 34.6043 34.8049 34.6045C25.7971 34.6045 18.3021 27.4663 18.302 18.5527C18.302 9.63852 25.7975 2.5 34.8049 2.5ZM34.8049 12.4277C31.156 12.4277 28.3967 15.2141 28.3967 18.5498C28.397 21.8853 31.1565 24.6709 34.8049 24.6709C38.4535 24.6707 41.2119 21.8852 41.2122 18.5498C41.2122 15.2142 38.4534 12.4279 34.8049 12.4277Z" stroke="#F2E8D5" stroke-width="5"/>
<path d="M42.449 34.5291C47.9846 34.5292 52.6223 37.283 55.6335 41.0281C58.6174 44.7391 60.2263 49.4803 60.2263 54.2712V56.7449C60.2262 62.2667 55.5587 66.6304 50.0769 66.6306H19.5398C14.0558 66.6306 9.3925 62.2617 9.39233 56.7449V54.2712C9.39235 49.4833 11.0012 44.7393 13.9851 41.0281C16.9967 37.2825 21.635 34.5291 27.1736 34.5291H42.449ZM26.7908 44.4675C24.8783 44.576 23.274 45.497 21.9089 47.197L21.908 47.198C20.4347 49.0302 19.491 51.6734 19.491 54.2712V56.6902C19.5047 56.6928 19.5228 56.699 19.5466 56.699H50.0837C50.1073 56.699 50.1248 56.6928 50.1384 56.6902V54.2712C50.1384 51.6749 49.1957 49.0346 47.7214 47.198C46.2612 45.3828 44.5321 44.4568 42.4519 44.4568H27.1775L26.7908 44.4675Z" stroke="#F2E8D5" stroke-width="5"/>
<path d="M58.0457 22.2092V22.2102C59.7158 22.2114 61.2998 23.0902 62.1433 24.5813L62.1453 24.5842L63.0261 26.1477L64.6511 27.0081H64.6521C67.9523 28.7522 67.9449 33.4057 64.656 35.1506L64.6531 35.1516L63.0261 36.012L62.1453 37.5764L62.1443 37.5793C60.353 40.7475 55.7403 40.7323 53.948 37.5862L53.9431 37.5784L53.0583 36.012L51.4333 35.1516C48.1331 33.4074 48.1403 28.7548 51.4294 27.01L51.4314 27.009L53.0583 26.1477L53.9431 24.5823L53.947 24.5764C54.7888 23.0954 56.3721 22.2112 58.0427 22.2102V22.2092H58.0457Z" stroke="#F2E8D5" stroke-width="5"/>
<path d="M12.4907 24.6731C13.8962 24.6731 15.2219 25.3669 16.0044 26.5491L16.1538 26.7913L16.1577 26.7981L16.7573 27.8606L17.8696 28.4495L17.8716 28.4504C20.8186 30.0118 20.8183 34.1868 17.8716 35.7483L17.8696 35.7493L16.7583 36.3362L16.1577 37.4016L16.1538 37.4084C14.5494 40.2312 10.432 40.231 8.82764 37.4084L8.82373 37.4016L8.22217 36.3362L7.11279 35.7493L7.10986 35.7483C4.16316 34.1868 4.16322 30.0118 7.10986 28.4504L7.11279 28.4495L8.22314 27.8616L8.82373 26.7981L8.82764 26.7913C9.58522 25.4576 11.0031 24.6731 12.4907 24.6731Z" stroke="#F2E8D5" stroke-width="5"/>
<path d="M8.8877 13.5149C10.1595 13.5149 11.3494 14.1475 12.0557 15.2034L12.1904 15.4202L12.2041 15.4436L12.5742 16.1038L13.2705 16.4719L13.2793 16.4768C15.937 17.8957 15.9371 21.6712 13.2793 23.0901L13.2705 23.095L12.5752 23.4612L12.2041 24.1233L12.1982 24.1331C10.7499 26.6834 7.02102 26.6967 5.57129 24.1272L5.56934 24.1233L5.19727 23.4612L4.50293 23.095L4.49316 23.0901C1.83554 21.6712 1.8355 17.8958 4.49316 16.4768L4.50293 16.4719L5.19727 16.1038L5.56934 15.4436C6.25962 14.2134 7.55869 13.515 8.8877 13.5149Z" stroke="#F2E8D5" stroke-width="5"/>
</svg>
