<svg xmlns="http://www.w3.org/2000/svg" width="32" height="32" fill="none" viewBox="0 0 32 32"><path fill="#aa463c" d="M24.381 19.81H6.095L0 25.905V1.524A1.524 1.524 0 0 1 1.524 0H24.38a1.524 1.524 0 0 1 1.524 1.524v16.762a1.524 1.524 0 0 1-1.524 1.523M32 10.667V32l-6.095-6.095H9.143a1.524 1.524 0 0 1-1.524-1.524v-1.524h21.333V9.143h1.524A1.524 1.524 0 0 1 32 10.667M9.432 3.047c-1.325 0-2.392.305-3.215.9-.792.624-1.188 1.493-1.173 2.697l.015.046H8c.015-.458.152-.808.427-1.052a1.52 1.52 0 0 1 1.005-.35c.473 0 .869.152 1.143.426.275.29.396.686.396 1.143 0 .488-.106.9-.35 1.25-.213.35-.533.655-.93.899-.777.518-1.31.975-1.6 1.386-.304.397-.472 1.037-.472 1.799h3.048c0-.473.06-.854.198-1.128.137-.274.396-.549.777-.793.686-.365 1.25-.807 1.691-1.417s.67-1.234.67-1.996c0-1.158-.41-2.087-1.233-2.773-.808-.686-1.92-1.036-3.338-1.036M7.62 13.715v3.048h3.048v-3.048zm9.143 3.048h3.047v-3.048h-3.047zm0-13.714v9.143h3.047V3.047z"/></svg>