<svg xmlns="http://www.w3.org/2000/svg" width="380" height="118" fill="none" viewBox="0 0 380 118"><g clip-path="url(#clip0_32_523)"><path fill="#aa463c" d="M95.528 18.87c-.884-1.258-2.106-1.87-3.736-1.87q-.18 0-.38.008c-1.965.072-4.15.414-6.265.745-1.409.22-2.739.43-3.943.55a230 230 0 0 1-23.182 1.166c-8.228 0-16.495-.44-24.571-1.306-1.034-.111-2.162-.29-3.357-.479-1.839-.29-3.74-.59-5.497-.669a8 8 0 0 0-.343-.007c-1.76 0-2.773.688-3.313 1.265-.532.569-1.118 1.57-.891 3.11q.056.384.228.74l2.512 5.202a2.8 2.8 0 0 0 1.453 1.353l.852.356q.392.163.815.214l.101.012c-.822.68-1.364 1.638-1.475 2.42-.149 1.047-.16 4.4.025 5.496.211 1.258 1.501 3.118 3.603 3.118h2.187l-1.966 27.178a4.3 4.3 0 0 0-1.32.854c-1.297 1.242-1.368 2.866-1.34 4.153a3.606 3.606 0 0 0-.814 4.26c.632 1.292 1.951 2.118 3.446 2.157h.079q.1 0 .203-.006a31 31 0 0 1 1.968-.057c1.076 0 2.17.04 3.33.081 1.162.042 2.362.085 3.546.085a34 34 0 0 0 2.884-.11c1.398-.118 2.58-.767 3.245-1.78.652-.993.736-2.237.231-3.413a3.6 3.6 0 0 0-.768-1.122c.025-.574.012-1.244-.137-1.912-.273-1.222-.95-2.199-1.927-2.823l2.185-27.545H72.85l2.001 27.64a4.4 4.4 0 0 0-.535.43c-1.236 1.17-1.41 2.87-1.395 4.205a3.66 3.66 0 0 0-.988 1.735c-.265 1.118-.043 2.204.626 3.057.687.876 1.776 1.419 3.067 1.528.866.074 1.809.11 2.883.11 1.183 0 2.383-.043 3.543-.085 1.16-.041 2.253-.08 3.329-.08a30 30 0 0 1 1.973.057 3 3 0 0 0 .446-.003c1.815-.142 3.266-1.339 3.612-2.977.26-1.23-.138-2.447-1.019-3.32.024-1.405-.16-3.21-1.596-4.408a4.5 4.5 0 0 0-1.189-.709l-1.967-27.18h2.187c2.329 0 3.453-2.257 3.609-3.286.173-1.144.16-4.05.02-5.157-.118-.934-.657-1.91-1.487-2.587.31-.038.612-.123.892-.251l1.107-.504a2.8 2.8 0 0 0 1.367-1.313l2.408-4.977c.169-.349.256-.726.256-1.108v-.767c0-.524-.164-1.036-.472-1.475"/><path fill="#f2e8d5" d="M93.108 20.345v.766L90.7 26.088l-1.106.503-7.87.912.275 3.578h5.555c.488 0 .974.63 1.032 1.084.114.907.122 3.58-.012 4.468-.043.279-.459.967-.746.967h-5.28l2.33 32.21c.712-.012 1.42-.094 1.99.382 1.066.887.415 3.772.623 3.957.04.036.314-.02.434.037 1.035.494.842 1.922-.369 2.017-3.757-.247-7.966.318-11.667.003-.825-.07-1.327-.504-1.133-1.32.188-.79.983-.664 1.064-.736.192-.173-.397-2.992.556-3.892.396-.374.96-.504 1.51-.447L75.551 37.6H40.51l-2.54 32.018c-.058.34.562.148.863.22 2.223.534.96 3.966 1.341 4.311.06.054.717-.074.986.55.369.856-.128 1.429-1.054 1.508-3.702.314-7.911-.25-11.668-.004-.898-.023-1.305-1.112-.756-1.733.258-.291.851-.264.946-.523.119-1.996-.707-4.519 2.488-4.136l2.33-32.21h-5.28c-.286 0-.698-.553-.746-.84-.136-.806-.133-3.901-.015-4.728.045-.319.62-.951.899-.951h5.555l.259-3.566-7.837-.94-.852-.357-2.513-5.204c-.16-1.084.518-1.355 1.544-1.31 2.658.12 5.916.84 8.661 1.134a234.6 234.6 0 0 0 48.398.143c3.144-.32 6.995-1.171 10.009-1.282.761-.029 1.149.028 1.582.644zm-57.81 12.91h-5.556v2.172h5.007c.233 0 .926.492 1 .73.1.316.048 1.13.034 1.512-.347 9.44-1.583 19.159-2.198 28.627a61 61 0 0 0-.14 3.514h2.195l2.481-33.284c.098-.652.413-.884 1.078-1.042l37.114-.062c.595.05 1.218.153 1.389.748l2.514 33.64h2.331l-2.445-33.17c-.014-.532.588-1.211 1.143-1.211h5.006v-2.173H80.56c-.294 0-.696-.688-.747-.966-.254-1.395-.405-3.913-.429-5.358-.011-.682.132-1.28.914-1.461l8.468-.928 1.188-2.406c-19.957 2.763-40.106 2.805-60.124.494-1.088-.125-2.542-.493-3.58-.5-.287-.002-.252.073-.184.3.083.28.981 2.06 1.162 2.114l8.556.973c.474.184.746.568.808 1.038-.333 1.797-.15 3.82-.414 5.602-.062.415-.423 1.007-.88 1.098m2.537 38.728H30.84v2.045h6.995zm47.318 0h-6.995v2.045h6.995z"/><path fill="#aa463c" d="M35.297 33.255c.457-.092.818-.683.879-1.099.264-1.78.082-3.804.414-5.602-.063-.47-.333-.854-.808-1.037l-8.556-.974c-.18-.053-1.08-1.833-1.162-2.114-.067-.228-.103-.302.184-.3 1.038.008 2.493.375 3.58.5 20.018 2.31 40.168 2.27 60.124-.494l-1.187 2.406-8.469.928c-.78.181-.925.78-.913 1.461.024 1.445.175 3.963.429 5.358.05.278.452.967.746.967h5.692v2.172h-5.007c-.555 0-1.157.68-1.143 1.211l2.446 33.172h-2.332L77.7 36.17c-.17-.595-.794-.697-1.389-.748l-37.114.062c-.665.157-.98.39-1.077 1.04L35.639 69.81h-2.195c.008-1.168.063-2.347.14-3.513.615-9.468 1.852-19.188 2.198-28.628.014-.381.064-1.195-.034-1.512-.074-.238-.768-.73-1-.73H29.74v-2.172zm41.853-.301c.246-.229.3-.468.331-.777.132-1.34-.422-3.09-.285-4.48-.19-.744.016-1.69-1.034-1.847-10.254.718-20.574.865-30.85.373-1.574-.075-3.725-.46-5.217-.392-.862.04-1.187.471-1.285 1.24a46 46 0 0 0-.296 3.814c-.026.833-.25 2.194.905 2.362l37.264-.027c.16-.07.34-.15.466-.267zM37.835 71.983H30.84v2.045h6.995zm47.318 0h-6.995v2.045h6.995z"/><path fill="#f2e8d5" d="M77.15 32.954c-.125.116-.306.196-.466.267l-37.264.026c-1.155-.168-.931-1.529-.905-2.362a46 46 0 0 1 .296-3.814c.098-.768.423-1.2 1.285-1.24 1.49-.067 3.642.318 5.216.393 10.277.491 20.596.344 30.85-.374 1.051.158.845 1.103 1.035 1.847-.137 1.39.416 3.141.285 4.48-.03.31-.085.548-.332.778zm-36.298-1.872h34.289l-.274-2.941c-2.17.09-4.341.168-6.514.258-7.565.312-15.068.342-22.638.004-.705-.032-4.23-.44-4.57-.243z"/><path fill="#aa463c" d="m56.62 40.707-.038-.037h.038zm2.236.56c.041.03.054.056.076.075l.077.074.039.037c-.007.094.071.107.115.15.012.011.028.023.039.037-.01.115.104.197.153.298a2.36 2.36 0 0 1 .05 1.562c-.055.173-.167.338-.203.495-.004.012.001.026 0 .038l-.077.018c0 .036.049.014.077.019.012.002.026-.004.038 0-.023.1.05.075.115.091.61.175 1.246.336 1.763.692l.59.3c.623.446 1.21 1.016 1.58 1.683.056.015.065-.016.097-.036.178-.12.356-.312.557-.45l.557-.262c.491-.185 1.009-.188.636.45-.05.086-.148.172-.199.272-.285.568-.068 1.52-.243 2.194-.087.338-.267.572-.405.86-.017.038-.061.009-.077.15-.024.216.02.47 0 .691-.037.395-.265 1.004-.5 1.328-.108.15-.307.31-.424.45-.117.138-.088.166-.154.356a7 7 0 0 1-.367.878c-.02.037-.096.127-.02.15-.25.423-.56.762-.883 1.135.286.265.526.565.748.884.232-.358.408-.52.828-.635 1.254-.074 2.505-.2 3.756-.298.584-.046 1.173-.105 1.753-.15.206-.014.398-.018.6-.033.959-.073 2.014-.204 2.961-.229.788-.022 1.11.446.973 1.17-.204 1.089-.68 2.32-.952 3.432-.004.012.004.026 0 .038-.09.152-.133.345-.182.515-.286 1.006-.526 2.147-.87 3.12-.063.176-.103.29-.22.441-.468.614-1.468.468-2.167.646-.071.019-.087.03-.145.065-.012.006-.026.025-.038.037-.147.139-.233.356-.346.524-.362.346-.867.609-1.405.637-.124.007-.552-.05-.601-.022-.094.058.09.32.117.394.025.064 0 .17.077.224v.037c.052.497.04.899-.052 1.389-.011.054-.06.146.014.181a3.28 3.28 0 0 1-1.85 2.057l-1.252.261c-.412-.017-.886.034-1.29-.037-.204-.036-1.023-.363-1.15-.292-.017.01-.022.082-.043.105l-.038.038-1.234.524h-.038c-.285-.07-.596.008-.906 0a10 10 0 0 1-1.099-.112c-.068-.01-.188-.073-.267-.088a11 11 0 0 1-1.76-.472c-.144-.018-.293.06-.4.148-.012.003-.026-.004-.038 0-.458.118-.916.302-1.387.374-.41.063-1.016.1-1.426.075a8.1 8.1 0 0 1-3.44-1.055l-.298-.105c-.456-.273-.901-.566-1.29-.926-.326.18-.662.367-1.021.477-.067-.078-.247.012-.308.074-.012.002-.026-.001-.038 0-.795.138-1.674.189-2.427-.149-.14-.062-.296-.234-.463-.26l-.039-.038a2.2 2.2 0 0 1-.377-.55c-.282-.685.078-1.356.454-1.918.096-.064.257-.291.346-.412.02-.025.09-.039.077-.111.028-.03.054-.051.077-.075.213-.142.396-.375.578-.561l.077-.075h.077v-.075l.077-.074h.077l-.039-.038.81-.785.038-.037c.01-.014.026-.024.038-.037.066-.004.196-.166.23-.216.637-.881.392-1.695.62-2.7.482-2.136 1.79-3.972 3.35-5.48.046-.044.076-.117.116-.168.038-.034.066-.07.115-.112.14-.025.208-.11.27-.223.008-.017.047-.068.038-.075a2.5 2.5 0 0 1-.694-.187c.005-.093-.06-.094-.115-.132-.178-.119-.372-.219-.54-.354-.026-.026-.05-.046-.077-.075-.094-.24-.383-.498-.194-.768.456-.039.875.044 1.288-.202.04-.017.02-.049.024-.078a.3.3 0 0 0 0-.074l-.038-.038a8 8 0 0 0-.248-.413c-.065-.056-.407-.189-.535-.267a2.8 2.8 0 0 1-.835-.815c.066-.009-.018-.11-.032-.138-.12-.212-.218-.366-.304-.602-.122-.332-.262-.76-.126-1.093.29-.109.561.047.848.074.007 0 .096.08.115-.02.005-.024-.11-.319-.127-.399-.096-.435-.058-.776-.11-1.161-.027-.197-.212-.779-.35-.918-.023-.023-.065-.005-.068-.008-.01-.014-.026-.024-.038-.037 0-.065-.055-.104-.077-.15-.117-.237-.12-.381.173-.41.611-.061 1.322.219 1.82.55.1.066.345.315.42.342.124.046.07-.042.105-.093.01-.016.063-.014.064-.033.006-.07-.04-.052-.04-.056.072-.515 1.636-1.68 2.12-1.945.022.073.117 0 .155-.017a6 6 0 0 1 1.057-.432c.15-.044.753-.15.81-.224l.018-.074c-.23-.345-.297-.743-.347-1.143l.117-.802c.176-.424.489-.736.886-.972l.57-.214c.207-.029.462-.139.663-.16.762-.079 1.62.123 2.235.562zm-.156 2.131c.407-1.414-.674-2.124-2.023-2.02-1.038.08-1.9 1.008-1.444 2.022.9-.498 2.185-.619 3.135-.181.124.056.212.139.332.181zm-.269.412c-.84-.539-2.078-.457-2.927.02-.005.126.628.018.711.016.47-.01 1-.02 1.468 0 .136.005.64.105.713.06l.037-.094zm-1.964.748c-.201.609.014 1.243.377 1.747.247.342.373.476.81.56.293.055.545.14.733-.126.311-.443.593-1.418.27-1.894-.207-.305-.624-.188-.939-.287h-1.253zm-.502.038-1.633.295c-.05.458.356.981.713 1.253.44.336.805.315 1.345.358-.066-.17-.18-.32-.25-.487-.178-.426-.269-.968-.175-1.42m2.929 2.131c.353-.154.854-.142 1.117-.43.204-.224.475-.913.213-1.142-.09-.078-1.019-.373-1.06-.336.135.479.127.964-.048 1.432-.028.073-.248.45-.222.476m-5.051-1.679c-.114-.078-.998.407-1.149.506a5.4 5.4 0 0 0-1.345 1.275c-.08.11-.34.393-.241.519.05.064.377.28.468.33.404.233.807.32 1.28.285.434-.722 1.069-1.25 1.914-1.46-.445-.4-.786-.871-.928-1.455m6.63 1.416a2.48 2.48 0 0 1 1.912 1.082l.36-.244a5.3 5.3 0 0 0-1.132-1.362c-.157-.13-.633-.47-.81-.522-.073-.02-.052.012-.057.054-.023.178-.014.309-.066.497-.05.176-.152.322-.203.493zm-7.937 2.17c-.507.014-1.02-.157-1.453-.404-.718-.414-1.168-1.213-2.016-1.41.294.638.124 1.347.393 2.011.095.233.486.79.725.87.08.027.186-.05.287-.056.398-.022.74.055 1.097.224l-.557-.412c-.271-.25-.566-.53-.657-.895.32.195 1.15.94 1.504.938.231-.002.717-.826.673-.864zm11.637-1.608-1.383 1.146.19.61.576-.486c-.002.36-.246.629-.423.919l.115.614c.421-.104.701-.616.792-1.008.136-.59-.032-1.21.133-1.795m-9.98.486c-.15.107-.473.477-.578.636-.036-.092-.056.034-.07.063-.195.393-.431.93-.662 1.284a5.6 5.6 0 0 1-.77.897l-.039.037-.367.191-.375-.191c-.42-.378-1.12-.287-1.213.329-.075.502.016.866.337 1.243.03.035.054.05.077.074.018.02.058.058.077.075.044.039.14.16.184.187.284.176.639.195.968.193l.393.861c.035.043.076.058.111.105.01.014.028.024.039.038-.005.093.105.202.16.273.05.06.097.18.186.174.017.02.049.043.077.075.017.1.178.226.269.261.024.026.05.048.077.075.008.01.04.127.134.149l.02-.037.038.037c.708.704 2.161 1.16 3.159 1.235h.039c.1.042.276.069.386.074.62.034 1.445.02 2.042-.132.065-.017.136.005.116-.093.39-.09.754-.209 1.116-.375l.285-.08c.32-.198.634-.398.922-.638.053-.044.102-.06.104-.142l.038-.037c.138-.055.253-.21.346-.328.43-.54.828-1.456.886-2.14.007-.086.02-.194-.038-.26v-.075c.116.02.075-.058.076-.13a7 7 0 0 0 0-.544c-.026-.5-.12-1.178-.281-1.654-.021-.062-.009-.123-.103-.104-.15-.485-.313-.856-.617-1.272.054-.064-.075-.112-.115-.149-.054-.05-.108-.11-.154-.15-.028-.023-.052-.074-.096-.111-.477-.409-1.438-.443-1.985-.151-.339.083-.687.27-1.022.298-.336.03-.743-.04-1.06-.111-.459-.104-.709-.231-1.194-.299-.11-.015-.233-.068-.365-.076-.507-.034-1.194.045-1.562.412zM49.64 50.21c-.188-.063-.318-.332-.486-.409s-.442-.047-.627-.12c.102.589.477 1.024.944 1.384.087.015.054-.037.057-.093.02-.273.016-.49.11-.762zm13.877.182-.195.059.042.724.103-.329.05-.456zm-12.06 3.14c.025-.022-.12-.363-.155-.392-.028-.023-.67-.195-.722-.2-.089-.008-.285.192-.423.248-.181.074-.352.1-.55.083.512.378 1.242.32 1.85.261m.193.599c-.065-.046-.806.52-.904.598-1.677 1.342-3.058 3.371-3.63 5.413-.37 1.316-.214 2.698-.743 3.992-.046.113-.348.756-.502.653-.154-.104.27-.967.212-1.159-.708.83-1.697 1.445-2.347 2.322-1.102 1.485.355 2.055 1.73 1.94 2.004-.168 3.802-2.278 4.75-3.84.73-1.198 1.196-2.565 2.204-3.582.01-.08-.007-.048-.058-.055-.567-.084-2.439-.317-2.755-.766-.12-.171-.06-.365.171-.358.23.007.776.197 1.056.253.101.02.713.149.739.123 0-.8-.142-1.597-.306-2.379a.23.23 0 0 1 .4-.16c.187.196.346 1.015.395 1.298.077.443.096.904.163 1.338l1.52.166c.557-.35 1.106-.661 1.794-.673l-1.716-1.682c-.941-.995-1.787-2.125-2.177-3.44zm4.7 5.085s.01.036.028.029c.007-.003.103-.11.087-.14.012-.01.025-.026.039-.038.084-.063.035-.029.077-.075.03-.032.05-.049.076-.074l.116-.038c.008-.029-.039-.032-.039-.037 0-.014.004-.029 0-.037-.026-.058.014-.087-.115-.112l-.115-.112c-.056-.097-.145-.158-.231-.224-.746-.585-1.61-1.477-2.212-2.21-.105-.128-.197-.337-.311-.445-.138-.13-.454-.268-.633-.397a5.3 5.3 0 0 1-.716-.614c-.03-.005-.025.035-.02.056.044.136.268.485.354.629.884 1.468 2.208 2.583 3.421 3.785.079.096.119.057.194.056zm14.14-3.888c-.586.046-1.184.066-1.77.112-1.245.1-2.503.227-3.738.336-.463.04-.933.049-1.396.084-.12.05-.193.151-.278.236-.028.027-.133.039-.021.092-.012.013-.03.025-.039.037-.155.217-.344.93-.435 1.234-.22.733-.486 1.587-.657 2.325-.012.055-.06.146.014.182-.037.118-.2.791-.23.822s-.063-.08-.077.112v.037c-.091.053-.067.143-.077.224q.002.02 0 .037c-.086.133-.13.333-.173.487-.093.322-.17.648-.25.972-.004.012.004.025 0 .037l-.49 1.635c-.006.142.116.142.22.198v-.075h.038c1.432-.135 2.853-.42 4.277-.635 1.202-.182 2.418-.333 3.622-.524.302-.048 1.485-.185 1.657-.32.043-.033.031-.084.038-.09.012-.013.028-.026.038-.038.051-.058.123-.105.154-.187l1.948-6.991.02-.354c-.007-.046-.068-.014-.079-.023-.017-.011-.026-.027-.038-.037-.023-.018-.026-.05-.077-.074-.201-.095-.626.02-.867.037-.444.032-.896.078-1.33.112zm-9.092 4.524.887-3.086c-.001-.214-.747-1.365-.945-1.365-.084.056-.363.188-.407.25-.098.143-.25.701-.351.923-.659 1.445-1.793 2.81-2.92 3.938l.793 1.173 2.32-.266c.032-.455.057-.906.043-1.363-.018-.606-.19-1.42-.157-1.983.01-.185.06-.276.27-.224.12.08.142.223.184.348l.28 1.653zm-1.157-3.851c-.155.13-.541.153-.672.263-.109.093-.371.602-.483.765a19 19 0 0 1-2.196 2.653l.405.431c.161.04 1.533-1.655 1.707-1.896.49-.676.956-1.44 1.24-2.218zm-5.2.261c.06.097.124.12.192.187.091.086.18.176.27.26.003.087.078.135.134.187l.02-.037c.492.475 1 .934 1.481 1.421l.096.036 1.349-1.869-.02-.075c-.099.022-.212.063-.312.072a9.5 9.5 0 0 1-2.027-.043c-.33-.046-.809-.225-1.108-.213h-.115c-.007.006.028.057.038.074zm1.734 4.226c-.182-.253-.591-.509-.895-.609-.54-.176-1.005-.068-1.48.212l-.17.173c-.17.112-.4.415-.627.368-.11-.024-.141-.136-.314-.107-.114.019-.666.66-.77.79a6.2 6.2 0 0 0-.723 1.206l-.223.624c.017.051.127 0 .162-.01.241-.081.573-.161.787-.248.041-.017.08-.029.092-.078v-.037c0-.085-.218-.193-.077-.375l.308-.037c.014.012.024.027.038.037.432.336.786.42 1.335.268.145-.04.406-.203.53-.193.188.017.55.475.695.485.028.002.054-.037.06-.036.28.022.462.012.377-.347-.086-.36-.78-.67-.858-.85-.112-.256.065-.403.325-.315.08.027.409.281.486.35.297.275.513.662.791.952.124.095.357.053.383-.11.044-.265-.453-.855-.636-1.065-.103-.119-.404-.343-.453-.458-.064-.153-.047-.315.147-.327.346-.019 1.07.95 1.25 1.233-.084.025.005.108.022.145.094.185.234.52.496.53.19.008.154-.094.175-.114.012-.012.035-.03.039-.038.005-.008.056-.013.07-.06.099-.333-.5-.952-.649-1.257l-.23-.215c-.01-.014-.027-.024-.039-.038-.033-.142-.2-.242-.307-.335-.044-.04-.086-.087-.116-.112zm3.93 1.533c-.146-.078-.23-.005-.383.003v.072c-.016.001-.028-.002-.04 0l-.231-.038v.075c-.013.002-.026-.002-.039 0-.31-.07-.699.034-1.02.074-.073.009-.166-.015-.225 0-.048.01-.018.068-.025.077-.01.01-.028.029-.038.037-.007.005-.058-.014-.072.003-.012.016-.02.275-.056.377-.044.118-.133.129-.164.236-.01.095.304.203.382.203.287 0 1.031-.163 1.342-.234.16-.036.32-.068.469-.136l.173-.632c.024-.051-.023-.063-.032-.081a.1.1 0 0 0-.038-.038zm-4.663 1.458.027.077 3.173.897c.035.011.057.03.077.037.04.015.1.073.183.102.182.062.407.086.598.125.054-.01.211-.387.103-.451.014-.073.054-.144.035-.222-.226-.043-.437-.122-.652-.19a25 25 0 0 0-1.627-.46c-.056-.013-.145-.062-.183.01-.103-.027-.38-.14-.451-.14-.067 0-.16.102-.241.124-.376.101-.741-.294-1.042.093zm6.705 1.496c-.944.147-1.86.414-2.827.33-.839-.07-2.473-.644-3.329-.92-.772-.248-1.471-.57-2.224-.833-.617-.215-1.297-.52-1.755.132.252.07.514.063.773.11 2.182.41 4.808 2.943 6.944 2.553.892-.163 1.749-.818 2.418-1.374zm5.278-.86h-.038c-.038-.061-.148-.042-.211-.037-.53.046-1.078.212-1.617.224-.036-.006-.03.057-.022.074.017.046.108.075.155.093.514.19 1.443.131 1.772-.354.005-.007.033-.005.038-.019l-.019-.056h-.058zm-9.67 2.656c-1.348-.494-2.571-1.335-3.866-1.915-2.406-1.077-2.677-.186-4.167 1.353-.56.578-1.145 1.133-1.868 1.515 1.752 1.334 4.068 1.968 6.25 1.316 1.193-.357 2.717-1.362 3.627-2.193.034-.03.035-.025.025-.078zm3.352 2.092c1.524.5 3.547.22 4.246-1.358.535-1.21.11-2.9-1.473-2.85-1.183.79-2.296 1.778-3.605 2.372a.4.4 0 0 1-.167.042l.613.246c.643.371.725.922.388 1.548zm1.097-3.925v.037q.038-.02 0-.037m-3.64 2.02-.078.074c-.141.022-.216.171-.307.26l-.039.038c-.052.051-.035.01-.077.075-.071.108-.433.385-.559.485-.167.132-1.184.793-1.212.861-.01.019-.014.083.026.075.992.305 2.107.817 3.164.497.255-.078.439-.217.624-.385l.038-.038q.021-.018.039-.037c.05-.047.101-.1.154-.15.003-.002.038.013.078-.024.026-.024.285-.433.29-.462.03-.137-.077-.157-.138-.224l-.038-.037c-.005-.005.012-.05-.007-.066a5 5 0 0 0-.456-.176c-.35-.102-.72-.14-1.08-.187-.115-.176.253-.285.194-.468-.004-.012.005-.03 0-.037-.11-.13-.365-.044-.524-.116-.054-.016-.07.026-.093.04z"/><path fill="#aa463c" d="M68.95 54.766v.038c-.58.044-1.17.103-1.753.149-1.253.098-2.504.224-3.757.298.357-.096.752-.1 1.125-.123zm3.583 4.374c.274-1.11.748-2.342.952-3.43.136-.725-.185-1.191-.973-1.17-.947.025-2.004.155-2.962.228-.202.015-.394.019-.599.034v-.037c1.194-.019 2.5-.302 3.68-.302.396 0 .884.336.94.736a2 2 0 0 1-.005.473c-.152 1.029-.757 2.257-.942 3.311l-.09.156zm-1.232 4.115h-.038c.115-.151.157-.265.22-.441.344-.973.584-2.113.87-3.12.05-.17.091-.363.182-.515-.343 1.168-.568 2.494-.99 3.655-.069.187-.133.27-.244.42M65.173 46.54c-.45.804-.244 1.043-.309 1.888-.037.486-.222 1.085-.576 1.44.138-.289.318-.523.405-.86.175-.675-.042-1.628.243-2.195.05-.1.148-.188.199-.273zm-17.03.038s.045-.013.068.009c.138.139.321.72.35.917.052.385.013.726.11 1.162.017.078.132.373.127.398-.02.1-.108.02-.116.02v-.037c.06-.078-.04-.222-.066-.329-.13-.537-.096-1.078-.215-1.585-.052-.222-.159-.356-.258-.553zm4.392 23.37v.038c-1.352-.06-2.6-.516-3.737-1.197l.297.105c1.01.585 2.266.98 3.44 1.054m-6.395-1.533c-.038.066-.108.061-.171.077-.74.167-1.562.123-2.256-.189v-.037c.753.337 1.634.287 2.427.15m18.726 1.008c-.814.352-1.67.417-2.542.26v-.036c.403.07.877.02 1.29.037zM46.37 60.301c-.226 1.006.02 1.82-.618 2.701-.035.05-.164.212-.23.216.684-.757.55-1.211.66-2.145.03-.258.093-.517.148-.772zm3.468-5.646c-.04.05-.07.124-.115.168-1.56 1.505-2.87 3.343-3.352 5.478h-.038c.491-2.2 1.849-4.146 3.507-5.646zm7.975 15.255v.038q-1.064-.177-2.069-.551-.177.059-.36.103c.107-.09.255-.166.4-.147.574.215 1.16.354 1.76.471.078.016.199.077.267.088zM71.3 63.255c-.409.568-1.42.628-2.105.706-.082.01-.163.007-.245.005.058-.034.074-.046.145-.065.7-.178 1.698-.032 2.167-.646zM59.2 43.996c.037-.157.149-.322.203-.495a2.35 2.35 0 0 0-.05-1.561v-.038c.35.679.307 1.47-.153 2.094m.617 26.027c-.681.088-1.33.038-2.004-.074v-.037c.322.05.776.101 1.099.111s.62-.067.905 0m6.897-2.655c-.074-.036-.025-.127-.014-.182.092-.49.105-.892.052-1.389.06.089.105.336.112.434.028.389-.038.765-.15 1.137M63.71 52.074v-.038c.233-.323.464-.934.499-1.327.02-.222-.025-.475 0-.692.09.025.075.097.079.166.045.658-.163 1.375-.58 1.89zM43.634 65.087c-.089.118-.251.347-.346.412-.375.56-.735 1.232-.454 1.917.075.183.253.417.378.55-.205-.117-.394-.407-.463-.616-.187-.554.064-1.53.54-1.851.127-.192.193-.278.345-.45zm4.355-18.697c-.007-.01-.054-.014-.07-.061-.06-.195.028-.388.244-.422.671-.104 1.62.364 2.134.766.101.08.1.253.272.017 0 .003.044-.014.04.056 0 .019-.054.017-.064.032-.035.051.02.14-.105.093-.075-.028-.32-.276-.42-.342-.497-.33-1.208-.61-1.82-.55-.293.03-.292.174-.173.41zm10.866-5.123c-.615-.44-1.473-.64-2.235-.562v-.037c.792-.09 1.638.063 2.235.599m-2.273-.597.039.037c-.201.02-.455.132-.664.16l-.57.213a3.1 3.1 0 0 1 1.195-.412zm11.983 23.857c-.166.242-.837.673-1.137.673h-.829c.013.105.088.197.116.298l-.039.038c-.028-.075-.211-.336-.117-.394.047-.028.477.028.601.022.538-.027 1.043-.291 1.405-.637"/><path fill="#aa463c" d="M63.71 52.073c-.126.156-.345.309-.425.413-.028.035-.114.473-.152.581a5 5 0 0 1-.386.802c-.077-.022 0-.112.019-.15.154-.31.253-.55.367-.877.066-.19.031-.212.153-.356.123-.145.315-.299.425-.45zm-8.978-8.076h-.039c-.403-.557-.452-1.321-.192-1.945l-.117.802c.052.398.119.798.348 1.143"/><path fill="#aa463c" d="M52.69 44.745c.493-.27.98-.453 1.526-.595.142-.038.335-.043.453-.078.04-.012.031-.044.026-.075h.038l-.017.075c-.058.074-.66.18-.811.223a6 6 0 0 0-1.057.433c-.038.018-.133.091-.156.017zm2.659 24.754c-.399.244-.923.34-1.388.412v-.037c.472-.073.928-.256 1.388-.375m-5.394-17.05c-.004.029.016.06-.025.078-.412.246-.832.163-1.288.202-.189.27.102.527.194.768-.164-.176-.444-.514-.253-.751.157-.196.386-.07.58-.068.29 0 .531-.13.79-.228zM62.322 69.65v.037c-.278-.049-.839-.281-1.028-.29-.062-.003-.113.043-.166.066.021-.023.027-.095.044-.105.128-.071.946.258 1.15.292m-8.361.224v.037a7 7 0 0 1-1.426.075v-.038a7.7 7.7 0 0 0 1.426-.074m7.129-.375c-.26.276-.86.468-1.234.524zm.617-24.342-.589-.3c-.515-.358-1.151-.518-1.763-.692-.063-.019-.136.007-.115-.092a6.6 6.6 0 0 1 2.465 1.084zm2.235 1.196c.267-.182.702-.453 1.041-.431.497.032.352.332.19.619h-.038c.373-.638-.147-.635-.636-.45zM46.487 68.341a2.4 2.4 0 0 1-.309.075c.062-.063.244-.153.31-.075m20.265-2.58c-.079-.054-.052-.161-.077-.224l.039-.038c.028.1.026.167.038.262m2.159-1.758c-.07.23-.18.364-.347.525.116-.168.2-.385.347-.525M49.57 54.057c-.228-.102-.473-.31-.657-.488.168.136.362.236.54.355.057.038.121.04.116.133m-5.856 14.21v.037a1.6 1.6 0 0 1-.463-.299c.166.028.322.199.463.262m6.512-13.95c-.062.114-.13.201-.27.225.09-.078.15-.174.27-.225m9.132-12.413v.037c-.05-.104-.164-.184-.154-.3.09.108.095.147.154.263M43.635 65.088v-.038c.028-.032.056-.051.077-.075.014.073-.058.087-.078.113m.733-.749c-.18.185-.365.42-.579.562.186-.194.362-.397.58-.562m.156-.149v.076h-.079q.041-.038.079-.076m14.64-22.585c-.044-.043-.123-.056-.116-.15.042.048.087.092.115.15M44.638 64.078l.039.037h-.078zm14.564-20.043v.037c-.03-.007-.078.018-.078-.019zm-11.096 2.499c-.042-.01-.112-.114-.11-.145q.002-.013.03.009c.04.036.1.124.086.134h-.004z"/><path fill="#0c6ed2" d="m59.01 41.42-.078-.077c.034.03.05.045.078.076"/><path fill="#1373d4" d="M49.954 52.374c-.003-.01-.03-.022-.038-.038z"/><path fill="#f2e8d5" d="M56.119 47.214c.398.06.798.212 1.195.298.217.047.46.127.68.144.503.04.985-.183 1.44-.37.718-.162 1.438-.229 2.042.261.046.04.1.1.154.15.035.052.078.098.115.149.304.415.467.787.617 1.272.182.585.281 1.144.308 1.756.008.212.01.462 0 .674v.074c-.006.087-.03.15-.039.224-.113.91-.494 1.858-1.157 2.505l-.038.037c-.32.302-.89.668-1.31.86a5.8 5.8 0 0 1-1.117.374 8.3 8.3 0 0 1-2.158.187c-.101-.004-.262-.03-.386-.038h-.039l-1.195-.28a6.8 6.8 0 0 1-1.965-.952q-.02-.018-.039-.038c-.047-.049-.073-.115-.154-.111-.026-.028-.052-.05-.077-.075-.087-.088-.187-.17-.269-.261-.028-.032-.06-.055-.076-.075-.109-.122-.233-.298-.347-.45-.01-.013-.028-.023-.038-.037a6.3 6.3 0 0 1-.468-1.04c-.446.03-.827-.05-1.19-.304l-.077-.075c-.014-.023-.024-.05-.038-.074-.055-.089-.132-.168-.173-.262-.205-.447-.294-1.558.45-1.487.318.03.654.258.897.446.101 0 .321-.19.405-.266l.039-.037.447-.387c.112-.176.25-.332.362-.51.27-.433.426-.936.693-1.346.105-.16.427-.53.579-.636.522-.368 1.312-.394 1.927-.299zm.522 3.647a.71.71 0 0 0-.72-.699.71.71 0 0 0-.72.699.71.71 0 0 0 .72.698.71.71 0 0 0 .72-.698m3.254-.058c-.014.251.066.389.23.561l.039.038c.232.198.362.252.655.112.5-.24.549-1.01.075-1.289-.043-.026-.09-.01-.113-.019-.03-.012-.056-.049-.112-.059-.384-.068-.755.293-.774.658zm-.077 1.757c-.086.066-.156.15-.23.224-.04.039-.074.076-.116.112-.428.278-.867.444-1.387.449h-.039c-.092-.08-.236-.075-.346-.112-.148-.05-.3-.119-.435-.195-.218-.122-.711-.614-.905-.264-.204.37.393.742.685.871.31.136.584.205.924.224.42.024.729.008 1.117-.15.327-.069.617-.262.847-.486l.039-.037c.07-.07.202-.183.24-.272.11-.254-.067-.393-.317-.364-.025.003-.063-.007-.077 0m12.831 2.656c.04.01.08.017.115.037.012.01.02.026.038.038l.03.232c-.751 2.341-1.214 4.798-1.957 7.133-.01.033-.11.124-.115.187-.01.012-.026.025-.039.037a1 1 0 0 1-.306.133c-.419.101-.95.135-1.389.203-1.205.188-2.414.378-3.622.561-1.363.207-2.73.39-4.092.609-.063.01-.14.017-.185.064h-.039c-.14.01-.164-.04-.152-.164.034-.382.338-.97.397-1.375.037-.066.01-.161.025-.219.003-.012-.004-.025 0-.037.103-.126.136-.322.181-.478a9 9 0 0 0 .243-.98q.002-.019 0-.038c.11-.032.068-.146.077-.224v-.037l.077-.112c.03-.03.196-.704.23-.822.376-1.242.73-2.491 1.079-3.74.008-.011.026-.023.038-.036.094-.11.182-.218.335-.253.359-.083.965-.085 1.36-.12 1.244-.112 2.493-.199 3.737-.299.591-.047 1.182-.103 1.772-.15.423-.033 1.868-.218 2.158-.148zm-5.433 4.075c-.06.135-.133.273-.192.412-.197.462-.666 1.427-.753 1.866-.014.07-.03.134-.018.207.014.082.063.075.077.094a.2.2 0 0 0 .039.037c.06.04.022.08.171.076.194-.005.147-.088.175-.113.005-.005.08.006.089-.046.292-.78.641-1.538.95-2.31.193-.48.414-.97.579-1.458.028-.085.064-.125.077-.224v-.037c.228-.303-.26-.644-.502-.281-.194.293-.505 1.205-.645 1.58-.024.064-.05.125-.047.197m.785 2.006c.15.147.281.078.43-.024.403-.278 1.072-.9 1.445-1.252.258-.242.496-.396.248-.764-.185-.275-.682-.838-.921-1.087-.147-.153-.33-.358-.542-.151-.272.266.117.624.292.843s.38.43.577.635l-1.501 1.347c-.135.14-.173.308-.025.454zm-3.444-.958c.06.072.124.16.192.223l.038.038c.08.128.198.228.308.335l.077.075c.012.073.126.16.192.224q.017.018.038.037c.095.08.126.16.287.148.103-.009.27-.146.29-.243.04-.2-.061-.222-.154-.354-.222-.316-.536-.567-.767-.873l1.596-1.41c.192-.278-.098-.619-.402-.427l-1.85 1.606c-.195.288-.046.424.153.617z"/><path fill="#aa463c" d="M51.65 54.13c.39 1.318 1.235 2.446 2.177 3.44l1.715 1.683c-.688.012-1.238.322-1.794.673l-1.52-.166c-.067-.434-.088-.895-.163-1.338-.049-.283-.21-1.102-.395-1.299a.23.23 0 0 0-.4.161c.164.782.304 1.579.306 2.38-.028.025-.638-.104-.739-.124-.278-.056-.823-.245-1.055-.253-.233-.008-.292.185-.172.358.317.45 2.188.681 2.756.766.05.009.068-.025.057.054-1.01 1.018-1.474 2.384-2.203 3.583-.949 1.562-2.747 3.673-4.75 3.84-1.376.114-2.833-.457-1.73-1.94.65-.877 1.64-1.493 2.346-2.322.058.192-.363 1.057-.211 1.158.152.102.456-.54.501-.653.53-1.293.372-2.675.743-3.991.573-2.042 1.953-4.071 3.63-5.413.1-.08.841-.646.904-.598zm6.704 12.64c.01.051.008.048-.025.078-.91.831-2.434 1.835-3.627 2.193-2.183.652-4.498.017-6.25-1.316.723-.382 1.308-.936 1.867-1.514 1.491-1.54 1.762-2.43 4.168-1.353 1.295.58 2.518 1.42 3.865 1.914zm3.353 2.093c.337-.628.255-1.177-.388-1.548l-.613-.246q.09-.002.167-.043c1.311-.593 2.422-1.581 3.605-2.372 1.583-.049 2.008 1.642 1.473 2.85-.699 1.578-2.722 1.859-4.246 1.359zm-.31-9.012-.28-1.653c-.041-.126-.06-.27-.183-.348-.21-.052-.258.038-.27.224-.034.563.14 1.375.157 1.982.012.456-.01.909-.044 1.363l-2.318.267-.794-1.174c1.126-1.126 2.261-2.49 2.92-3.937.101-.22.252-.778.351-.922.044-.063.323-.197.407-.251.198 0 .942 1.151.945 1.365l-.887 3.086z"/><path fill="#f2e8d5" d="M54.232 60.264c.99-.66 1.68-.49 2.542.223.032.026.072.075.115.112.077.138.206.22.308.336.012.014.028.024.038.037.22.255.795 1.047.84 1.338a.4.4 0 0 1-.03.195c-.004.007-.027.026-.04.037-.447.18-.508-.27-.693-.56-.185-.292-.903-1.254-1.25-1.233-.195.01-.21.174-.146.327.05.115.35.339.453.458.183.21.68.798.636 1.065-.027.162-.259.206-.383.11-.278-.29-.494-.679-.791-.952-.077-.07-.406-.323-.486-.35-.26-.089-.437.059-.325.315.078.18.776.502.858.85.082.347-.096.369-.378.347-.325-.07-.547-.548-.889-.471-.09.02-.171.09-.266.117-.543.152-.983.134-1.465-.17-.015-.01-.025-.025-.039-.037-.135-.116-.248-.12-.346.037-.112.178-.054.26.115.375v.037c-.365.053-.7.21-1.04.336l.224-.624c.208-.43.425-.828.724-1.206.103-.13.655-.771.769-.79.173-.029.204.083.314.107.227.047.458-.256.627-.368z"/><path fill="#aa463c" d="M62.747 64.975c-.67.556-1.526 1.209-2.419 1.373-2.135.39-4.76-2.143-6.944-2.552-.258-.049-.52-.042-.772-.11.456-.651 1.138-.347 1.754-.132.754.263 1.452.585 2.225.832.856.275 2.49.85 3.328.921.968.083 1.884-.183 2.828-.33z"/><path fill="#f2e8d5" d="M59.78 67.031s-.004.026 0 .037c-.067.143-.26.284-.329.41-.026.052-.026.058.02.096.56.09 1.147.132 1.657.391l.039.038c.171.28-.108.478-.23.71l-.155.15-.038.037q-.02.018-.038.037c-1.159.85-2.607.205-3.815-.187.028-.067 1.045-.729 1.213-.86.126-.1.49-.377.559-.486l.077-.074.038-.038c.142-.057.203-.171.308-.26.024-.021.072-.072.077-.075.2.05.407.091.617.074"/><path fill="#aa463c" d="M53.842 45.048c.142.582.482 1.053.928 1.455-.846.21-1.48.737-1.915 1.46a2.12 2.12 0 0 1-1.279-.285c-.09-.053-.418-.268-.468-.33-.1-.126.162-.41.24-.52a5.4 5.4 0 0 1 1.346-1.275c.152-.098 1.036-.581 1.148-.505m4.858-1.65c-.121-.042-.21-.125-.333-.181-.95-.438-2.234-.317-3.134.181-.456-1.014.405-1.941 1.443-2.02 1.35-.104 2.43.606 2.023 2.019zm-2.233 1.16h1.252c.315.098.733-.019.939.287.323.476.042 1.453-.27 1.894-.186.266-.44.181-.733.125-.437-.083-.563-.217-.81-.56-.363-.503-.578-1.139-.377-1.746zm-3.932 4.076c.044.038-.442.862-.673.863-.354.004-1.184-.74-1.504-.937.09.364.386.644.657.895l.557.412a2.13 2.13 0 0 0-1.097-.224c-.101.005-.206.083-.287.056-.239-.08-.63-.637-.725-.87-.27-.663-.1-1.373-.393-2.01.846.196 1.298.995 2.017 1.408.43.248.943.42 1.452.406z"/><path fill="#f2e8d5" d="M56.273 58.356c.048.1.159.155.23.224l.116.112c.033.034.05.097.115.112.003.008 0 .024 0 .037-.047.009-.056.055-.077.075-.026.025-.047.042-.077.075l-.077.074c-.014.012-.026.029-.038.037-.047.033-.095.055-.116.112-.075.002-.115.043-.193-.056-1.211-1.202-2.537-2.316-3.422-3.784-.087-.144-.309-.494-.352-.63-.008-.018-.011-.06.019-.055.218.225.46.429.716.614.178.127.495.268.633.397.115.106.206.316.31.445.603.733 1.466 1.625 2.213 2.21zm-1.155-2.168c1.09.383 2.325.406 3.468.26l-1.349 1.87-.096-.036c-.48-.487-.989-.948-1.481-1.421q-.08-.075-.154-.15c-.091-.086-.178-.174-.27-.26l-.191-.187c-.011-.017-.046-.068-.039-.075q.057-.002.115 0zm5.122-.186c-.282.778-.75 1.54-1.238 2.217-.175.241-1.544 1.935-1.707 1.896l-.405-.43a19 19 0 0 0 2.196-2.654c.114-.163.374-.672.482-.765.13-.112.516-.132.673-.263z"/><path fill="#aa463c" d="M55.965 44.596c-.094.45-.003.993.175 1.419.07.168.183.317.25.486-.538-.042-.904-.021-1.346-.357-.356-.272-.763-.795-.713-1.253z"/><path fill="#f2e8d5" d="M57.776 63.404c.599.161 1.193.36 1.81.45.216.068.428.147.651.19.02.078-.022.149-.035.222-.02.115-.055.23-.076.346l-.076.049-.733-.171c-.02-.007-.042-.026-.077-.038-1.05-.37-2.14-.625-3.198-.971.3-.387.666.01 1.042-.093.083-.023.174-.126.24-.124.07 0 .348.113.452.14"/><path fill="#aa463c" d="M64.172 47.026c-.164.585.004 1.207-.132 1.795-.091.392-.37.906-.792 1.008l-.115-.614c.176-.29.42-.56.423-.92l-.577.487-.189-.61zm-3.699-.562c.053-.173.156-.319.203-.493.052-.188.044-.319.066-.497.006-.042-.015-.074.056-.054.178.05.655.392.81.522a5.3 5.3 0 0 1 1.133 1.362l-.36.244a2.48 2.48 0 0 0-1.911-1.082zm-1.579.263c-.026-.026.194-.402.222-.477.176-.468.183-.951.047-1.43.042-.038.971.257 1.06.335.263.229-.008.917-.213 1.141-.262.287-.763.276-1.116.43"/><path fill="#f2e8d5" d="M60.704 62.02a.1.1 0 0 1 .038.038l-.199.705c-.533.043-1.188.299-1.71.307a.56.56 0 0 1-.364-.132c.134-.183.257-.382.23-.617.011-.009.029-.027.04-.038q.636-.062 1.271-.149c.012-.002.026.002.038 0q.115-.017.231-.037c.012-.002.026.002.039 0 .127-.019.258-.05.386-.075z"/><path fill="#aa463c" d="m58.43 43.81-.036.094c-.072.046-.577-.053-.713-.06a24 24 0 0 0-1.468 0c-.084.002-.714.11-.71-.016.848-.477 2.087-.558 2.926-.019zm-8.79 6.4c-.094.27-.09.487-.11.762-.004.056.03.108-.058.093-.468-.358-.842-.794-.943-1.384.185.073.46.043.627.12.168.079.295.346.486.41zm1.817 3.322c-.608.06-1.337.117-1.85-.261.197.015.368-.01.55-.083.138-.056.334-.256.423-.248.052.005.694.177.721.2.035.03.179.37.156.392m21.347 1.758c.012.008.073-.024.078.022l-.019.354-1.948 6.991h-.038c.742-2.335 1.205-4.792 1.957-7.133z"/><path fill="#f2e8d5" d="M67.987 64.115h.077c-.327.485-1.258.544-1.772.354-.047-.017-.138-.047-.156-.093l1.849-.261z"/><path fill="#aa463c" d="M65.406 63.778v.037c-1.423.216-2.845.5-4.278.636.046-.047.123-.054.186-.064 1.36-.22 2.729-.402 4.092-.61m3.313-8.337v.074c-1.244.102-2.493.188-3.738.298v-.037c1.236-.108 2.494-.237 3.738-.335m-8.015 13.499c-.185.168-.369.307-.624.385-1.055.32-2.172-.192-3.164-.497-.04.007-.033-.056-.026-.075 1.207.392 2.655 1.036 3.814.187"/><path fill="#aa463c" d="M69.026 63.218v.074c-1.203.192-2.42.343-3.622.524v-.037a642 642 0 0 0 3.622-.561m-6.858-3.254c-.072-.036-.026-.127-.014-.181.173-.738.439-1.59.657-2.325.09-.303.281-1.017.435-1.234-.35 1.248-.702 2.497-1.078 3.738zm-7.05-3.776c.3-.01.777.168 1.107.213a9.4 9.4 0 0 0 2.027.043c.1-.009.213-.05.313-.072l.02.075c-1.142.146-2.377.12-3.469-.261zm4.122 8.262-3.174-.896-.026-.077c1.057.348 2.15.602 3.198.972zm-5.973-9.907a6.7 6.7 0 0 0 1.966.953l1.195.28c-.998-.075-2.451-.531-3.159-1.235zm7.475 7.516c.01.017.058.028.032.081l-.173.632c-.149.068-.31.1-.468.136-.311.07-1.054.234-1.342.234-.08 0-.395-.109-.383-.203.032-.105.12-.117.164-.236.037-.102.044-.361.056-.377.014-.017.065.002.072-.003.026.236-.096.434-.23.617a.56.56 0 0 0 .363.133c.522-.007 1.177-.263 1.71-.307zm11.945-6.88-.038.037c-.29-.07-1.735.115-2.158.15v-.038c.431-.034.884-.08 1.33-.112.242-.017.665-.132.866-.037m-16.568-8.003v.038c-.615-.094-1.403-.07-1.927.298.367-.366 1.055-.446 1.562-.412.133.008.255.06.365.076m6.243 1.944c.096-.018.084.043.103.104.16.474.255 1.153.281 1.654h-.076a7 7 0 0 0-.308-1.756zm-3.353 6.506c.02.098-.05.076-.115.093-.598.153-1.424.165-2.043.133v-.038a8.3 8.3 0 0 0 2.158-.186zm.579 8.228c-.617-.088-1.213-.289-1.81-.45.038-.073.127-.025.183-.01.545.134 1.102.294 1.627.46m1.502.596v.075c-.103-.056-.225-.056-.218-.198l.61-2.216c-.015.058-.11.734-.147.8-.062.405-.364.994-.397 1.375-.01.124.012.175.152.165M50.61 52.149c.361.254.744.335 1.19.303.119.365.283.706.468 1.042-.035-.046-.077-.063-.112-.106l-.393-.861c-.327.002-.683-.017-.968-.194-.044-.027-.138-.145-.184-.186zm19.88 3.179v.037c-.59.047-1.182.101-1.771.149v-.075c.587-.047 1.185-.066 1.772-.111M59.78 67.07c.06.183-.31.291-.194.467.36.048.73.085 1.08.187.06.019.435.156.456.176.02.019.002.063.007.066-.51-.259-1.098-.301-1.659-.391-.045-.038-.045-.044-.019-.095.068-.13.26-.27.329-.41m5.202-11.295v.037c-.395.036-1 .038-1.36.12-.154.036-.243.143-.336.254-.113-.053-.008-.065.021-.092.086-.085.16-.187.278-.236.464-.035.935-.044 1.397-.085zm-3.508-8.225c-.602-.49-1.324-.424-2.042-.262-.013.004-.026-.003-.039 0 .547-.291 1.506-.257 1.985.151.044.038.068.089.096.112zm6.513 16.565-1.849.261c-.007-.018-.014-.081.023-.074.538-.012 1.087-.178 1.616-.224.063-.005.171-.024.212.037zm1.039-.822v-.075c.437-.068.969-.102 1.39-.203.122-.03.2-.072.306-.133-.007.007.005.058-.039.092-.171.136-1.354.271-1.657.319m-18.57-11.294c-.32-.377-.412-.741-.337-1.243.092-.614.793-.707 1.212-.329l.376.192.367-.192c-.084.075-.304.264-.405.266-.243-.188-.58-.415-.897-.446-.744-.07-.655 1.04-.45 1.487.041.094.12.173.172.261h-.038zm13.062-1.608-.051.457-.103.33-.042-.726zm-.81 1.496c-.057.683-.456 1.599-.886 2.14-.092.117-.21.273-.346.327.663-.646 1.043-1.596 1.157-2.504l.077.037z"/><path fill="#aa463c" d="M59.395 47.289c.012-.004.026.003.039 0-.456.186-.937.408-1.44.37-.22-.018-.463-.097-.68-.145v-.037c.316.071.737.139 1.059.112s.683-.216 1.022-.299zm-3.893 15.629s-.031.038-.06.035c-.144-.012-.506-.47-.695-.485-.126-.01-.384.153-.53.193-.548.155-.902.068-1.334-.267.48.303.923.322 1.466.17.096-.028.178-.097.266-.118.342-.078.562.4.889.471zm.617-15.742c.486.068.734.195 1.195.299v.037c-.395-.088-.795-.237-1.195-.298zm-1.887 13.088.17-.173c.473-.28.938-.39 1.48-.212.303.1.712.356.894.608-.862-.713-1.552-.883-2.542-.223zm5.778 1.869q-.634.085-1.272.149c.007-.009-.023-.066.025-.076.06-.014.152.01.225 0 .324-.04.712-.144 1.02-.075zm1.28.746c-.004-.075.108-.378.127-.448q.029-.111.056-.224l.115-.449a4 4 0 0 1 .131-.417c.018-.043.033-.104.063-.136.004.044-.015.098-.024.14l-.033.154a9 9 0 0 1-.074.295c-.04.147-.084.293-.122.44-.037.14-.138.535-.24.647zm1.457-12.001c.008.173.005.37 0 .545-.002.071.038.15-.077.129.01-.21.008-.462 0-.674zM52.612 62.806c-.012.049-.05.06-.092.078-.213.088-.546.168-.787.247-.035.012-.145.061-.162.01.34-.125.674-.285 1.04-.335zm7.168 4.226a1.9 1.9 0 0 1-.617-.075c.023-.015.038-.056.093-.039.159.071.413-.015.525.115zm.425-2.768c.107.065-.05.441-.103.452-.19-.038-.416-.063-.598-.126-.084-.029-.144-.087-.184-.102l.734.172.076-.05c.02-.115.056-.23.077-.346zm.962 3.739c.061.068.166.087.139.225a5 5 0 0 1-.291.461c-.04.036-.075.023-.079.026.123-.233.403-.431.231-.712m-7.552-19.855c-.267.41-.423.914-.694 1.346h-.038c.23-.354.467-.888.662-1.283.014-.03.034-.156.07-.063m7.09 13.873c-.128.026-.26.056-.387.075v-.072c.157-.008.24-.081.387-.003m.731-7.627c0 .083-.05.1-.103.142-.288.24-.605.44-.923.638l-.284.08c.419-.192.99-.559 1.31-.86m-3.427 8.151c-.021.023.014.123-.175.114-.26-.012-.403-.344-.497-.53-.02-.037-.109-.118-.023-.146.184.292.247.742.695.562m-1.157-6.733v.038a1.4 1.4 0 0 1-.387-.075c.122.008.283.034.387.037m-4.007 6.546-.308.037H52.5c.1-.157.211-.152.346-.037m4.391-1.383.231.215c.148.307.75.926.648 1.257-.014.047-.064.052-.07.06a.4.4 0 0 0 .032-.194c-.044-.294-.619-1.084-.84-1.338m-4.703 1.421c-.141.18.077.288.077.375-.171-.114-.227-.197-.115-.375zm9.249-1.234c.01-.082-.013-.172.077-.225-.01.078.033.193-.077.225m.924-9.273-.077-.038c.009-.075.033-.138.039-.224.058.066.045.176.038.262m-2.426 10.207q-.117.02-.232.037v-.074zm-7.36-12.602c-.112.178-.25.334-.362.511l-.448.387a5.7 5.7 0 0 0 .771-.898zm6.164 17.538c-.106.092-.332.344-.474.402.091-.092.319-.42.474-.402M53.23 54.506l-.02.037c-.094-.022-.126-.14-.135-.15.081-.003.107.064.155.113m-.925-.974c.115.151.24.328.346.45-.09.003-.138-.114-.186-.175-.056-.071-.166-.18-.16-.273zm9.633 7.255-.077.112c.015-.193.045-.08.077-.113m6.087 3.33v-.076h.059l.02.057c-.006.014-.034.013-.04.02z"/><path fill="#0c6ed2" d="M56.583 58.992c-.042.046.008.012-.078.076z"/><path fill="#aa463c" d="M56.467 59.105c.018.032-.079.137-.088.14-.017.008-.024-.028-.028-.028.021-.06.069-.08.116-.112m.153-.413c.132.026.09.054.117.112-.066-.015-.083-.08-.117-.112m.58 2.246c-.102-.117-.232-.2-.309-.336.109.095.275.194.309.336m13.716 1.719c-.032.082-.105.13-.154.187.005-.063.105-.154.115-.187zm1.849-7.404c-.035-.022-.076-.027-.116-.037l.038-.038c.052.024.055.056.078.075m-17.107 1.608-.019.038c-.058-.053-.132-.1-.135-.188zm1.078 1.982s.048.008.04.037l-.117.038c.021-.02.032-.067.077-.075m2.205 8.345-.27.217c.384-.427.52-.489.27-.217M52.73 54.056c.083.094.182.174.27.262-.094-.037-.253-.161-.27-.262m-2.196-1.981c-.023-.024-.048-.04-.078-.076h.04q.018.039.038.076"/><path fill="#0c6ed2" d="M55.234 56.449c-.07-.067-.135-.09-.193-.187z"/><path fill="#aa463c" d="M61.746 47.848c-.037-.05-.08-.096-.116-.15.04.038.17.086.116.15m-5.24 10.733c-.074-.07-.184-.124-.232-.225.087.069.176.13.232.225"/><path fill="#41a6f2" d="M62.804 64.938q.037.018 0 .037z"/><path fill="#1373d4" d="m60.742 68.902.039-.037z"/><path fill="#aa463c" d="M59.895 52.56c.477.117.292.355.077.636l-.039.038c-.159.07-.302.208-.449.293-.105.06-.304.156-.398.193-.39.158-.697.173-1.117.15l-.173-.077-.753-.149c-.291-.129-.889-.502-.685-.872.194-.349.687.145.906.265.136.076.288.144.434.195-.02.129.249.108.346.112h.039c.061.063.208.044.288.037.454-.046.773-.203 1.1-.485.041-.035.076-.073.115-.112.103.055.187-.203.23-.224.014-.006.053.004.077 0zm-3.973-1a.71.71 0 0 0 .72-.699.71.71 0 0 0-.72-.698.71.71 0 0 0-.72.698.71.71 0 0 0 .72.7m4.859-1.356c.087.102.233.113.304.247.178.334.065.892-.304 1.062a1.03 1.03 0 0 1-.617-.112q-.02-.018-.038-.037l-.231-.562c.02-.362.39-.725.774-.658.058.01.082.048.112.06"/><path fill="#aa463c" d="M59.472 52.896c-.326.281-.643.439-1.099.485-.08.008-.227.025-.288-.038.52-.005.96-.17 1.387-.449zm-1.502.974a2.5 2.5 0 0 1-.925-.224l.754.15.173.076zm2.81-3.665c.023.009.07-.006.114.019.474.282.425 1.05-.075 1.289h-.038c.369-.17.482-.728.304-1.062-.072-.134-.215-.146-.304-.247z"/><path fill="#aa463c" d="M60.782 51.514h.038c-.294.14-.423.087-.656-.112.203.107.385.133.618.112m-.654-.15c-.167-.172-.245-.311-.231-.562zm-2.081 1.981c-.1-.003-.37.017-.347-.112.112.038.254.033.347.112m1.848-.785c.25-.029.427.11.319.365-.037.087-.172.203-.242.272.215-.282.4-.52-.077-.637m.04.673c-.233.223-.522.418-.85.488.095-.038.295-.134.4-.194.147-.083.292-.222.45-.294m-.348-.448c.076-.075.146-.16.232-.225-.044.02-.128.28-.232.225M68 61.297c-.148-.146-.108-.312.025-.455l1.501-1.346c-.196-.205-.398-.416-.577-.636s-.564-.576-.291-.843c.211-.205.394-.001.541.151.241.25.736.814.921 1.087.248.368.01.522-.248.765-.374.35-1.041.973-1.445 1.251-.149.102-.28.173-.43.024zm-2.171-.473.11.28c-.037.33-.292.266-.535.167q-.02-.018-.038-.037c-.004-.117-.126-.16-.193-.224l-.076-.075c-.03-.167-.214-.245-.308-.335l-.038-.038c-.004-.117-.126-.159-.193-.223-.199-.194-.35-.33-.153-.618l1.85-1.605c.302-.194.594.147.402.427l-1.595 1.409c.232.309.545.558.767.873zm1.387-1.534c.056-.129.15-.273.212-.412.197-.45.344-.929.541-1.38.084-.103.264-.093.378-.042.078.047.068.254.064.339v.037c-.068.026-.148.182-.077.224-.164.488-.386.978-.578 1.458-.094-.013-.136.168-.166.232-.311.7-.556 1.426-.875 2.123l-.346.038a.2.2 0 0 1-.039-.038c0-.113-.007-.225.018-.339.096-.44.493-1.2.67-1.666.02-.048.086-.13.006-.163.06-.14.135-.275.192-.412z"/><path fill="#aa463c" d="M68.411 57.796c.005-.085.014-.292-.064-.34-.114-.05-.292-.059-.378.043-.197.453-.346.929-.541 1.38-.062.139-.156.282-.212.412-.002-.07.025-.132.047-.197.14-.374.451-1.287.645-1.58.241-.363.732-.022.501.281zm-1.998 4.189c-.014-.02-.121-.065-.16-.209-.019-.07.004-.137.018-.207.087-.439.556-1.404.753-1.866.08.035.014.115-.005.162-.18.467-.577 1.226-.671 1.667-.025.114.482.453.066.453z"/><path fill="#aa463c" d="M67.756 59.516c-.31.772-.66 1.53-.95 2.31-.01.052-.065.1-.072.105-.028.025 0 .05-.192.056-.149.003-.114-.038-.171-.077l.346-.037c.318-.697.564-1.424.875-2.123.028-.064.072-.246.166-.232zm-1.926 1.308c.092.132.194.153.153.355-.019.098-.187.236-.29.242-.163.012-.192-.068-.287-.147.243.098.497.163.535-.168l-.11-.28zm2.505-2.765c-.072-.043.008-.201.077-.225-.013.099-.05.14-.077.225M64.79 60.6c.094.09.28.17.307.337-.11-.107-.23-.21-.308-.337m.58.637c-.069-.067-.183-.152-.194-.225.067.066.19.109.194.225m-.617-.674c-.069-.063-.135-.151-.193-.225.068.067.19.11.193.225m-3.44-.075q-.061.322-.19.625l.043-.102-.06.128a.3.3 0 0 0-.052.157.33.33 0 0 0 .007.17.43.43 0 0 0 .201.253.45.45 0 0 0 .338.042c.103-.032.213-.097.26-.195.134-.271.24-.556.294-.853a.3.3 0 0 0 .007-.17.3.3 0 0 0-.053-.157.445.445 0 0 0-.598-.153c-.09.056-.18.146-.2.253z"/></g><path fill="#aa463c" d="M156.312 18.426c.798.552.29.025.745.412.542.46-.206.066-.401.066l-3.838.49v8.278h3.292l.844-.869q1.196.828 1.195 1.1.001.136-.29.136h-9.769q-.377.011-.6.103a1.2 1.2 0 0 1-.271.086l-.707-.585s-.026-.049-.026-.086.007-.062.026-.062.149.025.398.074q.373.074 1.394.103h3.505v-8.278h-3.089q-.377.01-.6.103c-.145.057-.118-.297-.153-.297l-.427-.276s-.424.029-.424-.012q-.001-.062.026-.062c.02 0 .149.025.398.074q.373.073 1.394.103h6.542l.832-.597z"/><path stroke="#aa463c" stroke-linecap="round" stroke-miterlimit="10" d="m147.54 18.924.427.276c.035 0 .008.354.153.297q.223-.092.6-.103h3.089v8.278h-3.505q-1.021-.029-1.394-.103a7 7 0 0 0-.398-.074c-.019 0-.026.025-.026.062s.026.086.026.086l.707.585q.05 0 .271-.086.223-.092.6-.103h9.769q.291 0 .29-.136.001-.272-1.195-1.1l-.844.87h-3.292v-8.28l3.838-.49c.195 0 .943.396.401-.065-.455-.387.053.14-.745-.412l-.004.004-.832.597h-6.542q-1.021-.029-1.394-.103Zm0 0s-.424.029-.424-.012q-.001-.062.026-.062c.02 0 .149.025.398.074Z"/><path fill="#aa463c" stroke="#aa463c" stroke-linecap="round" stroke-miterlimit="10" d="M161.844 21.934v.774q0 .545-.038 1.047h3.215v-.87l-.064-.609q-.013-.094.087-.095 1.347.135 1.364.313-.001.068-.191.186-.188.116-.187.25v.829h2.887q.39-.407.756-.87c.523.334.852.668.997.993.015.037.027.066.027.095q0 .136-.241.136h-5.018a6.4 6.4 0 0 1-.252 1.306h2.837c.111-.054.256-.19.436-.4.179-.214.298-.321.347-.321q.213 0 .649.366.436.364.436.532 0 .066-.252.25-.251.187-.279.347-.075 1.36-.378 1.973-.354 1.02-1.612 1.034l-.477-.42c-.394-.347-1.028-.536-1.891-.573q-.176-.081-.175-.169-.001-.086.152-.198l2.445.219q.202 0 .427-.301.354-.624.428-1.767a.4.4 0 0 0-.076-.177h-3.151q-.945 2.421-3.907 3.386a.6.6 0 0 1-.176.04q-.15-.012-.152-.156-.001-.143.049-.156 3.203-1.44 3.491-4.815h-2.586q-.353 3.398-2.547 5.165-.188-.002-.187-.202c0-.107.046-.218.137-.325q1.666-1.756 1.665-6.47v-2.57l-.061-.64q0-.053.039-.053c.026 0 .164.058.424.169q.382.171.863.44h5.824l.767-.72q1.135.722 1.135.98 0 .068-.264.264-.263.198-.263.333v.857l.076 1.211q-.04.272-.894.272c-.145 0-.225-.107-.252-.326l.039-.556h-6.417zm8.509-3.71h-9.368c-.321 0-.646.07-.982.201l-.657-.72c.203.106.741.164 1.612.164h7.852q.39-.41.756-.869c.523.334.852.667.997.993a.3.3 0 0 1 .027.094q0 .136-.241.136zm-2.066 3.36v-1.318a.5.5 0 0 0-.077-.284h-6.355a.7.7 0 0 0-.011.148v1.454z"/><path fill="#aa463c" stroke="#aa463c" stroke-linecap="round" stroke-miterlimit="10" stroke-width=".75" d="m115.726 22.235.08 48.391c0 2.85 1.845 5.186 5.611 6.912v.865c-2.162-.173-3.686-.346-6.249-.346s-4.006.173-6.168.346v-.865c3.766-1.73 5.611-4.061 5.611-6.912V25.691c0-4.58-1.364-6.912-4.007-6.912v-.865c2.643.173 4.488.346 7.532.346s4.487-.173 6.489-.346l27.083 44.33V25.69c0-2.85-1.845-5.186-5.611-6.912v-.865c2.242.173 3.766.346 6.248.346s4.087-.173 6.169-.346v.865c-3.766 1.73-5.611 4.061-5.611 6.912v52.712h-2.884L115.726 22.23zM179.99 54.72c5.049-1.644 7.211-4.149 7.211-8.296 0-6.22-3.044-10.8-7.291-10.8-4.488 0-8.013 5.1-9.854 14.087l-6.73-7.344c3.926-4.84 10.817-8.036 18.348-8.036 9.537 0 15.144 5.099 15.144 13.913v25.06c0 1.989.561 2.677 1.203 2.677.321 0 .722-.173 1.043-.52l.16.866c-1.604 2.076-3.365 2.937-6.008 2.937-4.087 0-6.011-2.163-6.011-6.825v-3.11c-1.845 6.397-6.57 9.939-13.781 9.939-8.253 0-13.699-4.667-13.699-11.752 0-10.626 12.099-10.111 20.273-12.789zm7.211 8.208V50.571c-1.043 2.418-3.205 4.148-6.569 5.36-5.05 1.816-10.897 2.936-10.897 11.404 0 6.051 2.964 10.026 7.452 10.026 5.69 0 10.014-6.306 10.014-14.433Zm54.485-31.708c0 3.11-6.088 3.803-13.383 3.889 6.65 1.816 10.737 6.566 10.737 13.136 0 8.555-6.81 14.26-17.229 14.26-3.766 0-7.051-.692-9.774-2.076l-1.444 1.903c-1.604 2.076-.641 3.63 3.124 4.408 3.526.778 7.693.432 11.779.432 6.168 0 15.785 1.038 15.785 9.853 0 9.507-12.26 18.668-25.001 18.668-7.932 0-13.463-3.543-13.463-8.642 0-2.245 1.043-4.494 4.247-8.988l1.845-2.504c-.562-.26-1.043-.433-1.524-.692-3.686-2.159-3.204-6.653 1.283-11.925l2.483-2.937c-4.327-2.418-6.97-6.566-6.97-11.752 0-8.382 6.89-13.914 17.469-13.914 7.853 0 11.859-3.11 11.859-8.642l8.173 5.532zm-31.57 44.676-.481.779c-2.643 4.58-1.765 9.16 2.242 12.098 2.723 2.072 6.649 3.11 10.655 3.11a20.7 20.7 0 0 0 4.649-.52c5.847-1.383 10.495-5.445 10.655-9.16.081-2.076-1.283-3.456-5.53-4.062-5.209-.778-16.106-.519-22.194-2.249zm11.458-14.26c4.247 0 7.451-5.792 7.451-13.309s-3.204-13.136-7.451-13.136-7.371 5.619-7.371 13.136 3.204 13.309 7.371 13.309Zm42.229-6.916c5.049-1.644 7.21-4.149 7.21-8.296 0-6.22-3.044-10.8-7.291-10.8-4.487 0-8.013 5.1-9.853 14.087l-6.73-7.344c3.926-4.84 10.816-8.036 18.348-8.036 9.537 0 15.143 5.099 15.143 13.913v25.06c0 1.989.562 2.677 1.203 2.677.321 0 .722-.173 1.043-.52l.161.866c-1.605 2.076-3.365 2.937-6.008 2.937-4.087 0-6.012-2.163-6.012-6.825v-3.11c-1.845 6.397-6.569 9.939-13.78 9.939-8.253 0-13.704-4.667-13.704-11.752 0-10.626 12.1-10.111 20.273-12.789zm7.21 8.208V50.571c-1.042 2.418-3.204 4.148-6.569 5.36-5.049 1.816-10.896 2.936-10.896 11.404 0 6.051 2.963 10.026 7.451 10.026 5.691 0 10.014-6.306 10.014-14.433Zm50.641-13.221c-.802-7.517-3.686-11.492-8.254-11.492-6.569 0-12.34 8.382-12.34 17.975v14.433c0 4.58 1.364 6.911 4.007 6.911v.865c-2.964-.173-5.049-.346-8.735-.346s-5.847.173-8.895.346v-.865c2.643 0 4.006-2.33 4.006-6.911v-27.65c0-4.58-1.363-6.912-4.006-6.912v-.865c1.764.087 3.445.173 5.049.173 3.124 0 6.248-.173 8.574-.778v14.778c2.166-8.9 8.414-15.034 16.106-15.034 2.563 0 5.21.692 6.73 1.73l-2.242 13.654zm21.795-15.382c11.618 0 19.31 8.296 19.31 20.393h-29.485c.241 13.221 6.088 22.209 14.903 22.209 5.691 0 10.897-3.802 14.101-10.28l.722 1.037c-3.445 7.344-10.255 11.578-18.829 11.578-12.501 0-20.915-8.9-20.915-22.555s8.173-22.382 20.193-22.382Zm-.161 1.298c-5.61 0-9.617 7.084-10.014 17.802h20.193c-.321-10.627-4.488-17.802-10.175-17.802z"/><defs><clipPath id="clip0_32_523"><path fill="#fff" d="M20 17h76v62H20z"/></clipPath></defs></svg>