<svg xmlns="http://www.w3.org/2000/svg" width="141" height="38" fill="none" viewBox="0 0 141 38"><path fill="#528dd9" d="m13.249.066-.037-.039h.037zm2.124.59c.04.032.052.06.073.079l.073.078c.012.015.025.025.037.04-.007.098.068.112.11.157.011.012.026.025.036.04-.008.12.1.207.146.314.185.534.2 1.099.047 1.646-.052.182-.158.355-.193.521-.003.013.002.027 0 .04l-.073.02c0 .037.047.014.073.019.012.002.025-.004.037 0-.022.105.048.079.11.097.58.184 1.184.353 1.676.729l.56.316c.593.47 1.15 1.07 1.503 1.773.053.016.061-.017.091-.038.17-.127.34-.329.53-.474l.53-.276c.467-.195.959-.199.605.473-.048.091-.141.182-.19.288-.27.598-.064 1.6-.23 2.312-.083.356-.254.602-.386.906-.016.04-.058.01-.073.157-.023.23.018.495 0 .73-.035.416-.252 1.057-.475 1.399-.103.159-.292.327-.404.473-.11.147-.083.175-.146.376a8 8 0 0 1-.349.925c-.018.04-.091.134-.018.157-.24.447-.533.805-.84 1.198.272.278.5.595.71.93.221-.376.39-.548.788-.668 1.193-.078 2.382-.21 3.572-.314.555-.048 1.115-.11 1.666-.157.196-.017.379-.02.57-.036.912-.077 1.915-.215 2.816-.241.75-.024 1.055.47.925 1.233-.194 1.147-.646 2.444-.905 3.616-.003.013.003.027 0 .04-.087.16-.126.364-.173.543-.272 1.06-.5 2.262-.827 3.288-.06.186-.098.306-.21.465-.445.647-1.395.493-2.06.68-.068.02-.083.033-.137.068-.012.008-.026.027-.037.04-.14.146-.221.375-.329.552-.344.364-.824.641-1.336.672-.118.007-.525-.054-.571-.023-.09.06.084.336.111.414.023.068 0 .179.073.236v.04c.05.523.038.947-.05 1.463-.01.057-.056.154.014.191-.265.969-.902 1.757-1.758 2.168l-1.191.275c-.392-.018-.843.036-1.226-.04-.195-.037-.974-.382-1.093-.307-.017.011-.022.086-.042.111l-.037.04-1.172.552h-.037c-.27-.074-.566.009-.86 0a9 9 0 0 1-1.046-.118c-.064-.011-.179-.077-.254-.093-.57-.124-1.13-.27-1.673-.497-.138-.02-.279.063-.38.155-.012.004-.025-.003-.037 0-.435.126-.87.319-1.319.395a6.6 6.6 0 0 1-1.355.079c-1.117-.079-2.313-.493-3.272-1.112l-.282-.11c-.434-.288-.857-.597-1.226-.976-.31.19-.63.386-.972.502-.063-.082-.234.013-.292.079-.012.002-.025-.002-.037 0-.756.145-1.592.198-2.308-.157-.132-.067-.28-.247-.44-.276q-.018-.018-.036-.039a2.3 2.3 0 0 1-.36-.579c-.267-.722.076-1.43.433-2.021.091-.068.244-.307.329-.434.018-.027.086-.041.073-.118l.073-.079c.203-.15.377-.395.55-.591l.073-.079h.073v-.079l.073-.078h.073l-.036-.04.769-.827.036-.04c.01-.014.025-.024.037-.039.063-.003.186-.175.22-.226.604-.93.371-1.788.587-2.847.459-2.25 1.703-4.185 3.187-5.774.043-.046.071-.123.11-.177.036-.036.063-.073.11-.118.132-.027.197-.116.255-.236.008-.018.045-.071.036-.078a2.2 2.2 0 0 1-.66-.197c.006-.098-.056-.1-.109-.14-.17-.124-.354-.23-.513-.373-.025-.027-.048-.048-.073-.078-.09-.254-.364-.526-.185-.81.434-.041.833.047 1.225-.213.038-.017.02-.051.023-.082a.3.3 0 0 0 0-.078l-.036-.04a8 8 0 0 0-.236-.436c-.062-.059-.387-.198-.509-.28-.339-.234-.57-.504-.794-.86.063-.009-.016-.116-.03-.145-.114-.223-.207-.386-.289-.634-.116-.35-.249-.8-.12-1.153.276-.114.534.05.806.08.007 0 .092.083.11-.022.005-.025-.105-.336-.121-.42-.092-.46-.055-.819-.105-1.224-.025-.208-.201-.82-.332-.967-.022-.025-.062-.005-.065-.009-.01-.014-.025-.025-.037-.04 0-.067-.051-.108-.073-.157-.111-.25-.113-.402.165-.432.581-.064 1.257.23 1.73.579.096.07.328.332.4.36.118.05.066-.044.1-.097.01-.016.06-.015.06-.034.006-.074-.037-.056-.037-.06.068-.543 1.555-1.77 2.015-2.049.021.077.111 0 .148-.018.34-.193.634-.332 1.005-.456.143-.046.716-.157.77-.235l.017-.08c-.22-.362-.282-.782-.33-1.203l.11-.846a2.1 2.1 0 0 1 .843-1.024l.542-.225c.197-.03.44-.146.631-.168.724-.084 1.54.129 2.125.592zm-.148 2.246c.388-1.49-.64-2.239-1.923-2.128-.987.084-1.806 1.062-1.373 2.13.856-.525 2.077-.652 2.98-.191.119.059.202.146.316.191zm-.255.435c-.8-.569-1.976-.483-2.783.02-.005.133.596.019.676.017.447-.01.95-.021 1.396 0 .13.005.607.11.677.063zm-1.868.788c-.19.641.014 1.31.359 1.84.234.361.354.502.77.59.278.059.518.148.697-.132.296-.467.563-1.494.256-1.996-.196-.322-.593-.199-.892-.302H13.1zm-.477.039-1.553.31c-.048.483.339 1.036.678 1.321.418.354.766.333 1.28.378-.064-.18-.172-.336-.239-.513-.169-.449-.255-1.02-.166-1.496M15.41 6.41c.335-.162.812-.15 1.061-.454.195-.236.452-.961.203-1.202-.085-.083-.968-.393-1.008-.354a2.6 2.6 0 0 1-.045 1.508c-.027.077-.236.475-.211.502m-4.803-1.769c-.108-.082-.949.429-1.092.533a5.4 5.4 0 0 0-1.279 1.343c-.076.117-.324.415-.23.547.05.068.36.295.446.349a1.86 1.86 0 0 0 1.216.3c.414-.761 1.017-1.317 1.821-1.539-.424-.421-.748-.918-.882-1.533m6.305 1.492c.747.052 1.407.472 1.817 1.14l.342-.257a5.5 5.5 0 0 0-1.076-1.435c-.15-.138-.602-.495-.771-.55-.068-.022-.048.012-.053.057-.022.187-.014.325-.063.523-.047.186-.145.34-.193.52zM9.364 8.421c-.482.014-.97-.167-1.38-.428-.683-.436-1.112-1.277-1.918-1.485.28.672.118 1.42.374 2.12.09.245.462.833.69.917.076.028.176-.054.272-.06.379-.023.705.058 1.043.236l-.53-.434c-.257-.264-.538-.56-.624-.943.304.205 1.093.99 1.43.988.22-.002.681-.87.64-.91zM20.43 6.725l-1.314 1.208.179.643.548-.513c-.001.379-.234.663-.402.969l.11.647c.4-.11.666-.65.752-1.062.13-.622-.03-1.276.127-1.892m-9.488.513c-.143.112-.45.502-.55.67-.035-.097-.053.035-.067.066-.186.414-.41.98-.63 1.353a6 6 0 0 1-.732.945l-.036.04-.35.201-.356-.202c-.4-.398-1.065-.302-1.153.347-.072.529.015.913.32 1.31.028.037.052.053.073.078.017.02.055.061.073.079.042.041.133.168.175.197.27.185.608.205.92.203l.374.908c.033.045.073.06.106.11.01.015.027.026.037.04-.005.098.1.213.153.288.046.064.091.19.176.184.016.021.046.045.073.079.017.105.17.237.256.275l.073.078c.008.011.038.134.128.158l.018-.04q.018.021.037.04c.673.741 2.055 1.222 3.003 1.3h.037c.096.045.262.074.367.08.59.035 1.374.02 1.942-.14.062-.018.13.005.11-.098a5 5 0 0 0 1.061-.395l.271-.084c.304-.21.603-.42.877-.672.05-.047.097-.065.098-.15l.037-.04c.131-.057.24-.221.329-.345.409-.57.787-1.535.842-2.255.007-.09.018-.205-.036-.275v-.079c.11.022.071-.06.073-.135a8 8 0 0 0 0-.574c-.025-.527-.115-1.242-.268-1.744-.02-.064-.008-.129-.098-.11-.143-.51-.297-.902-.586-1.34.051-.067-.072-.117-.11-.157-.051-.051-.103-.116-.146-.157-.027-.025-.05-.079-.091-.118-.454-.43-1.368-.466-1.888-.159-.322.088-.653.284-.972.315-.319.03-.706-.043-1.006-.118-.437-.11-.675-.243-1.137-.315-.104-.016-.22-.071-.347-.08-.482-.036-1.135.048-1.485.434zM6.61 10.08c-.18-.066-.302-.35-.461-.431-.16-.08-.42-.05-.597-.127.096.62.454 1.08.897 1.458.083.016.052-.039.055-.098.018-.288.015-.516.105-.802zm13.195.19-.186.063.04.764.098-.347zM8.338 13.58c.023-.023-.114-.382-.148-.412-.026-.025-.636-.206-.686-.211-.085-.01-.27.202-.402.26a1 1 0 0 1-.523.088c.487.399 1.181.338 1.76.275m.183.631c-.062-.048-.766.549-.859.631-1.595 1.413-2.907 3.552-3.452 5.704-.35 1.387-.203 2.843-.706 4.207-.044.12-.331.797-.477.688s.256-1.019.2-1.22c-.672.873-1.612 1.522-2.23 2.445-1.049 1.566.337 2.166 1.644 2.045 1.906-.177 3.615-2.4 4.518-4.046.692-1.263 1.136-2.704 2.095-3.776.01-.084-.007-.05-.055-.057-.54-.09-2.32-.334-2.62-.808-.115-.18-.057-.384.163-.377.219.007.737.207 1.003.266.096.022.678.158.703.13 0-.843-.135-1.682-.29-2.506-.008-.222.235-.34.38-.17.177.207.328 1.07.375 1.369.073.466.091.952.154 1.41l1.446.175c.53-.37 1.052-.697 1.706-.71l-1.631-1.772c-.896-1.05-1.7-2.24-2.07-3.626zm4.469 5.36s.01.037.027.03c.006-.004.098-.116.082-.149.012-.008.024-.026.037-.039.08-.066.033-.03.073-.079.028-.034.048-.051.073-.078l.11-.04c.008-.03-.037-.033-.037-.039 0-.014.004-.03 0-.04-.024-.06.014-.09-.11-.117l-.109-.118c-.053-.102-.138-.166-.22-.236-.709-.616-1.53-1.556-2.102-2.328-.1-.136-.188-.356-.296-.47-.131-.136-.432-.283-.602-.418a5 5 0 0 1-.68-.647c-.029-.006-.024.037-.019.059.042.143.254.51.336.663.84 1.547 2.1 2.721 3.252 3.988.075.102.114.06.185.06zm13.445-4.098c-.558.048-1.126.07-1.684.118-1.183.105-2.38.24-3.554.354-.44.042-.887.051-1.328.089-.113.052-.182.159-.264.248-.026.029-.126.041-.02.097-.011.014-.028.027-.036.04-.148.228-.327.98-.414 1.3-.21.772-.462 1.673-.624 2.45-.012.057-.057.154.013.191-.035.125-.191.835-.22.867s-.06-.084-.073.118v.04c-.086.055-.063.15-.073.235q.002.02 0 .04c-.081.139-.123.35-.164.512-.088.34-.161.683-.238 1.024-.003.013.004.027 0 .04l-.465 1.722c-.007.15.11.15.208.21v-.08h.036c1.363-.142 2.713-.443 4.067-.67 1.143-.19 2.3-.35 3.444-.552.288-.05 1.412-.195 1.575-.336.042-.035.03-.09.037-.096.011-.013.026-.027.036-.04.048-.06.116-.11.146-.196l1.853-7.368.018-.373c-.006-.049-.065-.015-.075-.024-.016-.012-.025-.028-.036-.039-.022-.02-.025-.053-.073-.079-.191-.1-.595.022-.824.04-.422.034-.853.082-1.265.118zm-8.645 4.767.843-3.252c-.001-.225-.71-1.438-.898-1.438-.08.059-.346.198-.387.264-.093.15-.238.738-.334.972-.627 1.523-1.705 2.961-2.776 4.15l.754 1.236 2.204-.28c.032-.48.055-.955.042-1.437-.017-.638-.181-1.496-.15-2.09.01-.194.059-.29.258-.235.114.084.134.234.174.366l.266 1.743zm-1.1-4.058c-.148.138-.515.161-.64.277-.103.098-.352.635-.458.806-.62.994-1.311 1.94-2.089 2.797l.386.454c.152.04 1.457-1.744 1.623-1.998.465-.713.909-1.517 1.178-2.338zm-4.944.275c.056.102.117.127.182.197.087.091.171.186.256.275.003.091.075.141.128.197l.018-.04c.469.5.952.985 1.41 1.498l.09.037 1.283-1.969-.018-.078c-.095.023-.203.066-.298.075a8.2 8.2 0 0 1-1.927-.045c-.314-.048-.769-.238-1.053-.225h-.11c-.006.007.027.06.037.078zm1.648 4.454c-.173-.267-.562-.537-.851-.642-.513-.186-.955-.071-1.407.223l-.161.183c-.162.118-.38.438-.597.388-.104-.026-.134-.143-.299-.113-.108.02-.633.695-.73.833-.285.398-.493.816-.689 1.27l-.212.658c.016.053.121 0 .154-.01.23-.087.545-.17.748-.262.04-.018.076-.03.088-.082v-.04c0-.089-.208-.203-.073-.394l.292-.04.037.04c.41.354.747.443 1.27.282.137-.043.385-.214.502-.204.18.018.524.5.662.511.026.002.051-.039.056-.037.268.023.44.012.359-.366-.081-.38-.741-.706-.816-.896-.106-.27.062-.425.31-.332.076.028.388.297.461.37.283.29.489.697.753 1.002.118.1.339.056.364-.116.041-.279-.43-.9-.605-1.122-.098-.125-.384-.361-.43-.483-.062-.16-.045-.332.14-.344.328-.02 1.016 1 1.187 1.299-.08.027.005.114.022.153.09.195.222.547.471.558.18.009.147-.098.167-.12.011-.012.033-.032.036-.04.005-.008.053-.013.067-.064.094-.35-.476-1.002-.617-1.324l-.22-.227q-.016-.02-.036-.039c-.031-.15-.19-.255-.292-.354-.042-.04-.082-.09-.11-.118zm3.736 1.615c-.138-.082-.218-.005-.364.004v.075c-.015.001-.026-.002-.038 0l-.22-.04v.079c-.011.002-.024-.002-.036 0-.296-.073-.664.036-.97.079-.07.009-.158-.017-.214 0-.045.01-.017.071-.024.08l-.036.04c-.007.005-.055-.015-.068.003-.012.016-.019.29-.054.397-.041.125-.126.135-.156.248-.01.1.29.214.364.214.273 0 .98-.171 1.276-.246.151-.038.304-.072.445-.143l.165-.667c.023-.053-.022-.066-.03-.085a.1.1 0 0 0-.037-.04zm-4.433 1.537.025.08 3.017.946c.034.012.055.032.073.039.039.016.097.077.175.107.173.066.387.091.568.132.052-.01.201-.407.098-.475.013-.077.052-.152.033-.234-.214-.045-.415-.129-.62-.2a22 22 0 0 0-1.546-.485c-.053-.014-.138-.066-.175.011-.098-.028-.36-.148-.428-.148-.063 0-.151.107-.23.13-.357.108-.704-.309-.99.099zm6.375 1.576c-.897.155-1.768.436-2.688.348-.797-.075-2.35-.679-3.165-.97-.734-.26-1.399-.6-2.115-.877-.586-.227-1.232-.549-1.668.139.24.073.489.066.735.116 2.075.43 4.572 3.1 6.602 2.69.849-.172 1.663-.862 2.299-1.448zm5.019-.906h-.037c-.036-.064-.14-.045-.2-.04-.504.049-1.026.224-1.537.236-.035-.005-.029.061-.022.08.017.047.103.078.148.097.488.2 1.372.138 1.685-.373.005-.007.031-.005.036-.02l-.018-.059h-.055zm-9.196 2.798c-1.28-.52-2.443-1.406-3.674-2.017-2.288-1.135-2.546-.197-3.963 1.426-.531.61-1.088 1.194-1.776 1.596 1.667 1.406 3.868 2.074 5.943 1.386 1.135-.375 2.583-1.435 3.449-2.31.031-.032.033-.027.023-.082zm3.188 2.206c1.45.527 3.373.232 4.038-1.432.508-1.274.104-3.056-1.4-3.004-1.126.833-2.184 1.875-3.428 2.5a.4.4 0 0 1-.16.045l.583.259c.612.391.69.972.37 1.631zm1.044-4.137v.039q.034-.02 0-.04m-3.462 2.128s-.052.057-.074.079c-.134.023-.206.18-.292.275l-.036.04c-.05.053-.034.01-.073.078-.069.114-.413.405-.532.51-.16.14-1.126.837-1.153.909-.008.02-.013.087.025.078.944.322 2.003.861 3.008.524.243-.082.417-.229.594-.406l.036-.04.037-.038c.048-.05.096-.106.146-.158.003-.003.036.013.075-.027.025-.025.27-.455.275-.486.029-.144-.073-.166-.13-.236l-.037-.039c-.005-.005.011-.052-.007-.07a4 4 0 0 0-.434-.185c-.332-.108-.684-.147-1.026-.197-.11-.186.24-.3.184-.493-.003-.013.005-.032 0-.04-.105-.137-.347-.046-.498-.121-.052-.018-.067.027-.088.041z"/><path fill="#528dd9" d="M24.971 14.882v.04c-.551.046-1.111.109-1.666.157-1.191.104-2.38.236-3.572.314.34-.101.715-.105 1.07-.13l4.17-.382zm3.408 4.61c.26-1.17.71-2.469.905-3.616.13-.763-.176-1.255-.925-1.233-.9.027-1.906.164-2.816.241-.193.016-.376.02-.57.036v-.04c1.135-.019 2.377-.317 3.499-.317.377 0 .84.353.893.775.017.136.014.363-.005.499-.144 1.084-.72 2.378-.895 3.49l-.085.164zm-1.173 4.336h-.036c.11-.16.15-.28.209-.465.327-1.026.555-2.226.827-3.288.047-.178.087-.382.173-.543-.326 1.231-.54 2.629-.942 3.853-.065.196-.126.284-.23.44zM21.38 6.214c-.428.847-.232 1.099-.293 1.989-.035.512-.211 1.143-.549 1.517.132-.304.303-.55.386-.906.166-.712-.04-1.716.23-2.312.049-.106.142-.199.19-.288zm-16.192.039s.043-.014.064.009c.132.147.307.76.333.967.05.405.013.764.105 1.224.017.082.126.393.121.42-.018.105-.103.021-.11.021v-.04c.057-.082-.038-.233-.063-.346-.123-.566-.091-1.136-.204-1.67-.05-.235-.152-.376-.247-.583zm4.176 24.628v.04c-1.286-.063-2.472-.544-3.554-1.262l.283.11c.96.617 2.154 1.034 3.27 1.112m-6.079-1.615c-.037.07-.103.064-.163.08-.703.177-1.485.13-2.145-.198v-.04c.716.356 1.553.303 2.308.158m17.804 1.064c-.774.37-1.588.439-2.417.274v-.039c.384.073.834.021 1.226.04zM3.503 20.715c-.216 1.06.018 1.917-.588 2.847-.033.051-.156.223-.22.226.652-.796.524-1.275.629-2.26.028-.271.088-.545.14-.813zm3.297-5.95c-.038.053-.066.13-.11.176-1.483 1.587-2.727 3.524-3.186 5.774h-.036c.467-2.318 1.757-4.37 3.334-5.95zm7.583 16.077v.04a9.8 9.8 0 0 1-1.967-.581 4 4 0 0 1-.342.109c.101-.095.242-.175.38-.156.545.227 1.103.373 1.673.497.075.016.19.08.254.093zm12.824-7.014c-.389.599-1.35.661-2.001.743-.079.011-.155.007-.233.006.055-.036.07-.049.138-.068.664-.188 1.614-.034 2.06-.68zM15.702 3.533c.035-.166.142-.34.193-.522.154-.546.14-1.11-.046-1.645v-.04c.333.715.291 1.55-.147 2.207m.587 27.427c-.648.093-1.265.04-1.906-.079v-.039c.306.054.738.107 1.045.118.308.01.59-.072.86 0m6.558-2.798c-.07-.038-.023-.134-.013-.191.088-.517.1-.94.05-1.464.056.093.1.354.106.457.027.41-.036.806-.143 1.198m-2.858-16.117v-.04c.223-.341.443-.984.476-1.399.02-.234-.023-.5 0-.729.085.027.072.102.075.175.043.694-.155 1.45-.552 1.992zM.901 25.758c-.084.125-.239.366-.329.434-.357.592-.7 1.3-.432 2.021.072.193.241.44.36.579-.195-.123-.375-.429-.441-.649-.178-.584.061-1.613.513-1.95.122-.203.185-.294.33-.474zm4.14-19.703c-.006-.011-.051-.015-.066-.065-.057-.205.026-.409.232-.445.638-.109 1.54.385 2.029.808.096.084.094.266.259.018 0 .004.041-.014.038.059 0 .02-.051.018-.061.034-.034.053.018.148-.1.098-.071-.03-.304-.291-.399-.36-.473-.35-1.15-.644-1.73-.58-.28.03-.278.183-.165.433zM15.373.656c-.585-.463-1.4-.673-2.125-.591v-.04c.753-.094 1.557.067 2.125.631M13.212.027l.037.04c-.192.021-.432.139-.632.168l-.542.225c.351-.23.727-.372 1.137-.435zm11.393 25.141c-.158.256-.796.71-1.081.71h-.788c.012.11.083.207.11.314l-.037.04c-.026-.08-.2-.354-.111-.415.045-.03.454.029.572.023.511-.029.991-.307 1.335-.672"/><path fill="#528dd9" d="M19.988 12.045c-.12.164-.327.325-.404.434-.026.037-.107.498-.144.613-.1.3-.22.572-.367.845-.073-.023 0-.118.018-.157.146-.327.241-.581.349-.926.063-.2.03-.223.146-.375.117-.152.3-.315.404-.474v.04zm-8.533-8.512h-.037c-.385-.586-.432-1.392-.184-2.05l-.111.846c.05.42.113.841.332 1.204m-1.943.788c.468-.284.93-.477 1.45-.627.135-.04.319-.045.43-.082.039-.013.03-.047.025-.079h.037l-.017.079c-.055.079-.628.19-.77.236a5.2 5.2 0 0 0-1.006.455c-.036.02-.126.097-.148.018zm2.527 26.087c-.379.257-.877.359-1.32.434v-.04c.45-.076.883-.27 1.32-.394M6.91 12.44c-.003.03.016.064-.023.082-.392.259-.79.172-1.224.213-.18.284.096.555.184.81-.156-.187-.422-.542-.24-.793.149-.205.367-.073.551-.071.276 0 .505-.138.751-.24zm11.76 18.127v.04c-.265-.053-.798-.297-.978-.306-.06-.004-.108.044-.158.07.02-.026.025-.1.042-.111.121-.076.899.271 1.093.307"/><path fill="#528dd9" d="M10.72 30.803v.039a6 6 0 0 1-1.356.079v-.04a6.6 6.6 0 0 0 1.356-.078m6.779-.395c-.248.291-.818.493-1.174.552zm.585-25.653-.56-.316c-.49-.377-1.094-.545-1.676-.729-.06-.02-.13.007-.11-.096.863.209 1.635.58 2.345 1.141zm2.125 1.26c.254-.19.668-.477.99-.453.472.033.334.35.181.652h-.036c.354-.672-.14-.669-.605-.474l-.53.277zM3.615 29.187c-.117.04-.174.054-.295.08.059-.067.233-.162.295-.08m19.27-2.718c-.077-.058-.051-.17-.075-.237l.037-.04c.027.106.026.176.038.276m2.051-1.852c-.067.242-.172.383-.331.553.11-.177.19-.406.33-.553M6.545 14.134c-.217-.107-.45-.325-.625-.513.16.143.345.248.515.374.053.04.115.04.11.14M.977 29.109v.04a1.5 1.5 0 0 1-.441-.316c.158.029.306.21.44.276m6.192-14.7c-.059.12-.124.212-.258.237.087-.083.144-.183.258-.237m8.685-13.082v.04c-.049-.11-.16-.194-.149-.316.086.113.091.154.15.276M.901 25.758v-.04c.027-.033.054-.053.074-.078.014.077-.055.091-.074.118m.698-.788c-.172.195-.348.442-.552.592.177-.204.345-.419.552-.592m.148-.157v.08h-.075zm13.92-23.802c-.042-.044-.117-.058-.11-.156.04.05.083.096.11.156M1.856 24.695l.037.038h-.074q.016-.019.037-.038M15.703 3.573v.038c-.028-.007-.074.018-.074-.02zM5.154 6.206c-.04-.01-.108-.12-.106-.151q.002-.015.028.009c.04.037.096.13.083.14h-.003z"/><path fill="#0c6ed2" d="m15.521.816-.075-.08a1 1 0 0 1 .075.08"/><path fill="#1373d4" d="M6.91 12.36c-.003-.01-.028-.022-.036-.038z"/><path fill="#f2e8d5" d="M12.772 6.923c.378.065.759.224 1.136.315.206.05.437.134.646.152.479.04.937-.193 1.37-.39.682-.171 1.367-.241 1.941.275.044.041.095.106.147.157.033.056.074.104.11.158.288.438.443.829.586 1.34.173.616.267 1.206.292 1.851.008.223.01.486 0 .71v.078c-.005.091-.028.157-.036.236-.108.96-.47 1.958-1.1 2.64l-.037.038c-.304.319-.845.705-1.246.906-.344.176-.693.3-1.061.395a7.2 7.2 0 0 1-2.052.197c-.097-.004-.25-.03-.367-.04h-.037l-1.136-.294a6.2 6.2 0 0 1-1.87-1.004l-.036-.04c-.045-.052-.07-.121-.146-.118-.025-.028-.05-.051-.073-.078-.083-.093-.178-.179-.256-.275-.026-.034-.056-.058-.073-.08-.103-.128-.221-.314-.329-.473-.01-.014-.027-.025-.036-.039a7 7 0 0 1-.446-1.097c-.423.032-.786-.052-1.131-.32l-.073-.079-.037-.078c-.051-.093-.124-.177-.164-.275-.195-.472-.28-1.642.428-1.568.303.033.622.272.853.47.096 0 .305-.2.385-.28l.037-.04.425-.407c.106-.186.238-.35.344-.538.257-.455.405-.986.66-1.418.1-.168.405-.558.55-.67.496-.388 1.247-.415 1.832-.315zm.496 3.844c0-.408-.307-.736-.684-.736s-.684.33-.684.736.307.736.684.736.684-.33.684-.736m3.094-.06c-.013.263.063.408.22.59l.036.04c.22.209.344.266.623.118.475-.252.521-1.063.071-1.358-.041-.027-.086-.011-.108-.02-.028-.012-.053-.052-.106-.062-.366-.072-.718.309-.736.693zm-.073 1.85c-.082.07-.148.157-.22.236-.036.041-.07.08-.11.118-.406.293-.823.468-1.318.474h-.037c-.088-.084-.224-.079-.329-.118a2.4 2.4 0 0 1-.413-.206c-.208-.129-.677-.647-.861-.279-.194.39.374.783.651.919a2.2 2.2 0 0 0 .88.236c.398.025.692.009 1.06-.157.311-.074.587-.277.806-.513l.037-.04c.067-.073.193-.193.23-.286.102-.268-.066-.414-.303-.384-.023.004-.06-.007-.073 0m12.199 2.799c.038.01.076.018.11.04.011.01.02.026.036.039l.028.244c-.714 2.468-1.154 5.057-1.86 7.518-.01.034-.105.13-.11.196q-.017.02-.037.04a.9.9 0 0 1-.29.14c-.399.106-.904.142-1.321.214-1.146.198-2.296.398-3.444.591-1.296.218-2.597.411-3.89.642-.06.01-.134.017-.177.067h-.037c-.132.011-.156-.043-.144-.173.032-.402.32-1.022.377-1.45.035-.069.01-.169.023-.23.004-.012-.003-.026 0-.039.098-.132.13-.34.173-.504.09-.34.176-.688.231-1.033q.002-.019 0-.039c.105-.034.065-.154.073-.236v-.04l.073-.117c.029-.032.186-.742.22-.867a221 221 0 0 0 1.025-3.94c.008-.012.024-.025.036-.04.09-.115.173-.228.32-.265.34-.088.916-.09 1.292-.127 1.183-.118 2.37-.21 3.553-.315.562-.05 1.123-.109 1.685-.157.402-.036 1.776-.23 2.052-.157zm-5.165 4.294c-.057.143-.126.288-.183.434-.188.488-.633 1.505-.716 1.968-.013.073-.028.14-.017.218.014.085.06.078.073.098l.037.04c.057.042.022.083.163.08.184-.006.14-.093.166-.12.005-.006.076.007.085-.048.277-.823.61-1.621.903-2.434.183-.506.394-1.022.55-1.537.027-.09.062-.132.073-.236v-.04c.218-.319-.247-.678-.476-.296-.185.31-.48 1.27-.613 1.666-.024.067-.048.132-.045.207m.746 2.114c.143.155.267.082.409-.025.383-.293 1.02-.95 1.373-1.319.246-.256.472-.418.236-.806-.176-.29-.648-.883-.875-1.145-.14-.161-.314-.377-.515-.16-.26.281.111.658.277.889s.36.454.548.67l-1.427 1.419c-.128.148-.164.325-.023.479zm-3.275-1.01c.057.077.118.17.183.236l.037.04c.074.135.187.24.292.353l.073.079c.012.077.12.168.183.236l.036.039c.09.084.12.168.273.155.098-.008.257-.153.276-.255.038-.21-.058-.234-.147-.373-.21-.333-.51-.597-.729-.92l1.517-1.486c.183-.293-.093-.652-.382-.45l-1.76 1.692c-.184.304-.043.447.147.65z"/><path fill="#65aeee" d="M8.522 14.212c.37 1.389 1.174 2.577 2.07 3.626l1.631 1.772c-.654.013-1.178.34-1.706.71l-1.445-.175c-.063-.458-.083-.944-.155-1.41-.046-.299-.2-1.162-.375-1.369-.145-.17-.387-.052-.38.17.156.824.288 1.663.29 2.507-.026.027-.606-.11-.703-.13-.264-.06-.782-.258-1.003-.267s-.278.195-.163.377c.3.474 2.08.719 2.62.808.048.009.065-.027.055.057-.96 1.072-1.402 2.512-2.095 3.776-.902 1.646-2.612 3.87-4.517 4.045-1.308.122-2.693-.48-1.645-2.044.618-.924 1.56-1.572 2.231-2.446.055.202-.345 1.113-.2 1.22.144.108.433-.57.476-.688.503-1.363.354-2.82.706-4.206.545-2.151 1.857-4.29 3.452-5.704.095-.084.8-.68.86-.63zm6.374 13.32c.01.054.008.05-.023.082-.866.876-2.314 1.934-3.449 2.311-2.075.688-4.276.018-5.943-1.387.688-.402 1.245-.986 1.776-1.595 1.418-1.623 1.675-2.56 3.963-1.426 1.23.61 2.394 1.497 3.675 2.017zm3.189 2.205c.32-.66.242-1.24-.37-1.631l-.582-.26q.085-.002.159-.044c1.246-.625 2.302-1.667 3.427-2.5 1.505-.051 1.909 1.73 1.4 3.004-.664 1.662-2.588 1.958-4.036 1.431zm-.295-9.496-.266-1.742c-.04-.132-.058-.284-.174-.366-.2-.056-.246.039-.258.236-.031.593.133 1.449.15 2.088.011.48-.01.958-.042 1.437l-2.204.28-.755-1.236c1.07-1.186 2.15-2.625 2.776-4.149.097-.232.24-.82.334-.972.042-.066.308-.207.387-.264.188 0 .896 1.213.9 1.438l-.845 3.252z"/><path fill="#f2e8d5" d="M10.977 20.676c.942-.695 1.598-.517 2.418.236.03.027.068.078.11.118.072.144.195.232.291.353.012.015.027.025.037.04.21.268.756 1.102.8 1.41a.5.5 0 0 1-.03.205c-.004.007-.026.027-.037.04-.426.189-.484-.285-.66-.592-.176-.308-.859-1.32-1.188-1.3-.186.012-.2.185-.14.346.047.121.333.357.431.482.175.222.646.842.605 1.122-.025.172-.246.218-.364.116-.264-.305-.47-.714-.753-1.002-.073-.073-.385-.341-.461-.37-.248-.093-.416.063-.31.332.075.19.738.53.816.896s-.091.39-.359.366c-.309-.073-.52-.577-.845-.497-.085.022-.163.095-.253.123-.516.161-.935.142-1.393-.178-.014-.01-.024-.027-.037-.04-.128-.121-.236-.126-.329.04-.106.187-.051.273.11.395v.039c-.347.055-.666.222-.989.354l.213-.658c.198-.454.404-.872.688-1.27.098-.138.623-.813.73-.833.165-.03.195.088.3.113.216.05.435-.27.596-.388z"/><path fill="#65aeee" d="M19.073 25.64c-.637.586-1.45 1.274-2.3 1.447-2.03.411-4.525-2.258-6.602-2.689-.246-.052-.495-.044-.734-.116.433-.686 1.081-.366 1.668-.14.716.278 1.38.617 2.115.878.814.29 2.367.895 3.164.97.92.088 1.791-.193 2.689-.348z"/><path fill="#f2e8d5" d="M16.252 27.808s-.003.026 0 .039c-.063.15-.247.298-.312.432-.025.054-.025.061.018.1.533.095 1.092.14 1.577.413l.036.04c.163.294-.103.503-.22.748-.049.052-.097.107-.145.157l-.037.04-.036.039c-1.102.895-2.479.216-3.627-.197.027-.071.993-.768 1.153-.907.12-.106.465-.397.532-.511l.073-.079.036-.04c.135-.06.193-.18.293-.274.023-.022.068-.075.073-.079.19.054.387.097.586.079"/><path fill="#65aeee" d="M10.607 4.641c.134.613.458 1.11.882 1.533-.804.222-1.407.778-1.821 1.539a1.86 1.86 0 0 1-1.216-.3c-.086-.056-.397-.283-.445-.349-.095-.132.154-.43.229-.547.32-.491.812-1.01 1.28-1.343.144-.104.984-.613 1.09-.533m4.619-1.739c-.114-.044-.2-.132-.316-.19-.903-.462-2.124-.335-2.98.19-.433-1.068.386-2.046 1.372-2.13 1.283-.109 2.311.64 1.924 2.129zm-2.123 1.223h1.191c.3.103.696-.02.892.302.308.502.04 1.531-.255 1.996-.178.28-.42.19-.698.132-.415-.088-.535-.229-.77-.59-.345-.53-.55-1.2-.358-1.84zM9.364 8.42c.041.04-.42.908-.64.91-.337.004-1.126-.78-1.43-.988.086.384.367.679.624.943l.53.435a1.86 1.86 0 0 0-1.043-.236c-.096.005-.196.087-.272.059-.228-.084-.6-.672-.69-.917-.257-.699-.095-1.447-.374-2.12.804.208 1.235 1.05 1.917 1.486.41.26.898.441 1.38.427z"/><path fill="#f2e8d5" d="M12.918 18.665c.046.105.15.163.219.236l.11.118c.031.036.048.102.11.118.003.009 0 .025 0 .039-.046.009-.054.057-.074.079-.025.027-.045.044-.073.078l-.073.079c-.013.012-.025.03-.037.04-.044.033-.09.056-.11.117-.07.002-.109.045-.184-.059-1.151-1.267-2.412-2.44-3.252-3.988-.084-.152-.295-.52-.336-.663-.007-.02-.01-.064.018-.059q.313.356.681.647c.17.134.47.282.602.418.11.113.196.334.295.47.574.772 1.394 1.712 2.104 2.328zM11.82 16.38c1.036.404 2.21.429 3.297.275l-1.283 1.97-.09-.038c-.458-.513-.941-1-1.41-1.498q-.075-.078-.146-.157l-.256-.275-.182-.197c-.01-.018-.044-.071-.037-.078h.11zm4.87-.197c-.269.82-.714 1.625-1.177 2.337-.166.254-1.469 2.04-1.623 1.998l-.386-.454a19.5 19.5 0 0 0 2.088-2.796c.108-.172.356-.708.459-.806.123-.118.49-.14.64-.277z"/><path fill="#65aeee" d="M12.626 4.164c-.09.475-.004 1.047.166 1.496.066.177.174.334.237.512-.511-.044-.859-.023-1.279-.377-.339-.285-.726-.838-.678-1.32z"/><path fill="#f2e8d5" d="M14.347 23.985c.57.17 1.135.38 1.721.474.206.071.407.155.62.2.018.082-.022.157-.034.234-.02.122-.053.243-.073.364l-.071.052-.698-.18c-.018-.007-.04-.027-.073-.04-.998-.389-2.035-.659-3.04-1.023.286-.408.633.01.99-.099.08-.023.166-.132.23-.13.066 0 .33.12.428.148"/><path fill="#65aeee" d="M20.429 6.725c-.156.616.003 1.272-.127 1.892-.086.413-.352.954-.752 1.061l-.11-.646c.168-.306.4-.59.402-.969l-.548.513-.18-.643zm-3.517-.592c.05-.182.148-.336.193-.52.05-.198.041-.336.063-.523.005-.045-.015-.079.053-.057.17.053.623.412.77.55a5.4 5.4 0 0 1 1.077 1.435l-.342.257c-.41-.668-1.07-1.088-1.818-1.14zm-1.502.277c-.025-.027.185-.423.211-.502a2.6 2.6 0 0 0 .045-1.508c.04-.04.924.272 1.008.354.25.241-.008.966-.202 1.202-.25.302-.726.292-1.062.454"/><path fill="#f2e8d5" d="M17.13 22.527a.1.1 0 0 1 .037.04l-.189.743c-.507.045-1.13.314-1.626.323a.5.5 0 0 1-.346-.14c.128-.192.244-.401.22-.65.01-.008.026-.028.036-.039q.606-.066 1.21-.157c.011-.002.024.002.036 0 .073-.01.146-.027.22-.04.01-.001.024.002.036 0 .121-.019.246-.051.367-.078z"/><path fill="#65aeee" d="m14.97 3.337-.036.098c-.068.048-.548-.055-.678-.063a21 21 0 0 0-1.395 0c-.08.002-.68.117-.676-.017.807-.502 1.985-.588 2.782-.02zM6.612 10.08c-.09.285-.087.514-.105.803-.003.06.028.115-.055.099-.445-.377-.8-.837-.897-1.459.176.077.437.045.596.127.16.082.281.365.462.43zm1.728 3.501c-.578.063-1.27.124-1.76-.275.189.016.351-.01.524-.087.131-.06.317-.27.402-.261.05.005.66.186.686.21.033.031.17.39.148.413"/><path fill="#528dd9" d="M28.635 15.435c.012.008.07-.025.075.023l-.018.373-1.853 7.367h-.036c.706-2.46 1.146-5.05 1.86-7.517l-.028-.245z"/><path fill="#f2e8d5" d="M24.055 24.734h.073c-.31.511-1.196.574-1.685.373-.045-.017-.131-.05-.148-.098l1.758-.275z"/><path fill="#528dd9" d="M21.601 24.379v.039c-1.352.227-2.704.527-4.067.67.044-.05.117-.057.177-.068 1.294-.23 2.594-.424 3.89-.642m3.151-8.786v.079c-1.183.107-2.37.198-3.554.314v-.04c1.175-.114 2.37-.25 3.554-.353M17.13 29.818c-.175.177-.35.323-.592.406-1.004.337-2.065-.202-3.009-.524-.038.007-.031-.059-.025-.078 1.148.412 2.525 1.091 3.627.196"/><path fill="#528dd9" d="M25.044 23.789v.078c-1.145.202-2.301.361-3.444.552v-.039a560 560 0 0 0 3.444-.591m-6.521-3.429c-.068-.038-.025-.135-.013-.192.164-.777.417-1.676.625-2.45.086-.32.267-1.072.413-1.3a213 213 0 0 1-1.025 3.94zm-6.703-3.98c.285-.01.739.177 1.053.225a8 8 0 0 0 1.927.045c.095-.01.202-.052.297-.075l.019.078c-1.085.154-2.26.127-3.298-.275zm3.919 8.708-3.017-.945-.025-.08c1.005.366 2.043.634 3.04 1.023zM10.06 14.647a6.2 6.2 0 0 0 1.87 1.004l1.136.295c-.949-.079-2.331-.56-3.004-1.301zm7.107 7.92c.01.017.055.03.03.085l-.164.667c-.142.071-.294.105-.446.143-.295.073-1.001.246-1.275.246-.077 0-.376-.114-.364-.214.03-.11.114-.123.156-.248.035-.108.042-.381.053-.397.013-.018.062.002.068-.004.025.249-.091.458-.219.65.083.088.23.142.345.14.497-.007 1.12-.277 1.627-.323l.19-.744zm11.357-7.25-.036.039c-.276-.073-1.65.121-2.052.157v-.04c.41-.035.84-.083 1.264-.117.231-.018.633-.14.824-.04M12.772 6.884v.04c-.585-.1-1.334-.074-1.833.314.35-.386 1.004-.47 1.485-.435.127.01.243.065.348.08m5.936 2.049c.092-.02.08.045.098.109.154.5.244 1.215.269 1.744h-.073a8 8 0 0 0-.294-1.851zm-3.189 6.857c.02.103-.048.08-.11.098-.568.16-1.354.173-1.942.14v-.04a7.2 7.2 0 0 0 2.052-.197zm.551 8.67c-.587-.093-1.153-.304-1.722-.474.037-.076.122-.026.175-.01.518.14 1.048.309 1.547.484m1.429.629v.078c-.098-.059-.215-.059-.208-.209l.58-2.335c-.013.06-.104.773-.14.843-.058.427-.345 1.047-.377 1.45-.01.13.012.183.145.173M7.533 12.123c.344.268.708.354 1.132.32.113.385.269.744.445 1.098-.033-.049-.073-.066-.106-.111l-.374-.908c-.31.002-.65-.018-.92-.204-.042-.028-.132-.154-.175-.197z"/><path fill="#528dd9" d="M26.437 15.474v.04c-.562.05-1.125.107-1.685.157v-.08c.558-.05 1.126-.069 1.685-.117M16.252 27.847c.057.193-.294.307-.184.493.342.05.694.09 1.027.197.058.02.413.164.433.186.019.02.002.066.007.07-.485-.274-1.044-.319-1.577-.413-.043-.04-.043-.047-.018-.1.065-.136.247-.285.312-.433m4.946-11.901v.039c-.375.038-.95.04-1.293.127-.146.038-.23.15-.319.266-.108-.055-.008-.068.02-.096.082-.09.151-.197.264-.249.44-.037.89-.046 1.328-.09zm-3.334-8.669c-.574-.516-1.26-.447-1.942-.275-.012.003-.025-.004-.037 0 .52-.308 1.432-.272 1.887.159.042.04.065.093.092.118zm6.191 17.457-1.757.275c-.007-.02-.013-.085.021-.078.512-.013 1.034-.188 1.537-.236.06-.006.163-.025.201.04zm.99-.867v-.078c.415-.072.92-.107 1.32-.215a1 1 0 0 0 .292-.14c-.007.008.005.062-.037.097-.163.143-1.288.286-1.575.336M7.387 11.966c-.304-.397-.392-.78-.32-1.31.087-.647.753-.745 1.152-.347l.357.202.35-.201c-.08.078-.29.278-.386.28-.231-.198-.552-.438-.853-.47-.707-.073-.623 1.095-.428 1.567.04.098.114.182.164.275h-.036z"/><path fill="#65aeee" d="m19.807 10.272-.048.481-.099.348-.04-.765z"/><path fill="#528dd9" d="M19.036 11.848c-.054.72-.433 1.685-.842 2.255-.088.123-.2.288-.329.345.63-.68.992-1.681 1.1-2.64l.073.04zm-3.15-4.846c.012-.004.025.003.037 0-.434.196-.89.43-1.37.39-.208-.018-.44-.102-.645-.153V7.2c.3.075.7.147 1.006.118s.65-.227.972-.314zm-3.701 16.47s-.03.041-.057.038c-.138-.013-.481-.495-.66-.511-.12-.01-.366.16-.504.204-.522.162-.86.071-1.27-.283.457.32.878.34 1.394.179.092-.029.17-.102.253-.123.325-.082.535.421.846.496zm.587-16.588c.461.071.697.205 1.136.314v.04c-.375-.093-.756-.25-1.136-.315zm-1.795 13.792.161-.182c.45-.295.893-.411 1.408-.224.289.106.677.375.85.642-.819-.753-1.475-.931-2.417-.236zm5.495 1.969q-.604.09-1.21.157c.006-.008-.022-.07.023-.08.057-.014.145.01.214 0 .308-.041.677-.152.97-.079zm1.216.787c-.003-.079.103-.399.121-.472l.054-.236.11-.474q.033-.147.076-.293.022-.075.048-.146c.017-.045.032-.11.06-.143.003.046-.015.103-.023.148q-.014.08-.032.16-.032.157-.07.312c-.038.155-.08.309-.116.465-.035.146-.132.563-.228.68zm1.386-12.647c.009.182.005.39 0 .574-.001.075.037.158-.074.136.01-.222.008-.486 0-.71zm-9.636 12.57c-.012.051-.049.064-.088.082-.203.093-.519.177-.748.26-.033.013-.138.065-.155.011.324-.132.642-.3.989-.353zm6.816 4.453c-.2.018-.395-.025-.588-.079.021-.016.036-.059.088-.041.152.075.393-.016.5.122zm.402-2.917c.102.068-.048.465-.098.476-.181-.04-.396-.066-.569-.132-.08-.03-.136-.091-.174-.108l.698.181.071-.052c.02-.122.054-.243.074-.365zm.916 3.941c.059.071.159.09.132.236a6 6 0 0 1-.277.486c-.039.038-.072.024-.075.027.116-.245.384-.454.22-.75m-7.18-20.923c-.255.432-.403.963-.66 1.419h-.037c.22-.374.444-.937.63-1.353.014-.03.032-.164.067-.066m6.741 14.619c-.122.027-.247.06-.37.079v-.075c.151-.01.23-.086.37-.004m.695-8.037c0 .087-.049.105-.098.15a8 8 0 0 1-.878.671l-.27.084c.398-.201.941-.588 1.246-.906M14.57 23.08c-.02.023.013.129-.167.12-.248-.012-.383-.363-.473-.558-.019-.04-.104-.125-.022-.154.175.308.235.782.661.592m-1.099-7.095v.04a1.2 1.2 0 0 1-.37-.08c.118.01.271.037.37.04m-3.81 6.898-.294.04H9.33c.096-.167.203-.162.331-.04m4.174-1.458.22.227c.14.323.712.975.616 1.324-.014.05-.062.055-.067.064.022-.07.04-.13.03-.205-.042-.31-.588-1.142-.8-1.41"/><path fill="#528dd9" d="M9.365 22.922c-.136.19.073.304.073.395-.164-.12-.217-.207-.11-.395zm8.793-1.3c.01-.086-.012-.181.074-.237-.01.083.033.203-.074.237m.88-9.772-.074-.04c.008-.08.032-.146.037-.237.056.07.044.186.037.276m-2.309 10.757c-.073.012-.148.028-.22.039v-.078zM9.732 9.327c-.106.187-.238.352-.344.538l-.426.408c.228-.234.556-.644.733-.946zm5.861 18.481c-.101.096-.316.363-.45.424.086-.097.302-.442.45-.424m-5.567-13.201-.018.04c-.091-.024-.122-.147-.13-.158.077-.003.103.066.148.118m-.881-1.025c.11.159.229.345.33.473-.085.004-.131-.12-.176-.184-.054-.075-.16-.19-.154-.288zm9.16 7.644-.075.118c.016-.202.044-.084.075-.118m5.787 3.509v-.08h.056l.019.06c-.005.015-.033.013-.038.02z"/><path fill="#0c6ed2" d="M13.214 19.336c-.041.048.007.012-.075.079z"/><path fill="#528dd9" d="M13.104 19.454c.017.033-.076.144-.084.148-.017.007-.024-.03-.027-.03.02-.063.066-.085.111-.118m.144-.434c.127.026.086.056.112.117-.063-.016-.08-.084-.112-.118m.552 2.367c-.097-.124-.22-.211-.294-.355.104.1.262.204.294.355m13.041 1.811c-.03.086-.1.136-.148.196.005-.066.101-.162.111-.196zm1.758-7.802c-.034-.023-.073-.028-.111-.039l.037-.04c.049.026.052.06.074.08m-16.264 1.693-.019.04c-.055-.056-.126-.106-.13-.197zm1.025 2.089s.045.01.037.04l-.112.039c.02-.022.03-.07.074-.079m2.097 8.794-.257.23c.366-.452.496-.516.257-.23M9.549 14.134c.08.098.174.183.257.276-.088-.04-.24-.17-.257-.276m-2.086-2.088c-.022-.026-.046-.042-.075-.08h.037z"/><path fill="#0c6ed2" d="M11.929 16.655c-.066-.07-.128-.095-.183-.196z"/><path fill="#528dd9" d="M18.122 7.591c-.035-.053-.077-.101-.11-.157.038.04.162.09.11.157m-4.981 11.312c-.07-.074-.176-.132-.22-.237.081.071.167.136.22.236"/><path fill="#41a6f2" d="M19.128 25.6q.037.021 0 .041z"/><path fill="#1373d4" d="m17.167 29.779.037-.04q-.017.02-.037.04"/><path fill="#528dd9" d="M16.362 12.558c.454.123.278.373.073.67l-.036.039c-.152.075-.288.22-.427.309-.1.063-.29.164-.38.204-.37.166-.662.182-1.06.157l-.165-.08-.716-.158c-.278-.136-.846-.529-.651-.918.184-.368.652.152.86.279.13.08.274.151.414.205-.02.136.236.114.329.118h.036c.059.066.198.047.274.04.432-.049.735-.215 1.045-.512.04-.037.073-.076.11-.118.098.058.178-.214.22-.236.013-.007.05.004.072 0zm-3.778-1.054c.378 0 .685-.33.685-.737s-.307-.736-.685-.736-.684.33-.684.736c0 .407.306.737.684.737m4.62-1.429c.083.108.221.12.29.261.169.352.06.94-.29 1.12a.9.9 0 0 1-.587-.119l-.036-.04-.22-.59c.019-.383.371-.766.737-.694.055.01.078.05.106.062"/><path fill="#528dd9" d="M15.96 12.911c-.31.297-.611.463-1.045.511-.076.01-.216.027-.274-.039.495-.005.912-.18 1.32-.473zm-1.429 1.026a2.2 2.2 0 0 1-.88-.236l.717.158.165.08zm2.673-3.862c.022.01.067-.007.108.02.451.297.405 1.106-.071 1.358h-.037c.351-.178.46-.766.29-1.118-.069-.142-.205-.154-.29-.261z"/><path fill="#528dd9" d="M17.206 11.455h.036c-.28.149-.403.091-.624-.118a.9.9 0 0 0 .588.118m-.622-.158c-.16-.181-.234-.328-.22-.593zm-1.978 2.088c-.095-.003-.353.018-.331-.118.107.04.242.034.33.118m1.757-.827c.238-.03.407.116.304.384-.035.092-.164.213-.23.287.204-.297.381-.548-.074-.671m.038.709c-.222.234-.496.44-.807.514.09-.04.279-.142.379-.204.14-.088.278-.235.427-.31m-.329-.473c.071-.079.138-.168.22-.236-.042.021-.122.294-.22.236m7.999 8.97c-.142-.154-.104-.329.023-.48l1.427-1.418c-.186-.216-.379-.438-.548-.67s-.537-.607-.278-.888c.201-.216.376-.002.515.16.23.262.7.857.876 1.144.236.388.01.55-.236.806-.356.37-.99 1.026-1.374 1.319-.141.107-.266.182-.409.025zm-2.065-.499.104.295c-.035.349-.277.28-.508.177q-.02-.02-.037-.04c-.003-.123-.12-.167-.182-.235l-.073-.079c-.029-.177-.203-.259-.293-.354l-.036-.039c-.004-.123-.12-.168-.183-.236-.19-.203-.332-.346-.146-.65l1.759-1.692c.287-.204.565.155.382.45l-1.517 1.485c.221.325.519.588.73.92zm1.319-1.615c.053-.136.142-.288.2-.434.188-.476.328-.98.516-1.455.08-.109.25-.098.358-.044.075.05.065.268.062.357v.04c-.065.026-.141.19-.073.235-.156.515-.367 1.031-.55 1.537-.09-.014-.13.177-.158.245-.296.738-.528 1.502-.832 2.237l-.33.039a.2.2 0 0 1-.036-.04c0-.12-.006-.237.017-.357.091-.464.468-1.265.638-1.756.018-.05.081-.136.005-.172.056-.146.128-.29.183-.434z"/><path fill="#528dd9" d="M24.46 18.074c.004-.09.012-.307-.062-.357-.108-.054-.278-.063-.36.044-.187.477-.328.98-.514 1.455-.058.146-.148.296-.201.434-.002-.073.023-.14.045-.207.133-.395.428-1.357.613-1.666.229-.382.696-.023.476.297zm-1.901 4.416c-.014-.022-.115-.069-.152-.22-.018-.075.004-.145.017-.218.083-.463.528-1.48.716-1.968.076.038.013.122-.005.172-.171.491-.548 1.292-.638 1.756-.023.12.459.477.063.477z"/><path fill="#528dd9" d="M23.836 19.888c-.294.813-.628 1.611-.904 2.433a.2.2 0 0 1-.068.111c-.027.027 0 .054-.183.06-.141.003-.108-.04-.163-.081l.33-.04c.302-.734.536-1.5.832-2.237.026-.067.068-.259.157-.244zm-1.831 1.378c.088.14.185.16.147.374-.018.103-.178.248-.277.255-.155.013-.183-.071-.273-.155.232.104.473.172.51-.177l-.105-.296zm2.381-2.914c-.07-.045.008-.212.074-.237-.012.104-.047.147-.074.237m-3.371 2.678c.09.095.267.179.294.354-.105-.113-.22-.22-.294-.354m.552.671c-.066-.07-.175-.16-.185-.237.064.07.181.115.185.237m-.587-.709c-.066-.067-.13-.16-.185-.238.066.07.181.115.185.237m-3.27-.079a3.4 3.4 0 0 1-.182.66l.042-.108q-.027.068-.057.134a.4.4 0 0 0-.05.166.45.45 0 0 0 .198.445.4.4 0 0 0 .321.045.4.4 0 0 0 .248-.206 3.7 3.7 0 0 0 .279-.898.36.36 0 0 0 .006-.18.43.43 0 0 0-.297-.372.4.4 0 0 0-.32.046.44.44 0 0 0-.192.266zM50.093 3.683c.347.24.126.011.324.18.236.2-.09.028-.175.028l-1.669.212v3.592h1.432l.367-.377q.52.36.52.477 0 .06-.126.059h-4.25a.8.8 0 0 0-.26.044.5.5 0 0 1-.118.038l-.308-.254s-.011-.021-.011-.037q0-.026.011-.027.012 0 .173.032.162.032.606.045h1.525V4.103H46.79a.8.8 0 0 0-.26.045c-.063.025-.052-.129-.067-.129l-.186-.12s-.184.013-.184-.005q0-.027.011-.027.012 0 .173.033.162.031.606.044h2.846l.362-.259z"/><path stroke="#528dd9" stroke-linecap="round" stroke-miterlimit="10" d="m46.277 3.9.186.12c.015 0 .004.153.067.128a.8.8 0 0 1 .26-.045h1.344v3.592H46.61a4.5 4.5 0 0 1-.606-.045 3 3 0 0 0-.173-.032q-.012 0-.011.027a.1.1 0 0 0 .011.037l.308.254a.5.5 0 0 0 .117-.038.8.8 0 0 1 .261-.044h4.25q.126 0 .126-.06 0-.117-.52-.476l-.367.377h-1.432V4.103l1.67-.212c.084 0 .41.171.174-.029-.198-.168.023.06-.324-.179l-.002.002-.362.26h-2.846a4.5 4.5 0 0 1-.606-.045Zm0 0s-.184.012-.184-.006q0-.027.011-.027.012 0 .173.033Z"/><path fill="#528dd9" stroke="#528dd9" stroke-linecap="round" stroke-miterlimit="10" d="M52.5 5.204v.336q.001.236-.016.454h1.399v-.377l-.029-.265q-.005-.04.039-.04.585.057.593.135 0 .03-.083.08-.082.05-.082.11v.358h1.256q.17-.176.33-.377.34.218.433.431a.1.1 0 0 1 .011.041q0 .06-.104.06h-2.183q-.028.3-.11.566h1.234a.7.7 0 0 0 .19-.174q.118-.14.151-.14.092 0 .282.16.19.158.19.23 0 .03-.11.11t-.121.15q-.033.59-.165.855-.153.443-.7.449l-.208-.182q-.258-.225-.823-.249-.076-.035-.076-.073t.066-.086l1.064.095q.087 0 .186-.13.154-.272.186-.767a.2.2 0 0 0-.033-.077h-1.371q-.41 1.05-1.7 1.469a.3.3 0 0 1-.076.018q-.065-.006-.066-.068 0-.062.021-.068 1.394-.624 1.519-2.089h-1.125q-.154 1.475-1.108 2.24-.082 0-.081-.087a.22.22 0 0 1 .06-.14q.724-.763.724-2.808V4.239l-.027-.277q0-.024.017-.023.016 0 .184.073.166.075.376.191h2.533l.334-.312q.493.313.493.425 0 .03-.114.114-.115.086-.115.145v.372l.033.525q-.017.118-.389.118-.093 0-.11-.141l.017-.242h-2.79zm3.702-1.61h-4.075q-.209 0-.427.088l-.286-.313q.132.07.701.071h3.416q.169-.177.329-.377.34.219.433.43a.1.1 0 0 1 .012.042q0 .06-.105.059zm-.899 1.458V4.48a.2.2 0 0 0-.033-.123h-2.765a.3.3 0 0 0-.004.064v.631z"/><path fill="#528dd9" stroke="#528dd9" stroke-linecap="round" stroke-miterlimit="10" stroke-width=".75" d="m32.44 5.333.035 20.993c0 1.237.803 2.25 2.44 2.999v.375c-.94-.075-1.602-.15-2.717-.15s-1.743.075-2.683.15v-.375c1.638-.75 2.44-1.762 2.44-2.999V6.832c0-1.987-.593-2.998-1.742-2.998v-.376c1.15.075 1.952.15 3.276.15s1.952-.075 2.822-.15L48.092 22.69V6.832c0-1.236-.803-2.25-2.44-2.998v-.376c.975.075 1.637.15 2.717.15s1.778-.075 2.684-.15v.376c-1.639.75-2.441 1.762-2.441 2.998V29.7h-1.254L32.44 5.331zm27.954 14.095c2.196-.713 3.136-1.8 3.136-3.599 0-2.698-1.324-4.685-3.171-4.685-1.952 0-3.486 2.212-4.287 6.111l-2.927-3.186c1.708-2.1 4.705-3.486 7.981-3.486 4.149 0 6.587 2.212 6.587 6.036v10.872c0 .863.245 1.161.524 1.161.14 0 .314-.075.453-.225l.07.375c-.698.9-1.464 1.274-2.613 1.274-1.778 0-2.615-.938-2.615-2.96v-1.35c-.802 2.775-2.858 4.312-5.994 4.312-3.59 0-5.96-2.025-5.96-5.098 0-4.61 5.264-4.387 8.819-5.548zm3.136 3.561v-5.36c-.453 1.049-1.394 1.8-2.857 2.324-2.197.788-4.74 1.274-4.74 4.948 0 2.625 1.29 4.35 3.241 4.35 2.476 0 4.356-2.736 4.356-6.262Zm23.7-13.757c0 1.35-2.647 1.65-5.82 1.687 2.892.788 4.67 2.848 4.67 5.699 0 3.711-2.963 6.186-7.495 6.186-1.638 0-3.066-.3-4.251-.9l-.628.825c-.698.9-.28 1.575 1.359 1.912 1.533.338 3.346.188 5.124.188 2.683 0 6.866.45 6.866 4.274 0 4.125-5.333 8.099-10.875 8.099-3.45 0-5.857-1.537-5.857-3.75 0-.973.454-1.949 1.848-3.898l.802-1.087c-.244-.112-.453-.187-.663-.3-1.603-.937-1.393-2.886.559-5.173l1.08-1.274c-1.883-1.05-3.032-2.849-3.032-5.099 0-3.636 2.997-6.036 7.599-6.036 3.415 0 5.158-1.35 5.158-3.75l3.555 2.4zM73.499 28.614l-.209.337c-1.15 1.988-.768 3.975.975 5.249 1.185.899 2.893 1.349 4.635 1.349.698 0 1.36-.075 2.022-.225 2.544-.6 4.566-2.363 4.635-3.974.035-.901-.558-1.5-2.405-1.762-2.266-.338-7.006-.226-9.654-.976zm4.984-6.187c1.848 0 3.242-2.512 3.242-5.774 0-3.26-1.394-5.698-3.242-5.698-1.847 0-3.206 2.437-3.206 5.698s1.394 5.774 3.206 5.774Zm18.369-2.999c2.196-.713 3.136-1.8 3.136-3.599 0-2.698-1.324-4.685-3.171-4.685-1.952 0-3.486 2.212-4.286 6.111l-2.928-3.186c1.708-2.1 4.705-3.486 7.981-3.486 4.149 0 6.587 2.212 6.587 6.036v10.872c0 .863.245 1.161.524 1.161a.65.65 0 0 0 .453-.225l.07.375c-.698.9-1.464 1.274-2.613 1.274-1.778 0-2.615-.938-2.615-2.96v-1.35c-.802 2.775-2.858 4.312-5.994 4.312-3.59 0-5.961-2.025-5.961-5.098 0-4.61 5.263-4.387 8.818-5.548zm3.136 3.561v-5.36c-.453 1.049-1.394 1.8-2.857 2.324-2.197.788-4.74 1.274-4.74 4.948 0 2.625 1.29 4.35 3.241 4.35 2.476 0 4.356-2.736 4.356-6.262Zm22.028-5.735c-.349-3.262-1.604-4.986-3.591-4.986-2.857 0-5.367 3.636-5.367 7.798v6.261c0 1.987.593 2.999 1.742 2.999v.375c-1.289-.075-2.196-.15-3.799-.15s-2.544.075-3.869.15v-.375c1.149 0 1.742-1.012 1.742-2.999V14.332c0-1.987-.593-2.998-1.742-2.998v-.376c.767.038 1.498.075 2.196.075 1.359 0 2.718-.075 3.73-.337v6.41c.942-3.86 3.659-6.521 7.005-6.521 1.115 0 2.266.3 2.928.75l-.975 5.924zm9.48-6.673c5.053 0 8.399 3.599 8.399 8.847H127.07c.105 5.736 2.648 9.635 6.482 9.635 2.476 0 4.74-1.65 6.134-4.46l.314.45c-1.499 3.186-4.461 5.023-8.19 5.023-5.438 0-9.098-3.861-9.098-9.785s3.555-9.71 8.784-9.71Zm-.07.563c-2.441 0-4.183 3.073-4.356 7.723h8.783c-.139-4.61-1.952-7.723-4.425-7.723z"/></svg>