<svg xmlns="http://www.w3.org/2000/svg" width="32" height="32" fill="none" viewBox="0 0 32 32"><path fill="#aa463c" d="M17.645 0c1.8.005 2.713.014 3.502.037l.31.011c.359.013.712.029 1.14.048 1.702.08 2.863.349 3.883.744a7.8 7.8 0 0 1 2.835 1.845 7.8 7.8 0 0 1 1.844 2.835c.396 1.019.664 2.18.744 3.885.02.425.036.779.048 1.139l.01.31c.024.787.034 1.7.037 3.5l.001 1.194v2.096q.006 1.75-.037 3.501l-.01.31c-.012.36-.028.714-.047 1.14-.08 1.704-.352 2.864-.746 3.884a7.8 7.8 0 0 1-1.844 2.835 7.8 7.8 0 0 1-2.835 1.845c-1.02.395-2.181.664-3.883.744l-1.14.048-.31.01c-.789.022-1.702.033-3.502.037l-1.194.001h-2.094a125 125 0 0 1-3.502-.037l-.31-.01q-.57-.02-1.14-.049c-1.702-.08-2.864-.349-3.884-.744a7.8 7.8 0 0 1-2.834-1.844 7.8 7.8 0 0 1-1.846-2.836C.446 25.46.177 24.3.097 22.595l-.048-1.14-.008-.31q-.045-1.75-.04-3.5v-3.29q-.007-1.75.035-3.5l.011-.311c.013-.36.03-.714.048-1.14.08-1.703.35-2.863.744-3.884a7.8 7.8 0 0 1 1.85-2.835A7.8 7.8 0 0 1 5.52.84C6.54.445 7.7.176 9.405.096c.426-.02.781-.035 1.14-.048l.31-.01q1.75-.042 3.5-.036zM16 8a8 8 0 1 0 0 16 8 8 0 0 0 0-16m0 3.2a4.8 4.8 0 1 1-.002 9.6 4.8 4.8 0 0 1 .004-9.6m8.4-5.6a2 2 0 1 0 0 4 2 2 0 0 0 0-4"/></svg>