<svg xmlns="http://www.w3.org/2000/svg" width="34" height="34" fill="none" viewBox="0 0 34 34"><path fill="#aa463c" d="M19.325 29.98c0 2.043 2.214 3.321 3.985 2.3a2.66 2.66 0 0 0 1.329-2.302c0-2.044-2.215-3.322-3.985-2.3a2.66 2.66 0 0 0-1.33 2.301m-14.612 0c0 2.043 2.214 3.321 3.985 2.3a2.66 2.66 0 0 0 1.33-2.302c0-2.044-2.215-3.322-3.986-2.3a2.66 2.66 0 0 0-1.329 2.301m24.035-5.675a2.64 2.64 0 0 1-2.629 2.352H1.448a1.384 1.384 0 0 1 0-2.711H24.97a1.39 1.39 0 0 0 1.384-1.176L28.5 3.772a2.644 2.644 0 0 1 2.63-2.351h.76a1.384 1.384 0 1 1 0 2.656h-.513a.33.33 0 0 0-.331.29z"/><path fill="#aa463c" d="M2.72 16.696h9.299s1.329 0 1.329 1.328v2.657s0 1.328-1.329 1.328H2.721s-1.328 0-1.328-1.328v-2.657s0-1.329 1.328-1.329m3.985-5.976h5.313s1.329 0 1.329 1.327v1.329s0 1.329-1.329 1.329H6.706s-1.328 0-1.328-1.33v-1.328s0-1.327 1.328-1.327m9.963-3.321h6.64s1.33 0 1.33 1.327v11.957s0 1.327-1.33 1.327h-6.64s-1.33 0-1.33-1.328V8.727s0-1.33 1.33-1.33"/></svg>