<svg xmlns="http://www.w3.org/2000/svg" width="32" height="37" fill="none" viewBox="0 0 32 37"><path fill="#aa463c" d="m31.844 31.58-1.585-3.061c.72-1.801.36-4.143-1.261-5.583a5.26 5.26 0 0 0-5.944-1.081l3.423 3.422-2.522 2.521-3.602-3.602c-.9 1.981-.54 4.323 1.08 6.124 1.621 1.621 3.783 1.981 5.584 1.26l2.521 2.162s.644-.47 2.305-2.161c-.57.964.571-.965 0 0m-12.032 2.162H0V30.14c0-3.963 6.484-7.204 14.409-7.204.9 0 1.801 0 2.521.18-.54 1.08-.72 2.161-.72 3.422 0 2.882 1.441 5.583 3.602 7.204M14.41 4.924c-3.963 0-7.205 3.242-7.205 7.205s3.243 7.204 7.205 7.204 7.204-3.242 7.204-7.204c0-3.963-3.242-7.205-7.204-7.205"/></svg>