<svg xmlns="http://www.w3.org/2000/svg" fill="none" viewBox="0 0 53 36"><g clip-path="url(#clip0_37_201)"><path fill="#1e3219" d="M49.396 13.243c-1.394-3.239-4.282-5.426-7.724-5.852-1.388-.171-2.482.018-3.54.2q-.355.063-.727.122l-6.623-3.669a1.48 1.48 0 0 0-1.052-.148L1.906 10.293a1.5 1.5 0 0 0-.684.366l-.316.298a1.49 1.49 0 0 0-.43 1.41l4.256 18.871c.07.306.233.583.469.79l.48.422c.359.316.847.44 1.312.333l27.712-6.369q.05-.008.1-.02c.45-.104.774-.36 1.015-.646 2.307 1.089 4.758 1.403 7.023.88 2.186-.504 4.081-1.776 5.48-3.678 2.075-2.819 2.475-6.447 1.072-9.707m-3.644 5.848c-.658 1.808-2.079 3.085-3.898 3.505-1.166.269-2.407.166-3.557-.277l5.852-8.671a1.5 1.5 0 0 0 .231-.57q.15.149.29.309c1.399 1.59 1.803 3.724 1.082 5.704m-16.708 2.586c-.003.198-.067.533-.441.65L9.693 26.69a1 1 0 0 1-.436-.096c-.083-.06-.256-.3-.337-.541-.544-1.613-.886-3.42-1.248-5.332-.325-1.72-.661-3.497-1.163-5.145-.075-.576.009-.816.828-1.072a55 55 0 0 1 4.045-1.078c1.745-.402 3.571-.762 5.338-1.11 1.79-.353 3.643-.718 5.437-1.133a63 63 0 0 0 3.383-.871c.816-.094.94.293 1.025.552.553 1.713.914 3.582 1.296 5.56.337 1.75.686 3.555 1.183 5.253"/><path fill="#aa463c" d="m2.454 11.586 27.822-6.398 7.057 3.91c1.575-.196 2.734-.59 4.37-.388 6.228.77 9.365 8.135 5.638 13.2-2.903 3.946-7.782 4.166-11.754 1.754-.253.013-.567 1.11-.939 1.13L6.874 31.176l-.48-.422-4.256-18.871zm27.64-5.18L3.42 12.562 7.433 29.95l26.674-6.157 7.58-10.957c-.616-.226-3.955-2.39-4.318-2.284-.357.103-2.053 1.526-2.073 1.843.682.946 1.12 1.853.775 3.04-.786 2.714-4.7 2.734-5.55.08-.756-2.364 1.427-4.333 3.726-3.703.577-.694 1.174-1.453 2.005-1.843.076-.136-.718-.579-.864-.666-1.724-1.024-3.548-1.909-5.294-2.897m8.897 3.543c.166.167.399.306.603.421.848.479 2.532 1.19 3.201 1.75.178.15.379.262.337.538L36.352 22.7c3.952 2.667 9.321 1.377 11.008-3.258 1.956-5.371-2.868-10.733-8.37-9.494m-5.432 2.882c-1.986-.18-2.776 2.25-1.116 3.307zm.082 3.438c1.23-.153 1.9-1.9.939-2.757a7.5 7.5 0 0 0-.939 2.757"/><path fill="#1e3219" d="M30.094 6.405c1.745.989 3.57 1.874 5.294 2.898.146.086.94.53.864.666-.83.39-1.428 1.15-2.005 1.843-2.3-.63-4.481 1.339-3.726 3.702.85 2.654 4.764 2.635 5.55-.079.344-1.187-.093-2.095-.775-3.04.02-.317 1.716-1.74 2.073-1.843.363-.105 3.702 2.058 4.318 2.284l-7.58 10.957L7.433 29.95 3.42 12.562zM8.676 27.693c.393.248 1.037.387 1.503.304l19.012-4.388c1.053-.293 1.645-1.268 1.54-2.342-1.052-3.508-1.427-7.572-2.54-11.017-.414-1.284-1.473-1.744-2.746-1.554-5.885 1.724-12.534 2.42-18.337 4.232-1.427.446-2.067 1.295-1.84 2.816 1.04 3.35 1.354 7.351 2.458 10.627.162.481.52 1.051.95 1.323"/><path fill="#aa463c" d="M28.192 10.25c1.112 3.446 1.487 7.51 2.54 11.017.104 1.075-.488 2.049-1.54 2.343l-19.013 4.387c-.465.083-1.11-.055-1.503-.304-.43-.271-.789-.842-.95-1.322-1.105-3.276-1.419-7.278-2.458-10.628-.228-1.52.412-2.37 1.84-2.815 5.803-1.812 12.45-2.509 18.337-4.233 1.273-.188 2.331.271 2.746 1.555m1.386 11.534L27.01 10.422a.917.917 0 0 0-1.104-.613l-18.981 4.41c-.452.233-.627.668-.523 1.16 1.037 3.362 1.364 7.339 2.456 10.634.19.572.498.94 1.15.804l19.014-4.388c.306-.073.399-.407.556-.644"/><path fill="#000" d="m21.827 17.47-.346-1.496c-.045-.194.187-.665.411-.74.196-.08.561.023.665.206l.956 4.285c-.83 1.353-1.768-1.048-2.591-1.333l.412 1.787c.062.269-.731.787-1.045.22l-1.022-4.069c.65-1.712 1.783.752 2.56 1.14m-8.741 3.95c.467.846-.688 1.578-1.034.797-.213-.479-.868-3.394-.908-3.953-.049-.677.84-.803 1.364-.879 2.013-.293 2.96 1.762 1.473 3.066.43.34 1.682.482 1.256 1.284-.427.802-1.565-.243-2.15-.314m-.402-1.737c1.338-.148 1.015-1.546-.246-1.063zm-4.827-1.411c.19-.107 1.076-.302 1.328-.33.846-.09 1.63.635 1.686 1.472.017.25-.176.775-.147.872.02.069.389.372.492.624.57 1.397-.71 2.365-2.006 2.42-.85.036-.684-1.893-1.104-2.439.044-.718-.354-1.46-.419-2.146-.018-.195-.024-.363.17-.473M9.1 20.001c1.404-.115.091-1.405-.135-.787zm.468 2.029c.958-.072.7-1.224-.2-.87zm14.202-7.02c.273-.152 1.618-.424 1.968-.431 2.157-.048 3.1 2.798 1.384 4.099-.465.353-1.674.71-2.254.734-.281.012-.47-.176-.562-.422-.23-.617-.72-2.737-.783-3.39-.021-.217.041-.477.246-.59m1.456 3.1c.88-.092 1.865-.47 1.585-1.536-.263-.999-1.297-.866-2.075-.589zm-8.538-1.672c.654-.254.968.127 1.328.591.402.52 1.735 2.461 1.937 2.986.113.294.174.672-.157.857-.855.478-1.155-1.343-1.704-1.318-.179.008-1.111.229-1.2.324-.2.53.004 2.015-.89 1.835-.416-.083-.438-.5-.433-.846.01-.706.33-3.053.516-3.726.082-.297.312-.59.603-.703"/><path fill="#f2e8d5" d="m27.01 10.422 2.568 11.362c-.157.238-.25.572-.556.644l-19.015 4.389c-.651.136-.96-.232-1.15-.805-1.091-3.295-1.418-7.272-2.455-10.634-.104-.492.07-.926.523-1.16l18.981-4.41a.92.92 0 0 1 1.104.614m.112 8.255c1.717-1.3.774-4.146-1.384-4.099-.35.008-1.695.28-1.968.431-.205.115-.267.374-.246.59.063.655.552 2.774.782 3.39.092.247.281.434.563.423.579-.025 1.788-.382 2.253-.735m-3.608 1.047-.956-4.285c-.105-.183-.47-.285-.665-.206-.225.077-.456.547-.412.74l.346 1.498c-.778-.39-1.91-2.853-2.56-1.141l1.021 4.069c.315.567 1.108.05 1.046-.22l-.412-1.787c.824.284 1.76 2.686 2.592 1.332m-3.719 1.148c.33-.185.27-.563.157-.858-.201-.524-1.535-2.466-1.937-2.985-.36-.465-.673-.845-1.328-.59-.29.112-.52.404-.603.701-.186.674-.506 3.02-.516 3.726-.005.347.017.764.432.846.894.18.69-1.305.891-1.835.089-.096 1.02-.316 1.2-.324.55-.025.85 1.796 1.704 1.318m-4.558.862c.427-.801-.825-.943-1.255-1.283 1.487-1.305.54-3.359-1.474-3.066-.524.076-1.413.202-1.363.88.04.558.695 3.473.907 3.952.346.78 1.501.05 1.035-.796.585.07 1.74 1.085 2.15.313M9.211 23.33c1.295-.055 2.574-1.023 2.006-2.42-.103-.253-.472-.555-.492-.623-.03-.099.164-.623.147-.873-.057-.837-.84-1.562-1.686-1.47-.252.026-1.137.221-1.328.328-.194.11-.19.278-.17.472.065.686.463 1.43.419 2.147.42.546.254 2.475 1.104 2.439"/><path fill="#f2e8d5" d="M26.81 16.574c.28 1.066-.704 1.443-1.584 1.537l-.49-2.126c.777-.277 1.812-.41 2.074.589"/><path fill="#aa463c" d="M25.738 14.578c2.158-.047 3.1 2.798 1.384 4.099-.465.352-1.674.71-2.253.735-.282.01-.471-.176-.563-.423-.23-.616-.719-2.736-.782-3.39-.022-.216.04-.476.246-.59.273-.152 1.619-.423 1.968-.431m-.512 3.533c.88-.094 1.865-.471 1.585-1.537-.263-.999-1.298-.866-2.075-.589zm-2.668-2.672.955 4.285c-.83 1.354-1.768-1.047-2.591-1.332l.412 1.787c.062.27-.73.787-1.046.22l-1.02-4.07c.648-1.711 1.781.752 2.559 1.142l-.346-1.498c-.044-.193.188-.664.411-.74.196-.08.56.024.666.206m-2.606 4.576c.114.294.173.672-.157.857-.855.478-1.154-1.343-1.705-1.318-.179.008-1.11.228-1.199.324-.2.53.003 2.016-.891 1.835-.416-.083-.437-.499-.432-.846.01-.705.33-3.052.516-3.726.082-.297.312-.59.603-.702.655-.254.968.126 1.327.591.403.52 1.737 2.46 1.938 2.985m-5.971.436c.43.34 1.682.482 1.256 1.284-.41.77-1.565-.244-2.15-.314.466.846-.69 1.576-1.035.796-.212-.479-.868-3.394-.907-3.952-.05-.678.839-.803 1.363-.88 2.013-.293 2.96 1.761 1.473 3.066m-1.296-.768c1.337-.148 1.014-1.546-.246-1.063z"/><path fill="#f2e8d5" d="M12.44 18.62c1.26-.484 1.582.915.245 1.063z"/><path fill="#aa463c" d="M11.217 20.911c.569 1.397-.711 2.365-2.006 2.42-.85.035-.684-1.893-1.105-2.44.044-.717-.353-1.46-.419-2.146-.018-.194-.024-.362.17-.472.191-.107 1.077-.302 1.328-.329.846-.091 1.63.634 1.686 1.471.017.25-.176.775-.147.873.021.068.39.37.493.623m-2.117-.91c1.404-.115.091-1.404-.135-.787zm.468 2.03c.958-.073.7-1.226-.2-.871z"/><path fill="#f2e8d5" d="M8.965 19.214c.226-.617 1.539.672.135.788zm.402 1.946c.9-.354 1.16.798.201.87z"/></g><defs><clipPath id="clip0_37_201"><path fill="#fff" d="M0 10.734 46.51 0l5.649 24.479-46.51 10.734z"/></clipPath></defs></svg>