<svg xmlns="http://www.w3.org/2000/svg" id="Capa_1" data-name="Capa 1" viewBox="0 0 481 490.57"><path d="m91.67 363.64 14.95-2.63c1.68-8.6 4.93-16.69 9.07-24.36-1.44-3.89-3.86-7.5-5.31-11.56-10.18-28.43 4.12-80.62 21.56-104.73 6.85-9.47 13.98-14.48 24-20.19 2.29-1.31 5.84-2.41 7.8-3.75 2.18-1.49 4.78-5.63 7.22-7.36-4.42-6.66-9.51-12.99-12.08-20.68-21.45.03-35.93-16.6-40.95-36.13-1.96-7.61-4.25-22.82.44-29.4 2.68-3.76 8.77-3.69 9.23-4.33.26-.36 1.48-7.24 1.88-8.67 2.71-9.86 6.65-19.48 11.86-28.27-11.04-6.29-15.59-16.39-12.85-28.97 2.16-9.96 11.5-20.01 19.98-25.22 18.61-11.43 47.15-11.7 51.68 14.28 4.27-.54 8.51-1.59 12.81-2.01 12.14-1.18 25.63-.12 37.3 3.37 5.79 1.73 10.26 4.18 16.2 5.89 12.63 3.64 22.89 8 32.62 17.09 17.04 15.92 30.19 48.04 21.59 70.82-.9 2.38-3.58 6.01-3.91 7.64-.59 2.86-.24 7.66-.62 10.93-2.34 19.96-7.32 41.59-19.17 58.16-2.16 3.02-4.65 5.7-6.94 8.61 25.88 15.7 33.93 46.72 49.06 71.1.56.35 1.19.46 1.84.43 4.01-.17 9.13-1.45 13.18-1.9 10.79-1.2 23.43-3.19 34.06-3.6 3.62-.14 7.2-.32 10.29 1.81 11.05 7.63-6.41 24.5-10.99 31.6 3.83 3.06 6.16 7.97 3.6 12.66-.68 1.24-2.03 1.92-2.48 3.04-2.06 5.17.2 4.83-4.64 9.92-2.43 2.55-2.02 2.6-3.81 5.23-2.53 3.72-7.32 6.49-11.77 7.07 4.97 7.56 6.98 17.1 5.56 26.07 11.58 3.63 22.94 8.22 34.24 12.72 23.33 9.28 46.51 19.09 69.64 28.78.89.87 2.46 2.02 2.82 3.2.49 1.57.49 15.03 0 16.63-.75 2.45-4.67 4.13-6.99 4.56-99.02 19.55-198.12 38.72-296.98 59.05l-7.77.02C116.31 462.04 62.34 435.47 10 406.4c-3.64-2.02-9.16-4.24-9.72-8.86-.36-3.02-.35-11.06 0-14.08.42-3.59 4.02-5.19 7.04-6.02 5.4-1.49 12.01-2.13 17.58-2.76v-38.42c.16-2.78 2.37-5.45 4.55-7 10.41-7.39 43.27-7.28 54.71-2.04 1.73.79 7.53 5.33 7.53 7.03v29.38Zm31.26-257.49c-1.37 1.62-1.29 9.82-1.15 12.21.97 16.26 10.19 36.65 26.87 41.93 3.87 1.22 12.31.39 14.12 1.45 1.37.81 3.15 7.35 4.15 9.41 7.78 16.07 25.6 29.96 41.59 37.25 61.09 27.87 98.67-20.9 101.64-78 1.31-25.25-6.91-26.96-22.88-41.94-5.69-5.33-11.14-11.04-16.06-17.08-15.84 29.76-52.49 41.67-84.61 38.88-3.77 4.75-7.23 9.84-11.3 14.35-1.5 1.66-8.65 9.08-10.16 9.43-4.7 1.08-4.94-3.66-6.96-6.88-5.54-8.81-14.71-17.31-24.84-20.36-2.09-.63-8.96-2.37-10.41-.65m102.89 162.01c.33.19.77.13 1.11 0 .59-.22 7.27-9.12 7.62-10.01.21-.54.42-.92.01-1.46-12.77-12.23-25.78-25.19-36.92-38.95-3.32-4.1-6.65-9.94-10.04-13.56-3.21-3.43-8.76-6.39-12.06-10.04-1 .42-4.68 3.04-5.23 3.82-.45.62-.84 1.94-.78 2.7.09 1.2 5.77 9.98 6.9 11.69 13.03 19.74 31.09 38.06 48.36 54.09.53.49.95 1.66 1.03 1.71Zm-61.87-64.68c-19.11 6.69-29.85 21.93-37.71 39.8-8.23 18.71-16.07 50.66-12.32 70.74 3.75 20.11 18.26 34.15 35.26 44.08 4.89-21 13.57-42.09 28.37-58-4.21-2.03-8.71-3.51-13.17-4.9-2.39-.75-12.59-2.88-13.48-4.09-1.37-1.89.13-4.18 2.29-4.35 2.56-.21 14.19 3.57 14.8 3.04 2.48-12.84 3.71-25.32 3.56-38.42-.03-2.46-1.71-6.26 2.75-5.79 2.79.29 3.15 7.35 3.27 9.81.19 3.82-.24 8.69-.53 12.57-.61 8.13-2.26 16.2-2.96 24.31 6.69 1.66 12.83 4.99 19.21 7.5 3.86-3.66 8.38-6.42 12.87-9.21-4.81-6.16-10.18-12.04-14.75-18.38-.8-1.11-2.25-2.7-2.58-3.95-2.35-8.96 6.6-15.32 14.07-10.06l15.57 19.57 4.26-4.27-21.09-20.56c-13.69-15.5-28.52-30.65-37.69-49.44m168.26 70.77c-5.37-10.55-10.65-21.24-16.31-31.64-7.88-14.47-15.46-27.88-30.57-36.09-1.44 1.58-6.08 4.03-6.73 5.84-.8 2.22-.82 6.93-1.36 9.68-5.49 28.01-19.95 52.61-39.18 73.31l-.29 1.21c1.76.54 3.57 3.81 4.91 4.2 2.48.73 11.32-.54 14.39-.97 4.67-.65 20.82-3.68 23.75-6.63 1.3-1.3 5.67-9.16 6.63-11.2 4.02-8.56 5.57-19.65 5.09-29.05-.17-3.28-3.54-14.61 2.67-12.72 2.23.68 3.21 10.38 3.36 12.72.58 9.03-.73 18.29-3.51 26.86 11.9-3.94 24.82-3.57 37.16-5.53Zm-79.84-51.71c-17.26 2.43-33.69-1.8-49.21-9.04 3.2 4.27 6.73 8.51 10.29 12.56 2.74 3.12 22.83 24.85 24.61 25.12 1.08.17 1.55-2.69 2.35-3.19 4.51-8.22 8.73-16.63 11.96-25.44Zm20.58-7.04-13.94 5.63c-7.49 22.9-19.98 44.15-36.54 61.65 1.24 3.07 7.04 12.06 11.11 9.08 19.38-21.64 34.3-47.42 39.38-76.36Zm-53.72 73.31-19.61-25.33c-5.9-2.14-6.44 1.03-3.4 5.41 4.58 6.59 11.21 12.65 15.7 19.46 1.49 1.09 5.38.17 7.32.46Zm43.19 50.73c11.21-13.19 20.25-28.55 31.15-41.91 1.94-2.38 4.75-6.45 7.51-7.55s8.09-1.38 11.3-1.76c26.48-3.12 53.99-4.27 80.29-8.1 6.55-.95 2.8-6.62-1.94-5.97-26.14 3.54-52.64 4.72-78.79 8.1-9.98 1.29-15.06 1.22-21.89 9.24-10.35 12.14-18.72 27.4-29.07 39.73-1.59 2.6 1.54 5.35 1.44 8.21Zm-50.1-24.99c.53-.53 1.83-.67 2.58-.61 2.99.26 10.61 5.9 13.1 8.03 1.53 1.31 5.1 5.69 6.3 6.29 3.31 1.64 3.35-5.06 2.89-6.95-.65-2.71-9.8-8.99-12.49-10.61-2.05-1.23-8.08-3.61-9.28-4.78s-1.07-3.95.64-4.46c4.07-1.21 15.05 6.36 18.46 8.96 2.11 1.61 7.42 8.4 9.55 4.01 1.52-3.12-4.93-9.3-7.27-11.31-9.04-7.74-20.07-12.12-31.1-5.48-13.42 8.09-22.95 25.24-28.66 39.37 5.32 1.45 11.65 3.15 17.19 2.39 3.24-.45 6.36-2.69 9.67-2.4s7.07 5.31 10.96 3.96c.74-.26 2.21-2.65 1.78-3.38-.38-.65-7.85-4.24-9.15-5.17-2.52-1.8-2.48-5.05.44-5.45 4.87-.67 14.09 10.38 18.5 7.49s-1.29-7.67-3.77-9.69c-3.13-2.56-6.75-4.34-10.22-6.35-.89-.92-1.05-2.98-.15-3.88Zm-51.35 48.59c4.97-16.28 11.2-33.76 20.38-48.17 1.04-1.64 7.1-9.31 7.19-9.92.13-.86-1.77-1.77-2.45-1.95-2.13-.55-2.68.07-4.26 1.29-9.36 7.21-25.17 40.73-25.89 52.44-.26 4.23.46 6.07 5.03 6.3Zm113.49-60.26c-8.78 1.73-17.57 4.16-26.61 4.01.36 1.88 1.7 3.32 1.96 5.31.24 1.81-.57 4.56-.38 5.38.41 1.76 6.71 6.25 6.96 8.88l18.07-23.59Zm97.83 3.66c-2.94.26-8.62.33-7.34 4.52.83 2.72 11.68 3.06 14.21 2.85 2.97-.24 8.46-1.24 6.53-5.51-1.32-2.91-10.56-2.12-13.4-1.87Zm9.64 12.91h-10.8c-1.67 0-6.43-1.63-8.14-2.41s-2.03-3-4.17-.36c-4.58 5.67 8.62 8.16 12.28 8.31 3.85.16 10.62-.82 10.82-5.55Zm-125.55 19.58c1.57-1.46-10.34-16.79-12.55-18.08.5 2.96-.75 5.63-.78 8.52 4.4 4.1 5.92 10.59 13.32 9.56Zm117.51-8.53c-6.63.41-13.64-1.25-18.83-5.53-1.96 3.87-.55 5.82 2.92 7.62 4.4 2.28 12.92 2.65 15.91-2.09m-336.95 9.54c12.17 4.97 30.47 4.89 42.68 0 2.88-1.15 9.21-2.57 3.98-6.24-8.57-6.03-42.22-5.66-50.65.5-.54.4-2.16 1.76-2.02 2.42 1.52 2.19 3.95 2.48 6 3.32Zm202.23-5.88c-.73-.59-1.69-.7-2.59-.67-4.57.15-3.5 2.66-6.34 4.75s-6.23 1.51-7.98 2.56c-.65.39-2.48 3.32-3.79 4.25-1.85 1.32-3.98 2.08-6.28 1.81-3.63-.42-6.75-3.81-10.04-3.08-.37.08-2.06.67-2 1.27 22.05 3.81 43.31 11.65 61.63 24.49 16.22-.11 33.06-2.43 48.95 1.77 8.47 2.24 21.23 7.77 19.36 18.57-.63 3.66-4.52 5.22-3.39 9.41 9.62-2.1 18.67-5.38 26.57-11.34 11.45-8.63 16.32-19.48 14.48-33.98-.38-3.01-4.67-14.32-8.12-13.97-.24.02-.38.86-.91 1.19-3.4 2.15-5.88 2.57-9.76 3.27-16.28 2.93-34.63 4.61-51.2 6.55-12.45 1.46-30.16 4.73-42.12 4.62-5.33-.05-11.78-3.28-11.7-9.34.02-1.58 1.58-4.01 1.34-4.91-.42-1.61-5.3-5.3-6.11-7.23Zm-119.87 7.89c-6.76 14.36-10.81 31.48-2.78 46.21 15.6 28.58 63.42 33.32 92.4 30.62 22.69-2.12 38.95-13.67 46.34-35.52.68-2.01 2.87-8.46 1.62-9.92-.87-1.01-9.4-5.9-11.21-6.87-10.53-5.67-23.44-10.28-35.07-13.13-3.84-.94-10.53-2.68-14.25-2.86-1.08-.05-1.54-.08-2.51.49-1.87 1.09-5.87 6.19-8.02 8.05-7.06 6.08-17.83 11.96-27.48 10.44-7.93-1.25-25.34-14.5-31.51-20.21-2.15-1.99-4.36-5.14-6.26-6.8-.44-.38-.56-.65-1.26-.49Zm71.3 3.52-16.51-2.46-6.58 19.02c2.72 2.49 21.27-13.21 23.1-16.56Zm-104.95-1.51c-3.21 1.36-6 2.54-9.45 3.36-10.78 2.55-25.6 2.71-36.35 0-2.94-.74-5.77-1.94-8.43-3.37v34.4c0 .89 2.89 4.09 3.77 4.77 9.14 7.13 37.98 7.17 46.96-.24.85-.7 3.5-4.23 3.5-5.03v-33.9Zm172.74.5c-1.84 1.16-5.67-.29-6.71.03-2.23.71-.11 5.81 2.86 4.93.73-.22 2.98-4.16 3.84-4.96Zm-152.15 23.1-14.57 2.01c1.45 9.89-3.12 17.44-12.05 21.34l29.13-4.77c.35-.29-2.51-7.25-2.51-8.79zm302.3 17.08-36.15-13.56c-2.64 10.6-11.09 18.38-19.59 24.6l54.98-10.06c.65-.12 1.63-.19.76-.98m-87.87 12.04c-2.25.31-12.22-.66-12.98-2.84-1.13-3.27 1.26-4.32 4.12-4.04.63.06 1.27.74 2.1.82 2.52.25 8.89 1.63 10-.98 3.24-7.67-12.17-12.12-17.31-13.3-14.17-3.26-28.52-.64-42.86-.77-1.44 4.91-2.46 9.9-4.61 14.58-.55 1.19-5.63 9.14-5.27 9.54 18.14 6.21 41.25 20.62 59.76 8.29-2.37-.83-10.6-.57-11.05-3.54-.91-5.95 5.13-3 7.99-2.55 5.05.8 10.42 2.06 10.1-5.21Zm-259.13-2.51c-11.24.65-26.48-1.11-33.86-10.58-.5-.64-1.18-2.89-1.62-3-3.44-.86-10.85 2.37-14.73 2.03.04.63.72.82 1.16 1.1 8.4 5.32 19.61 9.23 28.33 14.36 6.87-1.46 13.76-2.54 20.73-3.41 1.24-.15 3.51.15 4.02-1-1.36-.55-3.25.45-4.02.5Zm106.97 75.83L6.31 387.75v10.04l162.2 84.87v-12.55Zm298.28-60.77c-2.71-2.04-6.77-3.41-10.06-4.75-12.68-5.15-25.5-10.35-38.37-14.84l-95.81 17.72c-3.2 2.25-3.38 4.99-7.26 7.31-10.83 6.48-25.03 4.2-36.62 1.15-48.16 9.58-97.35 16.13-145.33 26.81-.92.2-3.06.42-3.51 1.26 14.58 6.44 28.11 15.33 42.93 21.1h5.01c96.26-18.94 192.63-37.38 289.01-55.75Zm-334.44 3.02c-1.57-1.69-4.07-2.49-5.98-3.81-6.57-4.52-10.91-10.2-15.42-16.66L50.5 402.82l32.93 17.05c16.42-1.74 32.54-5.68 48.92-7.52m-63.78-19.08h-2.51v.49h2.51zm198.36 18.57c-.05-.75-.78-.77-1.25-1.01-2.6-1.34-10.81-5.12-13.3-5.79-.58-.15-1.12-.37-1.74-.25-4.94 4.13-9.32 8.97-14.84 12.56l31.13-5.52Zm207.9 2.02-299.79 57.75v12.55l299.79-59.51v-10.8Zm-282.22 11.05c-15.18.56-30.11-1.89-44.69-5.78-2.56-.68-5.22-2.27-7.79-2.3-15.15 2.84-30.59 4.53-45.69 7.59-.69.14-1.47-.49-1.27.73l27.34 13.74c23.16-4.68 46.47-8.63 69.66-13.15.66-.13 2.43-.06 2.42-.83Z" style="fill:#aa463c"/><path d="M62.43 265.84c1.8-.47 3.67-.04 3.68 2.13 0 2.31-3.73 5.98-4.33 9.28-2.65 14.41 13.95 18.39 4.19 34.82-1.1 1.86-6.11 8.35-8.19 4.88-1.75-2.92 2.15-7.19 3.16-9.91 3.03-8.21-2.93-11.01-5.65-17.72-2.12-5.23-2.29-9.77.05-15 .89-1.99 5.12-7.96 7.1-8.47Z" style="fill:#aa463c"/><path d="M122.93 106.15c1.45-1.72 8.32.02 10.41.65 10.13 3.05 19.3 11.55 24.84 20.36 2.03 3.22 2.27 7.96 6.96 6.88 1.5-.34 8.66-7.76 10.16-9.43 4.06-4.51 7.53-9.6 11.3-14.35 32.12 2.79 68.77-9.13 84.61-38.88 4.91 6.04 10.37 11.75 16.06 17.08 15.97 14.98 24.19 16.69 22.88 41.94-2.97 57.1-40.55 105.87-101.64 78-15.99-7.29-33.81-21.18-41.59-37.25-1-2.07-2.78-8.61-4.15-9.41-1.8-1.07-10.25-.23-14.12-1.45-16.67-5.28-25.9-25.67-26.87-41.93-.14-2.38-.22-10.59 1.15-12.21m115.73 16.81c2.66-3.26-1.93-5.97-4.51-6.99-7.57-3-25.97-1.41-30.72 6.16-2.33 3.71.23 7.32 4.6 5.1 7.93-4.04 12-7.03 21.77-4.9 2.61.57 6.68 3.32 8.86.64Zm45.74-6.74c-3.55.35-11.27 1.73-10.45 6.61.76 4.48 6.28 1.1 8.53.52 3.78-.98 7.27-.98 10.9.68 2.32 1.06 7.34 7.76 9.44 3.09 1.66-3.7-3.24-7.55-6.1-8.94-4.06-1.97-7.85-2.4-12.32-1.95Zm-73.85 30.08c-1.92.57-2.11 2.96-1.84 4.64.75 4.66 10.26 7.35 14.28 7.35s15.58-3.89 13.06-9.08c-1.6-3.28-6.1.26-8.25.79s-6.37.64-8.58-.02c-2.74-.81-5.79-4.54-8.66-3.68Zm66.75 1.03c-3.17.33-3.18 3.94-1.33 6.16 2.77 3.32 8.99 4.66 13.09 4.03 3.61-.55 11.33-4.17 9.25-8.8-1.74-3.89-6.05.81-8.5 1.52-6.91 1.99-9.76-3.2-12.51-2.91m-16.55 10.01c-.71.22-1.43 1.22-1.64 1.9-1.6 5.23 7.19 9.17 4.25 13.78-2.08 3.27-12.71.83-9.43 6.52s18.34-.82 16.9-9.86c-.28-1.79-6.46-11.93-7.76-12.33-.69-.22-1.62-.21-2.31 0Zm3.55 33.17c-1.67-1.67-6.48.59-8.73.82-3.86.4-7.76-.24-11.37-1.56-2.5-.91-10.15-6.94-10.45-1.65s11.06 9.39 15.37 9.79c3.09.28 14.05-.4 15.56-3.5.46-.94.35-3.18-.37-3.9Zm202.49 218.82c-96.37 18.37-192.74 36.8-289.01 55.74h-5.01c-14.82-5.76-28.35-14.65-42.93-21.09.44-.83 2.58-1.05 3.51-1.26 47.98-10.68 97.17-17.23 145.33-26.81 11.58 3.05 25.78 5.33 36.62-1.15 3.88-2.32 4.06-5.05 7.26-7.31l95.81-17.72c12.88 4.49 25.69 9.69 38.37 14.84 3.29 1.34 7.35 2.71 10.06 4.75Z" style="fill:#f2e8d5"/><path d="M163.95 203.48c9.17 18.79 24 33.94 37.69 49.44l21.09 20.56-4.26 4.27-15.57-19.57c-7.48-5.26-16.43 1.09-14.07 10.06.33 1.25 1.78 2.85 2.58 3.95 4.57 6.34 9.94 12.22 14.75 18.38-4.49 2.79-9.01 5.55-12.87 9.21-6.38-2.51-12.52-5.84-19.21-7.5.7-8.11 2.35-16.19 2.96-24.31.29-3.88.72-8.75.53-12.57-.12-2.46-.48-9.52-3.27-9.81-4.46-.47-2.78 3.33-2.75 5.79.15 13.1-1.08 25.57-3.56 38.42-.61.53-12.24-3.25-14.8-3.04-2.16.18-3.66 2.46-2.29 4.35.88 1.22 11.09 3.35 13.48 4.09 4.46 1.4 8.96 2.87 13.17 4.9-14.8 15.91-23.48 37-28.37 58-17-9.94-31.5-23.97-35.26-44.08-3.75-20.08 4.09-52.04 12.32-70.74 7.86-17.88 18.6-33.11 37.71-39.8" style="fill:#acd1f2"/><path d="M119.3 342.05c.7-.16.82.1 1.26.49 1.89 1.66 4.11 4.81 6.26 6.8 6.18 5.71 23.58 18.96 31.51 20.21 9.66 1.52 20.43-4.36 27.48-10.44 2.15-1.85 6.14-6.96 8.02-8.05.97-.56 1.43-.54 2.51-.49 3.72.18 10.41 1.92 14.25 2.86 11.64 2.86 24.54 7.46 35.07 13.13 1.8.97 10.34 5.85 11.21 6.87 1.25 1.46-.94 7.91-1.62 9.92-7.38 21.85-23.65 33.4-46.34 35.52-28.98 2.71-76.8-2.04-92.4-30.62-8.04-14.72-3.98-31.85 2.78-46.21Zm212.91-67.8c-12.34 1.96-25.25 1.59-37.16 5.53 2.78-8.57 4.09-17.83 3.51-26.86-.15-2.34-1.13-12.03-3.36-12.72-6.2-1.9-2.83 9.43-2.67 12.72.48 9.4-1.07 20.49-5.09 29.05-.96 2.04-5.33 9.9-6.63 11.2-2.93 2.95-19.08 5.97-23.75 6.63-3.07.43-11.91 1.71-14.39.97-1.34-.4-3.15-3.67-4.91-4.2l.29-1.21c19.23-20.7 33.69-45.3 39.18-73.31.54-2.75.56-7.46 1.36-9.68.65-1.81 5.29-4.26 6.73-5.84 15.1 8.21 22.69 21.62 30.57 36.09 5.66 10.4 10.94 21.09 16.31 31.64Zm-93.04 59.91c.81 1.93 5.69 5.62 6.11 7.23.24.9-1.33 3.34-1.34 4.91-.07 6.06 6.37 9.29 11.7 9.34 11.96.1 29.66-3.17 42.12-4.62 16.57-1.94 34.92-3.62 51.2-6.55 3.88-.7 6.36-1.12 9.76-3.27.52-.33.67-1.17.91-1.19 3.45-.36 7.74 10.95 8.12 13.97 1.84 14.5-3.03 25.34-14.48 33.98-7.9 5.96-16.95 9.24-26.57 11.34-1.13-4.19 2.76-5.75 3.39-9.41 1.87-10.8-10.89-16.33-19.36-18.57-15.89-4.2-32.72-1.88-48.95-1.77-18.33-12.84-39.58-20.68-61.63-24.49-.06-.59 1.63-1.18 2-1.27 3.29-.73 6.4 2.65 10.04 3.08 2.3.27 4.44-.49 6.28-1.81 1.3-.93 3.14-3.86 3.79-4.25 1.76-1.05 5.18-.49 7.98-2.56s1.76-4.6 6.34-4.75c.9-.03 1.87.08 2.59.67Zm235.66 79.7v10.79l-299.8 59.51v-12.55zm-389.18-69.8v33.9c0 .8-2.66 4.33-3.5 5.03-8.99 7.41-37.82 7.37-46.96.24-.87-.68-3.77-3.88-3.77-4.77v-34.4c2.66 1.43 5.49 2.63 8.43 3.37 10.75 2.7 25.57 2.54 36.35 0 3.45-.81 6.24-1.99 9.45-3.36Z" style="fill:#acd1f2"/><path d="M320.67 396.78c.32 7.27-5.05 6.01-10.1 5.21-2.86-.45-8.9-3.4-7.99 2.55.46 2.97 8.68 2.71 11.05 3.54-18.51 12.33-41.61-2.08-59.76-8.29-.37-.4 4.72-8.35 5.27-9.54 2.15-4.68 3.17-9.67 4.61-14.58 14.34.13 28.69-2.49 42.86.77 5.13 1.18 20.55 5.64 17.31 13.3-1.1 2.61-7.47 1.24-10 .98-.83-.08-1.48-.76-2.1-.82-2.87-.29-5.26.77-4.12 4.04.76 2.18 10.73 3.15 12.98 2.84Z" style="fill:#f2e8d5"/><path d="M168.51 470.1v12.56L6.31 397.79v-10.04z" style="fill:#acd1f2"/><path d="M212.32 314.55c-.9.89-.74 2.96.15 3.88 3.48 2.01 7.09 3.78 10.22 6.35 2.47 2.02 8.26 6.74 3.77 9.69s-13.63-8.16-18.5-7.49c-2.92.4-2.96 3.65-.44 5.45 1.29.92 8.76 4.52 9.15 5.17.43.73-1.05 3.12-1.78 3.38-3.89 1.35-7.51-3.66-10.96-3.96s-6.44 1.96-9.67 2.4c-5.55.76-11.88-.94-17.19-2.39 5.72-14.13 15.24-31.29 28.66-39.37 11.03-6.65 22.06-2.27 31.1 5.48 2.34 2.01 8.79 8.18 7.27 11.31-2.13 4.4-7.45-2.4-9.55-4.01-3.41-2.6-14.39-10.17-18.46-8.96-1.71.51-1.87 3.27-.64 4.46s7.23 3.55 9.28 4.78c2.69 1.62 11.84 7.9 12.49 10.61.46 1.89.42 8.59-2.89 6.95-1.21-.6-4.77-4.98-6.3-6.29-2.5-2.13-10.11-7.77-13.1-8.03-.75-.06-2.05.07-2.58.61Zm-79.97 97.8c-16.38 1.84-32.5 5.78-48.92 7.52L50.5 402.82l60.45-10.94c4.5 6.47 8.85 12.14 15.42 16.66 1.91 1.31 4.41 2.11 5.98 3.81" style="fill:#f2e8d5"/><path d="M225.82 268.16c-.09-.05-.51-1.22-1.03-1.71-17.27-16.03-35.33-34.36-48.36-54.09-1.13-1.71-6.81-10.48-6.9-11.69-.06-.76.33-2.08.78-2.7.56-.77 4.23-3.39 5.23-3.82 3.31 3.65 8.85 6.61 12.06 10.04 3.39 3.62 6.72 9.46 10.04 13.56 11.13 13.76 24.14 26.72 36.92 38.95.4.54.2.92-.01 1.46-.35.89-7.03 9.79-7.62 10.01-.34.13-.78.18-1.11 0Zm47.13-52.66c-5.08 28.94-20 54.72-39.38 76.36-4.07 2.98-9.87-6.01-11.11-9.08 16.57-17.49 29.06-38.75 36.54-61.65l13.94-5.63Z" style="fill:#acd1f2"/><path d="M192.61 424.91c0 .77-1.77.7-2.42.83-23.19 4.52-46.5 8.47-69.66 13.15l-27.34-13.74c-.21-1.22.58-.59 1.27-.73 15.1-3.07 30.54-4.75 45.69-7.59 2.56.03 5.23 1.62 7.79 2.3 14.58 3.89 29.51 6.34 44.69 5.78Z" style="fill:#f2e8d5"/><path d="M262.42 339.54c.1-2.87-3.03-5.61-1.44-8.21 10.34-12.32 18.72-27.59 29.07-39.73 6.84-8.02 11.91-7.95 21.89-9.24 26.15-3.39 52.65-4.57 78.79-8.1 4.74-.65 8.49 5.02 1.94 5.97-26.3 3.83-53.8 4.98-80.29 8.1-3.21.38-8.53.66-11.3 1.76s-5.58 5.17-7.51 7.55c-10.9 13.36-19.94 28.72-31.15 41.91Z" style="fill:#acd1f2"/><path d="M252.37 222.54c-3.23 8.82-7.45 17.23-11.96 25.44-.8.5-1.26 3.36-2.35 3.19-1.78-.27-21.87-21.99-24.61-25.12-3.55-4.04-7.09-8.29-10.29-12.56 15.52 7.23 31.95 11.47 49.21 9.04Zm156.17 162.2c.87.8-.12.86-.76.98l-54.98 10.06c8.5-6.22 16.95-14.01 19.59-24.6z" style="fill:#f2e8d5"/><path d="M160.97 363.14c-4.58-.23-5.29-2.07-5.03-6.3.72-11.71 16.54-45.23 25.89-52.44 1.59-1.22 2.13-1.84 4.26-1.29.68.17 2.58 1.09 2.45 1.95-.09.61-6.14 8.28-7.19 9.92-9.18 14.4-15.41 31.89-20.38 48.17Zm-81.35-23.1c-7.32-3.29-17.34-3.92-25.38-3.54-5.47.26-12.47 1.07-17.3 3.54-2.05-.84-4.49-1.13-6-3.32-.14-.66 1.48-2.03 2.02-2.42 8.44-6.16 42.08-6.53 50.65-.5 5.23 3.68-1.11 5.09-3.98 6.24Z" style="fill:#acd1f2"/><path d="M106.24 367.66v9.79c0 1.53 2.86 8.49 2.51 8.79l-29.13 4.77c8.94-3.91 13.5-11.46 12.05-21.34z" style="fill:#f2e8d5"/><path d="m274.46 302.88-18.07 23.59c-.25-2.64-6.55-7.13-6.96-8.88-.19-.82.61-3.57.38-5.38-.26-1.99-1.6-3.43-1.96-5.31 9.05.15 17.83-2.29 26.61-4.01Z" style="fill:#acd1f2"/><path d="M61.54 394.78c-6.97.87-13.86 1.96-20.73 3.41-8.71-5.14-19.92-9.05-28.33-14.36-.44-.28-1.12-.47-1.16-1.1 3.88.34 11.29-2.89 14.73-2.03.45.11 1.12 2.36 1.62 3 7.38 9.46 22.62 11.23 33.86 10.58v.5Z" style="fill:#f2e8d5"/><path d="M79.62 340.04c-12.21 4.89-30.52 4.97-42.68 0 4.83-2.47 11.83-3.28 17.3-3.54 8.04-.38 18.07.25 25.38 3.54" style="fill:#aa463c"/><path d="M190.6 345.57c-1.82 3.35-20.38 19.05-23.1 16.56l6.58-19.02 16.51 2.46Zm28.63-56.76c-1.93-.29-5.82.63-7.32-.46-4.49-6.81-11.12-12.86-15.7-19.46-3.04-4.38-2.5-7.55 3.4-5.41l19.61 25.33Z" style="fill:#acd1f2"/><path d="m266.93 411.84-31.13 5.52c5.52-3.6 9.9-8.44 14.84-12.56.62-.12 1.16.09 1.74.25 2.5.66 10.7 4.45 13.3 5.79.47.24 1.19.26 1.25 1.01Zm105.36-105.3c2.84-.25 12.08-1.04 13.4 1.87 1.94 4.27-3.55 5.27-6.53 5.51-2.52.2-13.37-.13-14.21-2.85-1.28-4.19 4.4-4.26 7.34-4.52Zm9.64 12.91c-.21 4.73-6.97 5.71-10.82 5.55s-16.86-2.64-12.28-8.31c2.14-2.65 2.42-.44 4.17.36s6.47 2.41 8.14 2.41h10.8Z" style="fill:#f2e8d5"/><path d="M256.38 339.03c-7.4 1.03-8.92-5.46-13.32-9.56.03-2.89 1.27-5.56.78-8.52 2.21 1.28 14.12 16.62 12.55 18.08Z" style="fill:#acd1f2"/><path d="M373.89 330.5c-2.99 4.75-11.51 4.37-15.91 2.09-3.47-1.8-4.88-3.75-2.92-7.62 5.19 4.27 12.2 5.93 18.83 5.53" style="fill:#f2e8d5"/><path d="M258.39 344.56c-.87.8-3.11 4.75-3.84 4.96-2.97.88-5.09-4.22-2.86-4.93 1.04-.33 4.86 1.12 6.71-.03Z" style="fill:#acd1f2"/><path d="M61.54 394.27c.77-.04 2.66-1.04 4.02-.5-.5 1.15-2.78.85-4.02 1zm4.53-1h2.51v.49h-2.51z" style="fill:#63b3f1"/><path d="M238.66 122.96c-2.18 2.68-6.25-.07-8.86-.64-9.77-2.13-13.84.86-21.77 4.9-4.37 2.22-6.92-1.39-4.6-5.1 4.75-7.57 23.15-9.16 30.72-6.16 2.58 1.02 7.17 3.73 4.51 6.99Zm-28.11 23.34c2.88-.86 5.92 2.87 8.66 3.68 2.22.65 6.34.57 8.58.02s6.66-4.07 8.25-.79c2.53 5.19-9.2 9.08-13.06 9.08s-13.53-2.69-14.28-7.35c-.27-1.68-.08-4.07 1.84-4.64Zm53.75 44.21c.72.72.83 2.96.37 3.9-1.52 3.1-12.47 3.78-15.56 3.5-4.31-.39-15.68-4.42-15.37-9.79s7.96.73 10.45 1.65c3.62 1.32 7.52 1.96 11.37 1.56 2.25-.23 7.06-2.49 8.73-.82Zm-3.55-33.17c.69-.21 1.62-.22 2.31 0 1.3.41 7.48 10.55 7.76 12.33 1.44 9.05-13.74 15.34-16.9 9.86s7.35-3.25 9.43-6.52c2.94-4.61-5.85-8.55-4.25-13.78.21-.68.93-1.68 1.64-1.9Zm23.65-41.12c4.47-.44 8.26-.02 12.32 1.95 2.86 1.39 7.77 5.24 6.1 8.94-2.1 4.67-7.12-2.03-9.44-3.09-3.62-1.66-7.11-1.66-10.9-.68-2.25.59-7.77 3.96-8.53-.52-.83-4.87 6.9-6.25 10.45-6.61Zm-7.1 31.11c2.75-.29 5.6 4.9 12.51 2.91 2.45-.71 6.76-5.41 8.5-1.52 2.07 4.63-5.65 8.25-9.25 8.8-4.1.63-10.32-.71-13.09-4.03-1.85-2.22-1.83-5.83 1.33-6.16" style="fill:#aa463c"/></svg>