<?xml version="1.0" encoding="UTF-8"?>
<svg id="Capa_1" data-name="Capa 1" xmlns="http://www.w3.org/2000/svg" viewBox="0 0 15.23 14.25">
  <defs>
    <style>
      .cls-1 {
        fill: #1c8bdf;
      }

      .cls-2 {
        fill: #fbfcfd;
      }

      .cls-3 {
        fill: #1e8de0;
      }

      .cls-4 {
        fill: #1379d9;
      }

      .cls-5 {
        fill: #147edd;
      }

      .cls-6 {
        fill: #2893e3;
      }

      .cls-7 {
        fill: #fbfdfd;
      }

      .cls-8 {
        fill: #3da5f2;
      }

      .cls-9 {
        fill: #1a8ade;
      }

      .cls-10 {
        fill: #1b89de;
      }

      .cls-11 {
        fill: #fafcfd;
      }

      .cls-12 {
        fill: #3ea6f3;
      }

      .cls-13 {
        fill: #f9fbfd;
      }

      .cls-14 {
        fill: #f8f7f9;
      }

      .cls-15 {
        fill: #3da6f3;
      }

      .cls-16 {
        fill: #f9f8f9;
      }

      .cls-17 {
        fill: #3da5f3;
      }

      .cls-18 {
        fill: #0d74d7;
      }

      .cls-19 {
        fill: #1c8cdf;
      }

      .cls-20 {
        fill: #0971d7;
      }

      .cls-21 {
        fill: #1177d8;
      }

      .cls-22 {
        fill: #1075d7;
      }

      .cls-23 {
        fill: #fcfdfd;
      }

      .cls-24 {
        fill: #fdfdfd;
      }

      .cls-25 {
        fill: #1f8de0;
      }
    </style>
  </defs>
  <path class="cls-9" d="M6.51.28c.38-.31,1-.35,1.39-.05h.04s.03.03.03.03l.03.03s.03.03.05.05c.02.06.06.12.1.17.09.25.1.52-.02.77,0,0-.01.01-.02.02h-.03s0,.03,0,.03c.54.15,1.03.42,1.37.88.04.06.07.13.11.18.01.02.02.01.03.01.08,0,.04-.02.06-.04.11-.14.3-.27.48-.28.2,0,.07.16.04.24-.06.19-.05.28-.02.47,0,.19.03.36-.04.55-.02.06-.09.11-.1.18,0,0-.01.01-.02.02l-.03.03s-.04.02-.05.03c-.03.02-.05.05-.08.05l.03.02s0,.02,0,.03c-.02.08,0,.08,0,.13v.34c0,.09-.09.27-.11.36,0,.03-.02.07,0,.09-.08.29-.14.5-.31.75-.06.09-.29.32-.3.39,0,0-.02,0,0,.02.23.28.44.59.6.91.03.06.04.19.12.21,0,0,.02.08,0,.12,0,.02-.09.06-.06.12.04.06.04-.05.1-.03,0,0,.06.1.13.09,0,0,0,.02,0,.03-.08,0-.08.05-.03.1,0,.01,0,.02,0,.03,0,0,0,.01,0,.02-.02.02-.03.03-.04.06-.05.18-.1.35-.15.54l-.09-.03.03-.11h-.05s0,.05,0,.05c-.04,0-.02-.02-.03-.04s-.05-.01-.05-.01c-.03.03.03.06.03.06.03.13-.08.04-.08.12l.17.03c.02.06-.05.02-.05.04-.02.08.06.01.05.08l-.02.13c-.09.3-.17.61-.25.91-.07.26-.25.69-.27.95,0,.02,0,.05,0,.07.04.01.08.03.12.03.22,0,.49-.08.7-.12.67-.1,1.35-.2,2.01-.31.21-.03.54-.05.72-.11.03-.01.07-.03.09-.06.1-.11.21-.69.26-.87.09-.31.19-.62.27-.94.08,0,.07.02.09.06,0,0,.03,0,.03.02,0,.04-.06.07.05.06,0,0,0,.02,0,.03v.02c-.13.49-.25,1-.4,1.48-.03.09-.07.24-.14.31-.12.12-.37.12-.54.15-.24.04-.49.08-.74.12-.02,0,0,.03-.01.03s-.03,0-.03.01c.03.07-.06.28,0,.31l2.12.71s.01,0,.02,0c.02.02.06.04.09.05.41.16.83.27,1.24.43l.02.09-.02.55c-.07.09-.16.09-.27.12-.02-.03-.06-.02-.09-.01-.49.07-1.05.2-1.54.3-.69.14-1.39.26-2.08.42-.03,0-.06,0-.05.04,0,0-.01,0-.02,0,0,0,0-.02-.03-.02l-1.64.34c-.29.05-.58.12-.87.17-.14.03-.29.06-.43.09-.63.12-1.27.26-1.91.37-.13.02-.38.09-.5.07-.06,0-.25-.11-.31-.14-.28-.13-.56-.26-.83-.39-.12-.06-.24-.13-.36-.19-.41-.2-.8-.41-1.22-.6-.14-.08-.28-.14-.42-.21-.02,0-.05-.05-.07,0-.82-.39-1.64-.78-2.45-1.18-.02-.02-.04-.05-.05-.07v-.49s.05.05.06.05c.08.01.21-.1.29-.1.06,0,.04.06.09.05v-.07s.05,0,.05,0c0-.05.02-.06.05-.1.04,0,.04.05.04.09,0,0,0,.01,0,.02,0,0,0,.02,0,.03l.69.32s.16-.05.19-.06v.02l.02.14h-.05s.02.05.02.05h0s0,0,0,0c.05,0,.13-.05.16-.05.02,0,0,.03,0,.03-.17.06-.4.09-.29.32,0,0-.02,0,0,.03.11.12.4.22.56.25,0,0,.01,0,.02,0,.22.08.49.1.72.09.04,0,.06-.02.09-.02.31-.02.69-.08.95-.27.01,0,.11-.1.12-.11.03-.05,0-.08-.03-.12-.09-.14-.3-.19-.45-.22h-.02c-.02.07-.05.11-.09.15l.09-.19.07.02-.02-.07.09-.05.03.09-.05.04h.08s.07-.17.07-.17c.02,0,.08.02.1.03.13.05.25.15.32.27l.55-.12s-.11-.13-.13-.15c-.09-.1-.05-.15-.21-.14l.08-.02s-.03-.05-.03-.07c0,0,0-.01,0-.02,0,0-.02-.01-.02-.02,0-.01,0-.04,0-.05-.14.05-.34-.06-.43-.18-.09-.12-.11-.32-.15-.47.02,0,.08,0,.09,0,0,0,0,.03,0,.03h.04s0-.03,0-.03h-.05s0-.07,0-.07l-.14.02v-.03c.07-.04.11-.14.21-.12v-.05s-.08.03-.08.03l-.03-.05c.07.02.07-.05.14-.03v-.14s-.07,0-.07,0l.02-.08h-.08s.01-.15-.05-.14c.01-.21.03-.36.02-.58-.03-.48-.05-.9.05-1.38.05-.24.14-.47.23-.69,0-.02.03-.06,0-.07.17-.39.42-.79.71-1.11.09-.09.18-.17.27-.25.01-.01.04-.03,0-.03-.03-.02-.24-.03-.31-.04-.1-.02-.2-.08-.29-.11,0,0-.01-.01-.02-.02-.1-.1-.23-.26-.2-.41.03-.02.07,0,.07-.05h.02s.06.04.09.03c.01,0,.01-.03.02-.03.06-.01.12,0,.19-.03.02,0,.11-.03.1-.06,0-.01-.11-.18-.12-.19-.04-.03-.15-.07-.2-.1-.17-.11-.29-.23-.39-.4l-.13-.39c0-.09-.03-.18,0-.26.03-.07.24,0,.3.02.02,0,.03.01.04-.01,0,0,0-.01,0-.02.05,0,.03-.02.03-.05-.03-.21-.04-.6-.13-.76-.11-.21-.37-.4.1-.41l.03.02s.01,0,.02,0c.17.05.32.12.48.2.02.01.02.03.03.03,0,.05.01.03.03.03,0,0,0,.02,0,.03l.06.02.24-.36s.05-.05.09-.09l.43-.31c.26-.12.52-.24.8-.3.02,0,0-.02.01-.03,0-.02,0,0,0-.03-.02-.07-.07-.14-.09-.22-.07-.25-.04-.46.09-.68l.14-.15ZM7.12.27c-.34.04-.7.39-.58.75.06.18.11.07.21.02.28-.13.61-.17.91-.09l.24.12c.16-.3-.05-.62-.33-.75-.15-.07-.3-.08-.46-.06ZM7.78,1.27c0-.08-.1-.13-.17-.15-.2-.07-.49-.04-.68.04-.06.02-.16.06-.15.14.14,0,.28-.05.42-.06.2-.01.39.02.59.03ZM7.34,1.53s-.21,0-.24.01c-.13.04-.04.36,0,.45.09.18.51.63.73.52.03-.01.13-.22.15-.26.25-.58-.15-.73-.65-.73ZM6.85,1.57c-.62.09-1.26.32-1.68.81-.04.04-.18.22-.16.26.05.1.38.29.49.32.29.1.25-.03.4-.21.38-.48.85-.41,1.39-.3-.24-.24-.49-.52-.44-.88ZM8.09,2.46c.16-.02.31-.11.47-.12.27-.02.49.09.7.25.02.02.12.14.14.07s-.28-.45-.35-.52c-.18-.17-.65-.45-.89-.49-.01,0-.04,0-.04,0,.18.25.1.56-.03.81ZM5.57,3.26c-.27-.05-.51-.17-.71-.35-.17-.15-.29-.38-.53-.45.09.31-.03.9.27,1.1.15.1.2.03.36.05.09.01.21.11.27.09.07-.02.37-.39.34-.44ZM9.72,3.44s.09-.06.1-.08c.17-.24.04-.57.05-.84-.11.13-.25.25-.34.4l.18.52ZM9.04,2.76s-.04-.05-.06-.07c-.4-.24-.66,0-1.04.1-.03,0-.06-.01-.05.04-.08.01-.14,0-.22,0-.01-.04-.05-.03-.07-.04-.18-.04-.35-.08-.52-.1,0,0-.01,0-.02,0,.01-.05-.02-.03-.05-.04-.26-.05-.59-.06-.78.16,0,0-.01.01-.02.02,0,0-.02,0-.03,0l.02.02c-.2.19-.29.47-.44.7-.14.22-.32.36-.52.52-.02,0-.15-.12-.17-.15,0,0,.03,0-.02-.04-.26-.16-.35.11-.34.34.02.3.29.54.6.5.05.19.16.41.28.56.02.02.03.03.06.04l.03.03s.02.02.03.03c.02.02.03.03.05.05.02.05.05.08.1.09,0,0,.01.01.02.02.05.05.1.08.15.12.36.24.69.34,1.12.39,0,0,0,.02.02.02.05,0,.1,0,.15,0,.56.04,1.03-.07,1.48-.41.04-.03.07-.08.12-.09l.05-.05s.02-.02.03-.03c0,0,.01-.01.02-.02s.01-.01.02-.02c.03,0,.07-.04.09-.07.02-.03.04-.05.05-.09,0,0,.01-.01.02-.02.2-.18.34-.66.36-.94.03-.45-.06-1-.32-1.35,0,0-.01-.01-.02-.02h.02c-.03-.06-.07-.08-.1-.12,0,0-.01-.01-.02-.02s-.01-.01-.02-.02-.01-.01-.02-.02-.01-.01-.02-.02-.01-.01-.02-.02ZM4.52,3.81c-.07-.02-.14-.11-.2-.13-.07-.03-.19-.03-.26-.06.06.23.21.42.4.56l.06-.37ZM5.16,5.09c-.04-.13-.13-.2-.27-.2-.09,0-.25.15-.36.14-.03.03.07.07.09.08.18.08.37.07.54,0ZM3.91,9.69v.45c0,.11.1.38.2.45.31.2.62-.27.74-.5.21-.38.31-.79.56-1.16.14-.22.32-.4.51-.58.01-.01.03-.02.05-.02,0-.03-.02-.04-.04-.05-.24-.14-.6-.21-.82-.35-.06-.04-.15-.12-.09-.2.09-.11.59.14.61.11-.04-.19-.1-.38-.15-.58-.02-.1-.12-.53-.06-.59.02-.02.07-.03.09-.02l.06.1.34,1.21.53.22c.08-.04.55-.49.54-.53-.49-.46-.94-.97-1.33-1.53l-.36-.59c-.74.62-1.29,1.59-1.37,2.56-.05.67.05,1.03.23,1.65.03.1.12.36-.07.24l-.18-.29ZM7.24,7.26s.02,0,0-.03c-.01-.02-.08-.07-.1-.08-.02-.02-.03-.03-.05-.05,0,0-.01-.01-.02-.02-.03-.03-.06-.06-.09-.09-.03-.03-.07-.07-.1-.1-.06-.06-.13-.12-.2-.19-.19-.2-.39-.51-.58-.68-.1-.09-.24-.15-.35-.22-.02-.01-.02-.04-.04-.05.37.65.88,1.2,1.43,1.7l.13-.14s-.02-.04-.03-.06ZM9.62,7.75c.02-.15.11-.34.12-.48,0-.16-.3-.69-.39-.84-.11-.17-.23-.34-.35-.5h-.02c-.05.03-.16.07-.2.12-.06.09-.14.37-.2.49-.25.54-.55,1.05-.95,1.5l-.4.38c.12.07.17.15.32.15.24,0,.51-.05.74-.09.22-.03.44-.08.66-.13.09-.51,0-1.03-.08-1.54.03-.13.12-.11.18-.02.12.18.17.81.17,1.04,0,.07-.01.16-.02.23l.24-.21.18-.1ZM7.38,7.97c.14-.16.28-.35.41-.52.28-.4.5-.84.7-1.28-.01,0-.24.07-.26.09-.04.04-.18.36-.23.44-.33.57-.72,1.11-1.19,1.56-.01.01-.03.02-.05.02v.03s.23.02.23.02c.04,0,.08-.08.12-.1.02-.01.04-.01.04-.02.06-.05.09-.09.14-.14.01-.01.03-.02.03-.03.02-.02.04-.04.07-.07ZM6.78,6.23s0,.03,0,.03c0,.03.02.06.05.05,0,0,.02.02.03.03.02.05.06.1.09.14.03.04.08.1.13.12,0,0,.01.01.02.02.03.07.1.14.16.19.04.04.15.14.2.15,0,0,.01,0,.02,0,.02,0,.02,0,.03-.01.05-.07.09-.18.13-.26.07-.13.15-.24.21-.38,0,0,0-.01,0-.02,0,0,.03,0,.02-.03-.21.02-.43.03-.64.02-.14-.01-.27-.06-.41-.07-.02,0-.03-.01-.04.02ZM9.15,8.96s0,.02,0,.03c.02.01.18-.02.19-.07l.23-.82s-.02-.01-.03,0c-.03,0-.17.16-.19.19-.18.22-.21.4-.2.68ZM5.78,9.33s.03.01.03-.01v-.13s.1,0,.1,0c0,0,.01.01.02.02,0,.05.06.07.09.1,0,0,.01.01.02.02,0,0,0,.02,0,.03.02.02.15.08.18.08.15.04.2,0,.32-.01.16-.01.13.13.23.21.07.06.23.1.29.01,0-.09-.06-.15-.12-.21,0,0-.01-.01-.02-.02,0-.04-.02-.04-.05-.05-.02-.02-.04-.04-.07-.07-.03-.03-.04-.08-.1-.1-.01-.02-.05-.02-.05-.06.04-.27.41.08.48.17.06.08.08.21.12.27s.2,0,.26,0c-.05-.1-.12-.19-.19-.27h.02s-.07-.07-.1-.1c-.05-.05-.11-.09-.15-.15-.03-.05-.08-.09-.07-.15.1-.05.18.03.27.07.02.01.02.02.03.03.01,0,.02.02.03.03.09.09.2.22.28.32.06.08.06.18.16.14.07-.03.08-.07.05-.14-.05-.13-.33-.4-.45-.51,0,0-.02-.02-.03-.03,0,0-.01-.01-.02-.02-.21-.21-.5-.34-.81-.27l-.14-.02c-.06-.04-.1-.11-.18-.07-.04.02-.19.14-.23.18-.2.19-.35.44-.49.68,0,.02.18.04.21.04.04,0,.04,0,.08-.02ZM8.91,8.6c-.41.09-.82.19-1.24.2l.32.35.9-.13s.03-.04.03-.04v-.38ZM9.21,9.21s-.07-.02-.09-.02c-.35.03-.69.14-1.05.14,0,.01,0,.02,0,.03,0,.03.02.06.02.09,0,.1-.05.15-.12.21,0,.03.1.02.13.02.23-.02.53-.07.76-.1.09-.01.17-.03.26-.05.02,0,0-.03.01-.03,0,0,.01-.02.02-.03.02-.03.07-.11.03-.14.01-.04.03-.08.03-.12ZM6.66,9.82c-.09,0-.13-.15-.18-.17-.06-.02-.19,0-.27,0-.09-.01-.21-.09-.28-.07-.42.13-.8.84-1.14,1.12-.07.05-.16.08-.2.15,0,.03.27.3.32.34.62.53,2,.73,2.77.56.35-.08.52-.23.7-.52.05-.08.32-.6.28-.64-.58-.18-1.16-.36-1.75-.5-.08-.02-.3-.04-.35-.07s-.05-.14.01-.16c.04-.01.1.02.09-.04ZM9.04,9.74s-.06-.01-.08,0c-.08.01-.18.03-.25.05-.04.01-.02,0,0,.02,0,0,.01.01.02.02,0,0-.01.02.02.04.02.01.26.07.27.06.02-.03.08-.17.04-.19h-.02ZM8.91,10.35s.09-.22.06-.24l-1.31-.37c-.07,0-.12.03-.19.05-.09.02-.18,0-.27,0-.03.01-.01.04-.01.05,0,.01,0,.02,0,.03.27.1.56.17.83.24.21.07.42.14.63.19,0,0,.01,0,.02,0,.04.03.1.04.15.05,0,0,.01.02.03.02.01,0,.02-.02.03-.02.01,0,.03,0,.03,0ZM11.46,10.2l-2.03.32c-.08.02.01.04.03.05.24.16.46.37.45.68.32,0,.65-.02.94-.16.35-.16.61-.5.61-.9ZM3.84,10.27s0-.02-.02-.02-.02,0-.02.02,0,.02.02.02.02,0,.02-.02ZM8.86,10.91c-.05-.03-.02,0-.04.02-.08.17-.15.37-.29.5,0,.06.1.1.15.11.22.07.61.2.82.11.22-.1,0-.12.02-.28.05-.02.11.05.14.02.02-.03,0-.15,0-.19-.06-.3-.43-.51-.71-.55-.01,0-.07.23-.09.27ZM11.61,10.71c-.06.18-.22.3-.34.44v.02c-.08.02-.14.09-.22.12-.08.02-.1.04-.17.07,0,0-.01.01-.02.02-.06-.03-.15.04-.22.06-.23.06-.46.08-.7.08l-.06.05-.05.14s-.01.01-.02.02c-.02.02-.02.02-.03.03-.02.02-.03.03-.05.05-.06,0-.09.05-.15.06-.25.06-.45.03-.69-.03-.02,0-.06-.03-.08,0-.21-.06-.32-.14-.54-.06-.05.02-.1.07-.15.09l-.21.08c-.38.15-.84.03-1.22.1,0,0,0,0-.02,0-.01,0-.02.01-.03.02,0,0-.01,0-.02,0,0-.06-.03-.03-.06-.03-.09-.01-.14-.02-.23,0v-.02l.02-.03c-.17-.03-.35-.06-.52-.1-.14-.04-.36-.14-.49-.15-.02,0-.04,0-.05,0,0,0-.01,0-.02,0-.03-.03-.06-.05-.1-.05v-.02s0-.02,0-.03-.16-.07-.2-.1c-.08-.05-.22-.18-.31-.18-.02-.05-.04-.05-.09-.05-.16,0-.36.09-.52.12l.03.05c-.06.02-.07.11-.03.15-.04.18-.24.26-.37.36-.06.02-.16.04-.17.12.08-.02.17-.02.26-.03-.12.03-.23.07-.36.09,0,.03.01.03.02.03.04.05.06.03.1.05.01,0,.02.01.03.02.09.05.43.24.51.24.02,0,.03.05.05.05.1.02.38-.07.5-.08.01.05-.03.03-.06.04-.1.02-.2.04-.3.07l.12.07c.15.08.45.26.61.26,0,.08.06.07.12.07,0,.04.03.04.05.06.22.12.46.21.7.31.07.02.16-.03.22-.04.26-.04.52-.1.78-.15.19-.04.38-.07.56-.1.27-.05.53-.11.8-.15,0,0-.02-.01-.02-.02,0,0,0-.01,0-.02.37-.07.74-.15,1.11-.22.02.03.06.02.09.01.33-.06.7-.13,1.03-.21.03,0,.06,0,.05-.04,0,0,.01,0,.02,0,.34-.07.71-.12,1.05-.19.41-.08.82-.17,1.22-.26.29-.06.6-.1.88-.19.07-.01.53-.08.54-.12v-.03s-.09-.05-.13-.06c-.16-.06-.51-.21-.67-.24-.04,0-.07,0-.1.01-.05-.05-.08-.05-.14-.07-.02-.03-.05-.05-.09-.06-.15-.07-.49-.19-.65-.18-.01-.03-.12-.07-.15-.07,0-.04-.02-.04-.05-.05-.2-.07-.41-.15-.61-.21l-.03.02ZM.25,11.03v.31l.88.4c-.06-.11-.06-.2-.02-.31l-.87-.39ZM3.6,11.3s0-.02-.02-.02-.02,0-.02.02,0,.02.02.02.02,0,.02-.02ZM14.95,11.8c-2.98.64-5.98,1.21-8.96,1.82-.02.1-.03.2,0,.29,0,.02-.01.03.02.02l8.94-1.77v-.37ZM5.74,13.57c-.97-.42-1.93-.88-2.89-1.34l-.73-.02,3.6,1.73s.02,0,.03-.02c.03-.06-.02-.26,0-.35Z"/>
  <path class="cls-3" d="M3.68,9.54c.06-.01.04.13.05.14h.08s-.02.09-.02.09h.07s0,.14,0,.14c-.07-.02-.07.05-.14.03l.03.05.08-.03v.05c-.1-.02-.15.08-.22.12v.03s.15-.02.15-.02v.07s.05,0,.05,0v.03s-.04,0-.04,0c-.01,0,0-.03,0-.03,0,0-.07,0-.09,0-.04,0-.05.02-.07.02-.04,0-.1,0-.14.02-.02,0,0,.02-.01.03,0,0,0,.01,0,.02-.03.02-.02.06-.02.09,0,.16,0,.32,0,.49-.03,0-.06-.02-.07.02-.01.02-.03.13.04.1,0,.01.01.02.02.03,0,.02,0,.03.02.05,0,0,0,.01,0,.02.02.02.07.04.1.05.03,0,.04-.01.04-.01,0,0,.01,0,.02,0l-.07.17h-.08s.05-.04.05-.04l-.03-.09-.09.05.02.07-.07-.02-.09.19s-.02.02-.03.03c-.03,0-.06.02-.07.05,0,0,0,.01,0,.02l-.07.15s-.02.01-.03.02c-.05,0-.1.03-.15.04-.04.01-.12.03-.16.04-.28.05-.57,0-.82-.13,0,0-.01-.01-.02-.02,0-.07-.03-.05-.05-.07-.02-.02-.08-.05-.09-.07-.02-.05,0-.09,0-.12-.01-.04-.06-.04-.08-.05,0,0,0-.03,0-.03-.03,0-.11.04-.16.05h-.02l-.02-.05h.05s-.02-.14-.02-.14c.02,0,.05,0,.07-.02,0,0,.02,0,.02,0h-.02v-.03s.01-.01.02-.02c.04-.06,0-.1,0-.16,0-.08,0-.17,0-.25l-.02-.02s-.02,0-.03,0c-.02-.03-.06-.01-.09,0-.28.05-.55.13-.83.18,0-.04,0-.08-.04-.09-.03.04-.05.05-.05.1h-.05s0,.07,0,.07c-.05,0-.03-.05-.09-.05-.08,0-.21.11-.29.1-.02,0-.02-.06-.06-.05,0-.01,0-.02,0-.03h.03s0-.03,0-.03H.03c.01-.11.03-.09.09-.17.11,0,.22-.05.32-.07.14-.03.29-.05.44-.08.03,0,.06,0,.05-.04.18-.04.41-.06.58-.11.02,0,.03-.01.05-.03.04-.05.01-.15.02-.21.02-.15.03-.27.16-.35.28-.17.71-.18,1.03-.17,0,0,.01,0,.02,0,0,.02.04.01.05.02l-.1.05.08-.02.04.08.06-.1c.11.03.06.04.17.03.01,0,.02,0,.03,0,0,.06.08.04.11.06,0,0,.08.07.09.07.06.06.06.14.12.16.05.02.08.02.14,0l.07.02s0-.04,0-.05c0-.06.02-.11.02-.17,0,.02.03.1.04.1l.04-.03s-.01-.13-.09-.11c0-.07.01-.15.02-.22ZM2.31,9.86c-.09,0-.21,0-.29.05,0,0-.01,0-.02,0-.07.01-.11.01-.15.09,0,.01-.02.01-.02.04,0,.02.02.02.02.03,0,0,.01.01.02.02s0,.02.02.03c.01,0,.02,0,.03,0,0,0,.01,0,.02,0,.12.07.29-.04.44-.05.12-.01.28,0,.4.02s.33.15.42.01c0,0,.02-.01.01-.03-.01-.04-.08-.05-.06-.12-.02,0-.03.02-.03.02-.02,0-.04-.03-.05-.03h.02s0-.05,0-.05c-.04,0-.07-.03-.09.02-.21-.07-.47-.05-.68-.03ZM3.46,10.1h-.03v.05h.03v-.05ZM3.24,10.35s0-.03,0-.05c-.09,0-.07-.06-.13-.09-.06.06-.06.1.03.14-.51.08-.78.1-1.28-.04-.03,0-.06-.03-.03.02,0,0-.01,0-.02,0-.01,0-.02,0-.03,0,.02.2-.04.56.05.73,0,0,0,.03.02.03,0,0,0,.01,0,.02.12.43.88.43,1.19.2.01-.01.11-.08.11-.09.01-.01,0-.05.02-.07.01-.03.02,0,.03-.06.05-.19.05-.55.03-.75ZM.62,10.62c-.06.01-.1.03-.16.03-.02,0-.05-.02-.04.02.06.09.14,0,.22,0l-.02-.07ZM1.61,11.27c0-.07-.09-.07-.08,0h.08Z"/>
  <path class="cls-25" d="M13.88,6.51c.08.13.04.25.02.39,0,0,0,.01,0,.02-.03.02-.03.05-.04.07-.1.34-.19.69-.29,1.03-.12,0-.05-.02-.05-.06,0,0-.02,0-.03-.02-.03-.04-.01-.06-.09-.06.08-.32.16-.64.24-.96,0-.02,0-.02.02-.07.02-.09.07-.19-.06-.21-.52.07-1.04.11-1.56.16-.55.05-1.11.11-1.66.17-.07-.06-.07,0-.11.02-.07.03-.04-.02-.1.05-.01.02-.03.02-.03.03-.04.05-.05.04-.09.12-.07.02-.12-.08-.13-.09-.06-.01-.06.1-.1.03-.03-.05.05-.1.06-.12.02-.04,0-.12,0-.12,0,0,.02,0,.03,0,.04-.04.04-.05.09-.08.12-.07.23-.08.37-.1.54-.07,1.09-.1,1.62-.15.2-.02.41-.05.61-.07.28-.03.57-.04.85-.06.16-.01.28-.07.42.06Z"/>
  <path class="cls-25" d="M2.48,7.94s0,0-.03.05c-.07.17-.12.35.03.5.01,0,.03,0,.03,0,.02.02.03.03.05.05,0,.06.05.07.07.1.11.19.08.45,0,.65,0,0-.01.01-.02.02,0,0,0,.01,0,.02-.06.04-.11.09-.18.05l-.02-.17s0-.01,0-.02c.04,0,.04-.02.05-.05.06-.16.07-.23-.01-.38-.12-.2-.28-.25-.26-.55,0-.13.13-.46.28-.47.12,0,.03.15,0,.2Z"/>
  <path class="cls-21" d="M13.89,6.92c-.15.92-.55,1.87-.74,2.79-.12.29-.39.29-.65.34v-.03c.16-.03.42-.03.54-.15.06-.07.11-.22.14-.31.15-.48.27-.99.4-1.48,0,0,0-.01,0-.02,0,0,0-.02,0-.03.09-.34.19-.69.29-1.03,0-.03,0-.06.04-.07Z"/>
  <path class="cls-22" d="M12.5,10.01v.03c-.25.04-.5.07-.75.12l-.03.28.02.02,2.08.73-2.12-.71c-.05-.03.03-.25,0-.31,0-.02.03,0,.03-.01s0-.03.01-.03c.25-.04.49-.08.74-.12Z"/>
  <path class="cls-21" d="M13.26,12.73v.03c-.7.14-1.42.3-2.13.43,0-.04.02-.04.05-.04.69-.15,1.39-.28,2.08-.42Z"/>
  <path class="cls-4" d="M11.99,6.56v.02c-.54.05-1.09.08-1.62.15-.14.02-.24.03-.37.1v-.02c.1-.06.12-.08.25-.1.56-.09,1.18-.1,1.74-.16Z"/>
  <path class="cls-22" d="M14.9,12.44c-.53.13-1.1.22-1.63.32v-.03c.5-.1,1.05-.23,1.54-.3.03,0,.07-.02.09.01Z"/>
  <path class="cls-22" d="M3.7,8.96h-.02c-.08-.46-.05-.93.05-1.38h.02c-.1.48-.08.9-.05,1.38Z"/>
  <path class="cls-4" d="M12.6,6.49c.33,0,.73-.11,1.05-.1.09,0,.19.04.25.12h-.02c-.15-.13-.26-.07-.42-.06-.28.02-.57.03-.85.06v-.02Z"/>
  <path class="cls-22" d="M7.94.23h-.04c-.4-.3-1.01-.26-1.39.05v-.02c.38-.34,1.03-.35,1.43-.03Z"/>
  <path class="cls-21" d="M3.68,9.54c0,.07-.02.15-.02.22,0,.01,0,.02,0,.03,0,.06,0,.11-.02.17-.02,0-.05.03-.07.03-.06.02-.08.02-.14,0l.19-.03.07-.89-.02-.11h.02c.01.21,0,.36-.02.58Z"/>
  <path class="cls-22" d="M9.6,2.41c.15-.2.38-.4.65-.32.08.09-.03.19-.06.28-.05.14-.03.29-.03.43-.03-.19-.04-.28.02-.47.03-.09.16-.25-.04-.24-.18,0-.37.14-.48.28-.02.02.02.05-.06.04Z"/>
  <path class="cls-22" d="M11.12,13.19l-1.63.32s-.02,0-.03,0l1.64-.34s.02.02.03.02Z"/>
  <path class="cls-20" d="M2.77,9.64c-.32-.01-.75,0-1.03.17-.13.08-.15.2-.16.35,0,.07.02.16-.02.21,0-.19-.04-.36.09-.51.21-.23.62-.24.9-.24.07,0,.14-.04.21.02Z"/>
  <path class="cls-4" d="M9.45,13.52s.02,0,.03,0c-.29.08-.6.13-.9.19v-.02c.29-.05.58-.12.87-.17Z"/>
  <path class="cls-18" d="M6.51.28l-.14.15c-.13.22-.17.43-.09.68.02.08.07.15.09.22-.27-.35-.18-.79.14-1.07v.02Z"/>
  <path class="cls-22" d="M4.04,2.53c.09.17.1.55.13.76,0,.03.03.06-.03.05l-.1-.82Z"/>
  <path class="cls-18" d="M15.17,12.33l.02-.55-.02-.09c-.41-.16-.83-.27-1.24-.43v-.02s.04,0,.07,0c.39.13.78.28,1.17.43.01.02.04.04.04.06.02.05.02.43,0,.5,0,.03-.03.07-.05.09Z"/>
  <path class="cls-22" d="M9.78,4.64s-.02-.06,0-.09c.03-.09.11-.27.11-.36v-.34c0-.05-.02-.04,0-.13.09.33-.01.61-.1.92Z"/>
  <path class="cls-20" d="M8.16,13.77v.02c-.63.12-1.27.25-1.91.37v-.02c.64-.12,1.27-.25,1.91-.37Z"/>
  <path class="cls-18" d="M3.75,7.58h-.02c.06-.28.14-.51.26-.77.03.01,0,.05,0,.07-.09.22-.18.46-.23.69Z"/>
  <path class="cls-4" d="M8.14,1.28c.12-.25.11-.51.02-.77v-.02c.13.26.16.53-.02.78Z"/>
  <path class="cls-4" d="M2.49,7.94h-.02c.03-.05.11-.21,0-.2-.15.01-.27.34-.28.47-.02.3.14.35.26.55h-.02c-.05-.09-.16-.16-.21-.27-.1-.2-.06-.43.06-.61.04-.06.24-.28.29-.11.02.06-.04.12-.07.17Z"/>
  <path class="cls-21" d="M12.6,6.49v.02c-.2.02-.41.05-.61.07v-.02c.06,0,.13-.03.2-.03.14-.01.28-.01.42-.03Z"/>
  <path class="cls-5" d="M2.48,7.94h.02c-.05.11-.1.2-.09.33,0,.08.07.14.1.21,0,0-.02,0-.03,0-.16-.14-.11-.33-.03-.5.02-.05.03-.04.03-.05Z"/>
  <path class="cls-22" d="M4.14,3.36s-.01.02-.04.01c-.06,0-.27-.09-.3-.02-.03.09,0,.18,0,.26l.13.39c-.1-.16-.22-.45-.16-.63.05-.16.26-.03.37-.02Z"/>
  <path class="cls-18" d="M6.25,14.15v.02c-.13.02-.35.1-.47.09-.07,0-.28-.12-.37-.15l.02-.02c.07.03.26.13.31.14.12.02.37-.04.5-.07Z"/>
  <path class="cls-4" d="M4.98,5.42c-.19.04-.45-.02-.6-.15.09.03.19.09.29.11.06.01.28.02.31.04Z"/>
  <path class="cls-18" d="M3.02,12.9c.42.19.82.39,1.22.6l-.02.02c-.41-.19-.81-.42-1.22-.61h.02Z"/>
  <path class="cls-22" d="M5.44,14.08l-.02.02c-.28-.13-.55-.27-.82-.41.27.13.56.26.83.39Z"/>
  <path class="cls-18" d="M10.17,2.8c.05.3.07.49-.14.73.01-.07.07-.12.1-.18.07-.19.04-.36.04-.55Z"/>
  <path class="cls-18" d="M.93,10.51s-.02.03-.05.04c-.15.03-.3.05-.44.08v-.02c.16-.04.33-.07.49-.1Z"/>
  <path class="cls-18" d="M2.63,9.28c.08-.19.11-.46,0-.65h.02c.11.18.12.47-.02.65Z"/>
  <path class="cls-18" d="M6.37,1.37s0,.03-.01.03c-.28.06-.54.18-.8.3l-.43.31c.35-.33.77-.53,1.24-.65Z"/>
  <path class="cls-21" d="M8.58,13.69v.02c-.14.03-.28.06-.43.09v-.02c.14-.03.28-.06.43-.09Z"/>
  <path class="cls-20" d="M.11,10.69c-.05.08-.07.06-.09.17,0,.01,0,.02,0,.03s0,.02,0,.03v.49s-.01-.04-.02-.08c-.01-.12-.01-.39,0-.51,0-.06.03-.11.09-.14h.02Z"/>
  <path class="cls-18" d="M2.44,8.75c.09.15.07.22.01.38,0,.03,0,.05-.05.05.03-.17.13-.22.02-.43h.02Z"/>
  <path class="cls-5" d="M.44,10.61v.02c-.1.02-.21.07-.32.07h-.02c.08-.05.24-.06.34-.09Z"/>
  <path class="cls-20" d="M3.09,9.71c-.11,0-.06,0-.17-.03-.02,0-.05,0-.09-.02-.02,0-.04,0-.05-.02.07,0,.14,0,.21.02.03,0,.09.02.1.05Z"/>
  <path class="cls-18" d="M13.89,6.9c.02-.14.06-.26-.02-.39h.02c.07.1.08.3,0,.39Z"/>
  <path class="cls-20" d="M3.02,12.9h-.02c-.16-.08-.32-.15-.48-.22.02-.04.05,0,.07,0,.14.07.29.14.42.21Z"/>
  <path class="cls-18" d="M4.19,2.13c.22.03.3.07.48.2-.15-.08-.31-.16-.48-.2Z"/>
  <path class="cls-20" d="M4.6,13.69c-.12-.06-.25-.11-.37-.17l.02-.02c.12.06.24.13.36.19Z"/>
  <path class="cls-20" d="M2.41,9.2l.02.17c.07.04.12,0,.18-.05-.09.18-.29.06-.2-.12Z"/>
  <path class="cls-4" d="M4.16,4.84c-.02.15.1.31.2.41-.1-.05-.26-.28-.24-.38,0-.02.02-.02.03-.03Z"/>
  <path class="cls-22" d="M9.16,5.78c.28.33.53.7.68,1.1.03.02.12-.05.15-.07v.02c-.05.03-.05.03-.09.08,0,0-.03,0-.03,0-.08-.02-.09-.15-.12-.21-.16-.32-.37-.64-.6-.91,0-.01,0-.01,0-.02Z"/>
  <path class="cls-10" d="M3.12,9.71c.14,0,.29.16.32.29-.06-.02-.07-.1-.12-.16,0,0-.08-.07-.09-.07-.04-.02-.12,0-.11-.06Z"/>
  <path class="cls-22" d="M8.06.35c.06.07.06.07.1.15v.02s-.08-.11-.1-.17Z"/>
  <path class="cls-18" d="M5.05,2.1l-.24.36-.06-.02s0-.02,0-.03c-.02,0-.04.02-.03-.03.02.01.01-.03.03.03.02,0,.05.02.07,0,.06-.12.15-.22.24-.32Z"/>
  <path class="cls-5" d="M2.56,8.53s.06.06.09.1h-.02s-.07-.04-.07-.1Z"/>
  <path class="cls-22" d="M13.93,11.24v.02s-.06-.03-.09-.05c.03.01.06.03.09.03Z"/>
  <path class="cls-22" d="M9.93,3.62s-.04.03-.05.07l-.03-.02s.06-.03.08-.05Z"/>
  <path class="cls-4" d="M8.12,1.3s-.02.03-.03.03v-.03s.03,0,.03,0Z"/>
  <path class="cls-18" d="M4.18,2.13l-.03-.02s.03.02.03.02Z"/>
  <path class="cls-18" d="M9.98,3.58l.03-.03s-.02.02-.03.03Z"/>
  <path class="cls-22" d="M8.01.3l-.03-.03s.02.03.03.03Z"/>
  <path class="cls-20" d="M2.61,9.3s.01-.01.02-.02c0,0-.01.01-.02.02Z"/>
  <path class="cls-24" d="M7.89,2.83c.43-.07.7-.4,1.16-.07,0,0,.01.01.02.02l.02.02s.01.01.02.02l.02.02s.01.01.02.02c.03.04.06.08.09.12,0,0,.01.01.02.02.29.5.38,1.19.23,1.75-.05.2-.15.37-.26.55,0,0-.01.01-.02.02-.04.04-.05.07-.07.09-.02.02-.05.05-.07.07,0,0-.01.01-.02.02l-.02.02s-.03.01-.03.03l-.05.05c-.05,0-.08.06-.12.09-.44.29-.95.42-1.48.39-.46-.02-.91-.16-1.29-.41-.05-.03-.1-.08-.15-.1,0,0-.01-.01-.02-.02-.03-.02-.08-.06-.1-.09-.02-.02-.03-.03-.05-.05l-.03-.03-.03-.03c-.08-.1-.15-.21-.21-.32-.05-.1-.08-.21-.13-.31-.38.08-.67-.35-.55-.7.06-.17.17-.13.31-.07.02.02.15.15.17.15.19-.16.38-.31.52-.52.15-.23.23-.5.44-.7l.02-.02s.01-.01.02-.02c.34-.21.45-.16.83-.12,0,0,.01,0,.02,0,.2.04.4.11.6.14.08,0,.14.01.22,0ZM8.58,4.31c.23.21.55-.19.31-.44s-.59.18-.35.41c.01.02.02.02.03.03ZM6.91,3.84c-.31.04-.29.61.08.56.3-.05.24-.6-.08-.56ZM8.48,5.06c.13-.07.18-.35-.02-.31-.07.01-.07.08-.1.11-.02.03-.09.09-.11.11-.23.16-.65.13-.86-.05-.02-.02-.04-.05-.06-.07-.01,0-.01-.02-.03-.03-.06-.04-.11-.05-.16.02-.08.1.04.2.11.26,0,0,.01.01.02.02.26.23.72.26,1.02.1.08-.04.13-.06.19-.14,0,0,.01-.01.02-.02Z"/>
  <path class="cls-23" d="M12.04,6.85c.54-.05,1.08-.13,1.62-.15.02.02-.07.36-.09.42-.14.57-.3,1.14-.46,1.71-.07.25-.13.55-.21.78-.02.04-.04.08-.08.1-.51.08-1.01.17-1.52.25-.61.1-1.34.24-1.94.29-.04,0-.07,0-.11,0,0-.03,0-.06,0-.09.03-.25.18-.67.25-.93.17-.61.36-1.22.51-1.84,0,0,0-.01,0-.02l.12-.29s.02-.02.03-.03c.04,0,.06-.03.1-.03.56-.09,1.2-.11,1.77-.17ZM11.75,8.45c.09-.19.19-.42.26-.62.02-.06.04-.1.03-.17-.02-.11-.17-.11-.22-.02-.06.11-.12.33-.17.46-.12.3-.26.61-.37.91-.02.05-.08.2-.07.25.01.07.09.11.15.08s.19-.35.22-.44c.06-.15.11-.31.16-.46ZM10.91,9.09c.11.07.2.03.19-.11,0-.05-.03-.06-.05-.09,0,0-.01-.01-.02-.02-.01-.02-.03-.03-.03-.03-.08-.1-.16-.18-.24-.28l.57-.5c.08-.09.06-.24-.08-.22-.07,0-.41.34-.5.41-.16.14-.4.22-.22.46.06.08.27.31.34.38.02.02.03.01.04.02ZM12.39,8.45c-.08.04-.16.11-.23.17-.07.06-.29.24-.32.29-.06.1-.02.24.11.2.04-.01.14-.1.18-.13.12-.09.27-.22.38-.32.05-.05.15-.13.16-.2.01-.13-.32-.46-.39-.59-.12-.08-.22,0-.17.14.02.07.31.42.29.45Z"/>
  <path class="cls-17" d="M3.91,9.69l.18.29c.2.11.1-.14.07-.24-.19-.62-.29-.98-.23-1.65.08-.97.63-1.94,1.37-2.56l.36.59c.39.56.84,1.07,1.33,1.53,0,.04-.47.48-.54.53l-.53-.22-.34-1.21-.06-.1s-.07,0-.09.02c-.06.06.04.48.06.59.04.19.1.38.15.58-.03.03-.53-.22-.61-.11-.06.08.03.16.09.2.23.14.59.21.82.35.02.01.05.02.04.05-.02,0-.04.01-.05.02-.19.18-.37.36-.51.58-.24.37-.35.78-.56,1.16-.12.23-.43.7-.74.5-.1-.07-.2-.34-.2-.45v-.45Z"/>
  <path class="cls-15" d="M6.66,9.82c.01.06-.05.03-.09.04-.06.02-.07.13-.01.16s.27.05.35.07c.59.14,1.17.32,1.75.5.04.05-.23.57-.28.64-.19.3-.36.44-.7.52-.77.17-2.16-.03-2.77-.56-.05-.04-.32-.31-.32-.34.04-.07.14-.1.2-.15.35-.28.73-.99,1.14-1.12.07-.02.18.06.28.07.08,0,.2-.01.27,0,.06.02.09.17.18.17Z"/>
  <path class="cls-7" d="M14.22,11.61v.03l-.56.12c-.29.05-.58.11-.87.17-.41.08-.82.17-1.22.26-.02,0-.06,0-.09,0-.32.06-.64.13-.97.2,0,0-.01,0-.02,0-.39.08-.78.16-1.17.24s-.74.15-1.11.22c0,0,0,0,0,.02-.18.02-.36.06-.54.09-.08.02-.16.05-.24.06-.18.04-.38.07-.56.1-.26.05-.52.11-.78.15-.05,0-.11.03-.16.03-.1,0-.55-.21-.67-.26-.02-.01-.12-.06-.12-.08,2.59-.51,5.19-.97,7.77-1.52.13-.03.31-.1.43-.11.24-.03.65.25.9.27Z"/>
  <path class="cls-8" d="M14.95,11.8v.37l-8.94,1.77s-.02,0-.02-.02c-.02-.1-.01-.2,0-.29,2.98-.62,5.98-1.18,8.96-1.82Z"/>
  <path class="cls-2" d="M13.14,11.25v.02s-.07,0-.1,0c-2.53.47-5.04,1.04-7.57,1.5l-.04.02c-.08.03-.17.04-.26.05s-.19.01-.28.03l-.54-.24-.12-.07c.1-.02.2-.05.3-.07.03,0,.07.02.06-.04.01,0,.02,0,.03,0,.32-.05.64-.09.96-.16.18-.04.37-.07.54-.13,0,0,.01,0,.02,0,.12-.02.21-.04.32-.07.04,0,.09-.03.14-.03,0,0,.01,0,.02,0,.2-.03.4,0,.6,0,.35-.01.56-.05.88-.2.05-.03.11-.08.15-.09.23-.08.34,0,.54.06.27.08.68.17.92-.03.02-.02.03-.03.05-.05l.03-.03s.01-.01.02-.02c.05-.04.06-.09.08-.15h.02c.33-.02.63-.06.94-.19,0,0,.01-.01.02-.02.49-.1.98-.21,1.47-.29.03,0,.06-.03.06-.03.17-.03.56.16.73.22Z"/>
  <path class="cls-17" d="M9.62,7.75l-.18.1-.24.21c0-.07.02-.16.02-.23,0-.23-.05-.85-.17-1.04-.06-.1-.15-.11-.18.02.09.51.18,1.02.08,1.54-.22.06-.44.1-.66.13-.24.04-.51.08-.74.09-.15,0-.2-.08-.32-.15l.4-.38c.39-.45.7-.96.95-1.5.06-.13.14-.4.2-.49.03-.05.15-.09.2-.13h.02c.12.17.25.33.35.5.1.16.4.69.39.84,0,.15-.1.33-.12.48Z"/>
  <path class="cls-15" d="M6.85,1.57c-.04.37.2.65.44.88-.54-.11-1.02-.18-1.39.3-.15.19-.11.31-.4.21-.11-.04-.44-.22-.49-.32-.02-.04.13-.22.16-.26.42-.49,1.06-.72,1.68-.81Z"/>
  <path class="cls-2" d="M6.39,8.51c.17.1.17.02.31.02.23,0,.47.13.64.27,0,0,.01.01.02.02l.03.03c.11.11.4.38.45.51.02.07.02.12-.05.14-.11.04-.1-.06-.16-.14-.08-.1-.19-.23-.28-.32l-.03-.03s-.02-.02-.03-.03c-.08-.07-.14-.12-.26-.1-.07.07-.01.14.06.19.05.06.1.1.15.15.03.04.06.07.09.1.07.08.14.17.19.27-.06.02-.22.07-.26,0s-.06-.18-.12-.27c-.07-.09-.44-.44-.48-.17,0,.04.04.04.05.06.03.04.06.08.1.1.02.03.05.05.07.07.02.02.04.04.05.05,0,0,.01.01.02.02.03.06.08.13.09.2,0,.04-.06.03-.08.03-.25-.02-.16-.09-.27-.21-.09-.1-.16-.04-.26-.03-.16.01-.25-.02-.38-.1,0,0-.01-.01-.02-.02-.03-.03-.06-.07-.09-.1,0,0-.01-.01-.02-.02-.1-.08-.15.03-.14.14-.03.01-.03.02-.08.02-.04,0-.21-.02-.21-.04.14-.24.29-.49.49-.68.04-.04.19-.16.23-.18.09-.04.12.03.18.07Z"/>
  <path class="cls-17" d="M11.46,10.2c0,.4-.25.74-.61.9-.3.14-.62.15-.94.16,0-.31-.22-.51-.45-.68-.02-.01-.11-.04-.03-.05l2.03-.32Z"/>
  <path class="cls-15" d="M5.74,13.57c-.02.09.03.29,0,.35,0,.02,0,.03-.03.02l-3.6-1.73.73.02c.96.46,1.92.91,2.89,1.34Z"/>
  <path class="cls-2" d="M6.32,12.04l-2.06.43c-.08,0-.17.03-.24.01-.15-.03-.31-.17-.47-.2-.01,0-.02-.01-.03-.02-.03-.03-.06-.05-.1-.05,0,0-.03,0-.02-.03.12-.01.24-.05.36-.09.45-.06.9-.19,1.34-.27.32-.06.33,0,.61.08l.62.14Z"/>
  <path class="cls-12" d="M7.12.27c.16-.02.31,0,.46.06.28.13.48.45.33.75l-.24-.12c-.3-.08-.63-.04-.91.09-.1.05-.15.16-.21-.02-.13-.37.23-.71.58-.75Z"/>
  <path class="cls-15" d="M7.34,1.53c.5,0,.9.16.65.73-.02.04-.12.24-.15.26-.23.11-.64-.34-.73-.52-.05-.09-.13-.41,0-.45.03,0,.19-.01.24-.01Z"/>
  <path class="cls-12" d="M5.57,3.26s-.27.42-.34.44c-.06.02-.18-.08-.27-.09-.16-.02-.21.05-.36-.05-.3-.2-.19-.79-.27-1.1.24.08.35.3.53.45.2.18.45.3.71.35Z"/>
  <path class="cls-7" d="M9.66,11.39s-.02-.03-.06-.04c-.07,0-.12.02-.11.09.03.02.12.11.1.15-.34.19-.68-.05-1.02-.12-.02-.03.11-.19.13-.23.06-.1.11-.22.16-.33.02-.04.07-.26.09-.27.29.04.65.25.71.55,0,.04.02.16,0,.19Z"/>
  <path class="cls-2" d="M3.8,11.51c.03.17-.2.27-.33.32-.21.08-.48.13-.71.15-.28.03-.54,0-.82-.05,0,0-.01,0-.02,0-.19-.08-.41-.12-.56-.27-.11-.23.12-.26.29-.32.02.01.06.01.08.05,0,.03-.02.07,0,.12,0,.02.07.05.09.07.01.03.03.05.05.07,0,0,.01.01.02.02.25.23.87.22,1.14.05,0,0,.02,0,.03-.02.09-.08.05-.05.07-.15,0,0,0-.01,0-.02.03-.01.05-.03.07-.05.02-.01.02-.02.03-.03.04-.05.07-.09.09-.15h.02c.15.03.36.08.45.22Z"/>
  <path class="cls-6" d="M13.18,11.25c.05.02.09.02.14.07-2.71.57-5.43,1.09-8.16,1.62l-.04.03s-.01,0-.02,0c-.06,0-.11,0-.12-.07.07,0,.15-.02.2-.05.09-.01.17-.02.26-.05.03.02.05,0,.08,0,2.36-.45,4.73-.89,7.07-1.39.19-.04.38-.08.56-.15v-.02s.03,0,.03,0Z"/>
  <path class="cls-16" d="M7.14,8.21s-.03,0-.04.02c-.04.03-.08.1-.12.1l-.22-.02v-.03s.03-.01.04-.02c.48-.46.86-.99,1.19-1.56.05-.08.19-.4.23-.44.02-.02.25-.09.26-.09-.21.44-.42.88-.7,1.28-.12.17-.27.36-.41.52l-.07.07s-.02.02-.03.03l-.14.14Z"/>
  <path class="cls-12" d="M8.09,2.46c.13-.25.21-.56.03-.81,0-.02.03,0,.04,0,.23.04.71.33.89.49.07.06.37.44.35.52s-.11-.05-.14-.07c-.21-.15-.43-.26-.7-.25-.16,0-.31.09-.47.12Z"/>
  <path class="cls-12" d="M8.91,8.6v.38s-.02.04-.03.04l-.9.13-.32-.35c.42-.01.83-.12,1.24-.2Z"/>
  <path class="cls-16" d="M7.24,7.26s.04.04.03.06l-.13.14c-.55-.49-1.06-1.05-1.43-1.7.02.01.02.04.04.05.11.07.25.13.35.22.18.17.39.48.58.68.06.07.13.12.2.19l.1.1s.06.06.09.09l.02.02s.03.03.05.05c.03.03.07.07.1.1Z"/>
  <path class="cls-11" d="M4.04,11.64s-.02-.1.03-.12l.63-.14.47.29v.02s-.02.01-.03.02c-.04,0-.07,0-.11,0-.38.06-1,.17-1.36.28.13-.1.33-.17.37-.36Z"/>
  <path class="cls-2" d="M7.85,6.3s0,.01,0,.02l-.37.65s-.01,0-.02,0c-.13-.11-.24-.22-.36-.34,0,0-.01-.01-.02-.02-.08-.08-.15-.17-.22-.26-.01-.02-.03-.03-.03-.03,0-.01,0-.06-.05-.05,0,0,0-.03,0-.03.35.09.71.1,1.07.07Z"/>
  <path class="cls-14" d="M8.91,10.35s-.02,0-.03,0c-.02-.01-.03-.01-.05-.02-.05-.01-.1-.02-.15-.03,0,0-.01,0-.02,0-.14-.07-.32-.12-.48-.16-.05-.01-.11-.01-.15-.03,0,0,0-.02-.03-.03-.26-.08-.54-.15-.8-.21,0-.01,0-.02,0-.03.01-.04.04-.03.07-.03.15,0,.24.01.38-.05l1.32.39-.05.2Z"/>
  <path class="cls-16" d="M9.21,9.21s-.02.08-.03.12c-.01.04-.03.09-.03.14,0,0-.01.03-.02.03l-1.16.17c.07-.06.12-.12.12-.21,0-.03-.02-.06-.02-.09l1.14-.15Z"/>
  <path class="cls-13" d="M3.62,10.23s.03,0,.05,0c.04.33.23.66.6.66,0,0,.01.01.02.02-.14,0-.31.02-.44.07-.01,0-.03.01-.03.02l-.12.05s-.02,0-.04,0c0,0-.04.05-.06.05-.05,0-.09-.02-.14-.02,0,0,0-.01,0-.02,0-.02.02-.03.02-.05.02-.24-.01-.49,0-.73,0,0,0-.01,0-.02.05,0,.11-.03.15-.03Z"/>
  <path class="cls-11" d="M1.56,10.68v.02c0,.14-.02.28.02.41,0,0-.01.01-.02.02,0,0-.05.03-.07.03-.03.01-.17.06-.19.06l-.69-.32s0-.02,0-.03c.3-.02.62-.15.92-.19.01,0,.02,0,.03,0Z"/>
  <path class="cls-11" d="M4.23,11.02c.16-.01.13.04.21.14.02.02.15.13.13.15l-.55.12c-.06-.12-.19-.22-.32-.27.04-.03.1-.05.15-.06.1-.03.27-.07.37-.08Z"/>
  <path class="cls-12" d="M9.72,3.44l-.18-.52c.09-.15.22-.27.34-.4-.01.27.12.6-.05.84-.01.02-.08.1-.1.08Z"/>
  <path class="cls-13" d="M12.28,10.95l-1,.2c.12-.14.28-.26.34-.44l.66.24Z"/>
  <path class="cls-6" d="M6.32,12.05c.09-.02.14-.01.23,0,.03,0,.07-.02.06.03-.05,0-.09.02-.14.03-.11,0-.23.02-.32.07,0,0-.01,0-.02,0-.48.07-.93.17-1.42.26-.03,0-.06,0-.08.03-.01,0-.02,0-.03,0-.12.02-.4.11-.5.08-.01,0-.02-.04-.05-.05.05,0,.17-.03.22-.05.64-.07,1.42-.25,2.04-.41Z"/>
  <path class="cls-13" d="M9.54,8.09l-.22.85-.17.02c-.01-.28.02-.46.2-.68.03-.03.17-.18.19-.19Z"/>
  <path class="cls-12" d="M7.78,1.27c-.19-.02-.39-.05-.59-.03-.14,0-.28.05-.42.06,0-.08.09-.11.15-.14.2-.08.48-.11.68-.04.06.02.17.07.17.15Z"/>
  <path class="cls-12" d="M4.52,3.81l-.06.37c-.19-.14-.34-.33-.4-.56.07.02.19.03.26.06.06.02.13.11.2.13Z"/>
  <path class="cls-6" d="M5.27,11.75s-.11.04-.17.05c-.45.09-.91.17-1.34.29-.09.01-.17.02-.26.03,0-.07.11-.1.17-.12,0,.03.1,0,.12,0,.43-.08.92-.18,1.34-.3.01,0,.03-.02.03-.02.04,0,.07.02.1.05Z"/>
  <path class="cls-12" d="M5.16,5.09c-.18.08-.36.09-.54,0-.01,0-.11-.05-.09-.08.11.01.27-.14.36-.14.14,0,.22.08.27.2Z"/>
  <path class="cls-6" d="M12.45,11.02s-.02,0-.03,0c-.44.11-.92.16-1.36.27.08-.03.14-.1.22-.12.32-.07.66-.11.98-.19l.03-.03s.01,0,.02,0c.03,0,.14.04.15.07Z"/>
  <path class="cls-21" d="M13.13,8.82c-.05.18-.16.76-.26.87-.02.02-.06.05-.09.06-.19.06-.51.08-.72.11-.65.11-1.34.21-2.01.31-.21.03-.48.12-.7.12-.04,0-.08-.02-.12-.03,0-.02,0-.05,0-.07.02-.25.2-.69.27-.95h.02c-.07.26-.22.68-.25.93,0,.03,0,.06,0,.09.04,0,.07,0,.11,0,.6-.05,1.33-.2,1.94-.29.51-.08,1.01-.17,1.52-.25.04-.02.07-.06.08-.1.08-.23.15-.54.21-.78h.02Z"/>
  <path class="cls-12" d="M4.28,10.93s.05.03.03.07l-.08.02c-.1,0-.27.05-.37.08-.05.01-.11.03-.15.06-.02-.01-.08-.03-.1-.03,0,0-.01,0-.02,0v-.02s.06-.05.06-.05c.01,0,.03,0,.04,0,.04-.02.09-.04.12-.05,0,0,.02-.01.03-.02l.44-.05Z"/>
  <path class="cls-4" d="M12.04,6.81c.52-.05,1.04-.09,1.56-.16.13.03.08.12.06.21-.01.05-.02.05-.02.07-.08.32-.16.64-.24.96s-.18.63-.27.94h-.02c.16-.57.32-1.14.46-1.71.01-.06.11-.39.09-.42-.54.03-1.08.1-1.62.15v-.03Z"/>
  <path class="cls-5" d="M6.32,12.04v.02c-.62.16-1.41.34-2.04.41,0,0-.01,0-.02,0l2.06-.43Z"/>
  <path class="cls-4" d="M9.5,9.23h-.02c.08-.3.16-.61.25-.91l.02-.13c.04-.06.05-.14.07-.2.05-.18.09-.36.15-.54,0-.03.02-.04.04-.06-.15.62-.34,1.23-.51,1.84Z"/>
  <path class="cls-21" d="M7.19,9.84s-.02-.04.01-.05c.09,0,.18.02.27,0,.07-.01.12-.06.19-.05l1.31.37s-.02.22-.06.24l.05-.2-1.32-.39c-.14.07-.23.06-.38.05-.03,0-.05-.02-.07.03Z"/>
  <path class="cls-22" d="M9.23,2.99c.27.35.35.9.32,1.35-.02.28-.15.77-.36.94.11-.18.21-.35.26-.55.15-.56.06-1.24-.23-1.75Z"/>
  <path class="cls-5" d="M12.41,11.02v.02s-.03.02-.06.03c-.49.09-.98.19-1.47.29.07-.03.09-.05.17-.07.44-.11.92-.16,1.36-.27Z"/>
  <path class="cls-6" d="M4.65,11.37c-.17,0-.4.11-.58.12l-.03-.05c.16-.02.36-.11.52-.12.05,0,.07,0,.09.05Z"/>
  <path class="cls-4" d="M5.33,11.75c.13,0,.34.11.49.15.17.05.34.08.52.1l-.02.03-.62-.14c-.28-.08-.29-.14-.61-.08v-.02c.06-.01.13-.04.17-.05,0,0,.01,0,.02,0,0,.03.05.03.05,0Z"/>
  <path class="cls-3" d="M9.76,8.19c.01-.07-.07,0-.05-.08,0-.02.07.01.05-.04l-.17-.03c0-.08.11,0,.08-.12,0,0-.06-.03-.03-.06,0,0,.05,0,.05.01s-.01.05.03.04v-.05s.06,0,.06,0l-.03.11.09.03c-.02.07-.03.14-.07.2Z"/>
  <path class="cls-20" d="M8.11,11.88c-.31.16-.52.19-.88.2-.21,0-.4-.03-.6,0,.01,0,.02-.01.03-.02h.02c.37-.07.83.04,1.22-.1l.21-.08Z"/>
  <path class="cls-21" d="M6.78,6.23s.02-.02.04-.02c.14.01.27.06.41.07.21.02.43,0,.64-.02,0,.03-.02.03-.02.03-.36.03-.72.03-1.07-.07Z"/>
  <path class="cls-21" d="M8.81,5.66c-.45.34-.92.44-1.48.41v-.02c.53.03,1.04-.1,1.48-.39Z"/>
  <path class="cls-4" d="M9.21,9.21l-1.14.15s0-.02,0-.03c.35,0,.7-.11,1.05-.14.02,0,.09-.01.09.02Z"/>
  <path class="cls-20" d="M10.49,12.39s-.02.03-.05.04c-.33.08-.7.15-1.03.21-.03,0-.07.02-.09-.01.39-.08.78-.16,1.17-.24Z"/>
  <path class="cls-14" d="M9.04,9.74h.02l-.03.15s-.27-.04-.31-.07c0,0-.01-.01-.02-.02l.34-.07Z"/>
  <path class="cls-20" d="M12.79,11.93v.02c-.41.08-.82.18-1.22.26v-.02c.41-.08.82-.17,1.22-.26Z"/>
  <path class="cls-18" d="M9.13,9.5s0,.03-.01.03c-.08.02-.17.03-.26.05-.23.04-.53.09-.76.1-.02,0-.13.01-.13-.02l1.16-.17Z"/>
  <path class="cls-21" d="M11.56,12.19v.02c-.35.07-.72.12-1.05.19.32-.07.64-.13.97-.2.03,0,.06,0,.09,0Z"/>
  <path class="cls-5" d="M12.28,10.95l-.03.03c-.32.08-.66.12-.98.19v-.02l1-.2Z"/>
  <path class="cls-4" d="M1.52,10.68c-.3.03-.61.17-.92.19,0,0,0-.01,0-.02.28-.05.55-.13.83-.18.03,0,.07-.02.09,0Z"/>
  <path class="cls-18" d="M13.65,11.76s.01,0,.02,0c-.29.09-.59.13-.88.19v-.02c.29-.06.58-.12.87-.17Z"/>
  <path class="cls-4" d="M9.54,8.09s.04,0,.03,0l-.23.82s-.18.08-.19.07c0-.01,0-.02,0-.03l.17-.02.22-.85Z"/>
  <path class="cls-22" d="M6.85,13.12v.02c-.26.05-.52.11-.78.15v-.02c.26-.04.52-.1.78-.15Z"/>
  <path class="cls-21" d="M8.02,10.11c-.28-.07-.57-.14-.83-.24.26.05.55.13.8.21.02,0,.03.03.03.03Z"/>
  <path class="cls-18" d="M8.19,12.87s.01,0,.02.02c-.27.05-.53.1-.8.15v-.02c.07-.01.16-.04.24-.06.18-.03.36-.07.54-.09Z"/>
  <path class="cls-5" d="M4.65,11.37c.09,0,.22.13.31.18.04.02.19.09.2.1s0,.02,0,.03l-.47-.29-.63.14s-.02.08-.03.12c-.04-.04-.02-.13.03-.15.18-.01.4-.11.58-.12Z"/>
  <path class="cls-18" d="M9.72,11.82c-.24.21-.64.11-.92.03.01-.03.06,0,.08,0,.24.06.44.1.69.03.06-.02.09-.06.15-.06Z"/>
  <path class="cls-4" d="M3.8,11.51s.06.07.03.12c0,0-.11.1-.12.11-.26.18-.64.24-.95.27v-.02c.23-.02.49-.07.71-.15.13-.05.36-.15.33-.32Z"/>
  <path class="cls-18" d="M2.77,11.99v.02s-.06.02-.09.02c-.23.01-.5,0-.72-.09.27.04.54.08.82.05Z"/>
  <path class="cls-21" d="M12.45,11.02c.15,0,.5.11.65.18.03.01.06.03.09.06,0,0-.03,0-.03,0-.17-.06-.56-.25-.73-.22v-.02s.02,0,.03,0Z"/>
  <path class="cls-5" d="M8.86,10.91c-.04.11-.1.23-.16.33-.02.04-.15.21-.13.23.34.07.68.31,1.02.12.02-.04-.07-.12-.1-.15,0-.08.04-.1.11-.09.03,0,.02.05.06.04-.03.04-.09-.04-.14-.02-.03.16.21.18-.02.28-.21.09-.6-.03-.82-.11-.05-.02-.16-.05-.15-.11.13-.13.2-.33.29-.5.01-.03-.01-.05.04-.02Z"/>
  <path class="cls-21" d="M6.39,8.51l.14.02c.31-.07.6.06.81.27-.17-.14-.41-.27-.64-.27-.14,0-.15.08-.31-.02Z"/>
  <path class="cls-22" d="M7.33,6.05v.02s-.1,0-.15,0l-.02-.02c-.43-.05-.76-.15-1.12-.39v-.02c.38.24.83.38,1.29.41Z"/>
  <path class="cls-20" d="M6.22,2.82c.19-.22.52-.2.78-.16.03,0,.06,0,.05.04-.38-.04-.49-.09-.83.12Z"/>
  <path class="cls-22" d="M10.86,11.37c-.31.13-.61.16-.94.17h-.02c-.02.08-.03.13-.08.17l.05-.14.06-.05c.24,0,.47-.02.7-.08.07-.02.16-.09.22-.06Z"/>
  <path class="cls-4" d="M7.89,2.83s.02-.03.05-.04c.38-.11.65-.33,1.04-.1.02.01.07.03.06.07-.45-.33-.73,0-1.16.07Z"/>
  <path class="cls-22" d="M7.67,2.83c-.2-.02-.4-.09-.6-.14.17.02.34.05.52.1.03,0,.06,0,.07.04Z"/>
  <path class="cls-22" d="M8.65,10.3c-.21-.05-.42-.12-.63-.19.04.01.1.01.15.03.16.04.33.09.48.16Z"/>
  <path class="cls-21" d="M7.41,13.02v.02c-.19.04-.38.07-.56.1v-.02c.19-.04.38-.07.56-.1Z"/>
  <path class="cls-22" d="M14.22,11.64s-.47.11-.54.12c0,0-.01,0-.02,0l.56-.12Z"/>
  <path class="cls-18" d="M5.06,3.92c-.14-.06-.25-.1-.31.07-.12.34.17.78.55.7.05.1.08.21.13.31.06.12.14.22.21.32-.03,0-.04-.02-.06-.04-.12-.15-.24-.37-.28-.56-.31.04-.57-.2-.6-.5-.02-.22.07-.5.34-.34.05.03.02.04.02.04Z"/>
  <path class="cls-5" d="M3.68,10.2c.04.15.07.34.15.47.08.12.29.22.43.18,0,.02,0,.04,0,.05-.37,0-.56-.33-.6-.66-.02,0-.03,0-.05,0v-.02s.03-.02.07-.02Z"/>
  <path class="cls-18" d="M6.03,9.33c.13.08.22.11.38.1.1,0,.17-.07.26.03.1.12.02.19.27.21.02,0,.08.01.08-.03,0-.07-.06-.14-.09-.2.05.06.12.12.12.21-.05.09-.22.04-.29-.01-.1-.08-.07-.22-.23-.21-.13,0-.17.05-.32.01-.02,0-.16-.07-.18-.08-.01,0,0-.03,0-.03Z"/>
  <path class="cls-22" d="M14.22,11.61c-.25-.03-.67-.3-.9-.27v-.02s.06-.02.1-.01c.15.03.51.17.67.24.04.02.09.04.13.06Z"/>
  <path class="cls-18" d="M6.07,13.28v.02c-.06.01-.15.07-.22.04-.23-.1-.47-.19-.7-.31-.02-.01-.06-.02-.05-.06,0,0,.01,0,.02,0,0,.02.1.07.12.08.12.06.57.27.67.26.05,0,.11-.03.16-.03Z"/>
  <path class="cls-18" d="M4.26,12.46s.01,0,.02,0c-.05.03-.17.05-.22.05-.08,0-.42-.19-.51-.24.16.03.32.17.47.2.07.01.17,0,.24-.01Z"/>
  <path class="cls-21" d="M9.04,9.74l-.34.07s-.03,0,0-.02c.08-.03.17-.04.25-.05.02,0,.07-.03.08,0Z"/>
  <path class="cls-18" d="M5.18,12.85c-.06.03-.14.05-.2.05-.16,0-.46-.18-.61-.26l.54.24c.09-.02.19-.02.28-.03Z"/>
  <path class="cls-21" d="M9.06,9.74s-.02.16-.04.19c-.01,0-.25-.05-.27-.06-.03-.02-.02-.03-.02-.04.04.02.29.08.31.07l.03-.15Z"/>
  <path class="cls-18" d="M10.01,7.37s0-.02,0-.03c0-.04.02-.07.03-.1,0,0,0-.03,0-.03.03-.08.04-.07.09-.12l-.12.29Z"/>
  <path class="cls-20" d="M7.27,8.97c-.09-.03-.17-.11-.27-.07-.01.06.03.11.07.15-.07-.05-.13-.11-.06-.19.12-.01.18.04.26.1Z"/>
  <path class="cls-25" d="M4.28,10.91s0,.01,0,.02l-.44.05c.13-.05.3-.07.44-.07Z"/>
  <path class="cls-22" d="M11.61,10.71l.03-.02c.2.06.41.14.61.21.03,0,.05,0,.05.05,0,0-.01,0-.02,0l-.66-.24Z"/>
  <path class="cls-18" d="M5.91,9.2h-.1s0,.13,0,.13c0,.02-.03,0-.03.01-.02-.1.03-.22.14-.14Z"/>
  <path class="cls-25" d="M10.05,7.24s-.03.06-.03.1c-.05-.05-.05-.11.03-.1Z"/>
  <path class="cls-18" d="M1.37,11.66c.15.15.37.19.56.27-.16-.03-.46-.12-.56-.25-.01-.02,0-.02,0-.03Z"/>
  <path class="cls-21" d="M7.85,6.32c-.06.14-.14.25-.21.38-.04.07-.08.18-.13.26-.01.02-.02.01-.03.01l.37-.65Z"/>
  <path class="cls-18" d="M5.76,5.44s.07.06.1.09c-.05,0-.09-.03-.1-.09Z"/>
  <path class="cls-22" d="M9.13,5.38h-.02s.03-.05.07-.09c-.01.03-.03.06-.05.09Z"/>
  <path class="cls-20" d="M1.56,11.13v.02s-.05,0-.07.02v-.02s.06-.03.07-.03v.02Z"/>
  <path class="cls-21" d="M6.83,6.32s-.05-.03-.05-.05c.05,0,.04.04.05.05Z"/>
  <path class="cls-18" d="M3.51,12.26s-.06,0-.1-.05c.04,0,.08.02.1.05Z"/>
  <path class="cls-21" d="M8.87,10.35s-.01.02-.03.02c-.01,0-.02-.02-.03-.02v-.02s.04,0,.05.02Z"/>
  <path class="cls-21" d="M7.09,6.61s-.1-.08-.13-.12c-.03-.04-.08-.09-.09-.14.07.09.15.17.22.26Z"/>
  <circle class="cls-3" cx="3.82" cy="10.27" r=".02"/>
  <circle class="cls-3" cx="3.58" cy="11.3" r=".02"/>
  <path class="cls-18" d="M6.03,5.64v.02c-.06-.04-.1-.07-.15-.12.06.03.1.07.15.1Z"/>
  <path class="cls-22" d="M8.82,10.33v.02c-.05,0-.11-.02-.15-.05.05.01.1.02.15.03Z"/>
  <path class="cls-20" d="M6.7,9.21c.06.02.07.07.1.1-.04-.02-.07-.06-.1-.1Z"/>
  <path class="cls-20" d="M9.13,5.38s-.05.06-.09.07c.02-.02.05-.05.07-.07h.02Z"/>
  <path class="cls-21" d="M7.46,6.97s-.15-.11-.2-.15c-.06-.05-.13-.12-.16-.19.11.12.23.23.36.34Z"/>
  <path class="cls-18" d="M9.81,11.73l-.03.03s.01-.01.03-.03Z"/>
  <path class="cls-20" d="M7.14,7.15s.09.06.1.08c.01.02,0,.02,0,.03-.04-.03-.07-.07-.1-.1Z"/>
  <path class="cls-6" d="M5.33,11.75s-.05.03-.05,0c.01,0,.04,0,.05,0Z"/>
  <path class="cls-18" d="M9.15,9.47s.02-.09.03-.14c.03.03-.02.1-.03.14Z"/>
  <path class="cls-20" d="M6.87,9.38s.06.01.05.05c-.01-.01-.03-.03-.05-.05Z"/>
  <path class="cls-20" d="M6.2,2.83l-.02.02-.02-.02s.03,0,.03,0Z"/>
  <path class="cls-4" d="M9.21,2.97s-.05-.08-.09-.12c.03.04.08.06.1.11h-.02Z"/>
  <path class="cls-21" d="M7.39,8.85l-.03-.03s.03.03.03.03Z"/>
  <path class="cls-18" d="M6.02,9.31s-.08-.05-.09-.1c.03.03.06.07.09.1Z"/>
  <path class="cls-20" d="M7.14,8.21l.14-.14c-.05.05-.08.09-.14.14Z"/>
  <path class="cls-4" d="M9.11,2.83l-.02-.02s.01.01.02.02Z"/>
  <path class="cls-4" d="M9.08,2.8l-.02-.02s.01.01.02.02Z"/>
  <path class="cls-25" d="M13.57,8.07v-.02s0,.01,0,.02Z"/>
  <path class="cls-20" d="M7.31,8.04l.07-.07s-.05.05-.07.07Z"/>
  <path class="cls-20" d="M7.31,9.31s-.06-.07-.09-.1c.03.03.07.06.1.09h-.02Z"/>
  <path class="cls-25" d="M1.47,11.36h.02s0,.01,0,.01h0Z"/>
  <path class="cls-20" d="M7.09,7.1l-.02-.02s.01.01.02.02Z"/>
  <path class="cls-20" d="M6.99,7l-.1-.1s.07.07.1.1Z"/>
  <path class="cls-12" d="M.25,11.03l.87.39c-.05.11-.04.21.02.31l-.88-.4v-.31Z"/>
  <path class="cls-6" d="M6.68,12.07h-.02s.02,0,.02,0Z"/>
  <path class="cls-20" d="M7.34,9.04s-.02-.02-.03-.03l.03.03Z"/>
  <path class="cls-21" d="M7.17,6.06s-.02-.02-.02-.02l.02.02Z"/>
  <path class="cls-20" d="M8.92,5.57l.05-.05-.05.05Z"/>
  <path class="cls-20" d="M9.01,5.49l.02-.02s-.01.01-.02.02Z"/>
  <path class="cls-18" d="M5.71,5.38s-.03-.01-.03-.03l.03.03Z"/>
  <path class="cls-23" d="M3.21,10.35c0,.09.02.16.02.25,0,.11,0,.39-.03.48-.01.04-.12.19-.15.22-.26.2-.81.19-1.06-.02-.06-.05-.07-.12-.13-.17,0,0,0-.01,0-.02,0,0,0-.02,0-.03-.05-.25-.03-.48-.03-.73,0,0,.01,0,.02,0,.06.01.15.05.22.06.39.08.78.09,1.16-.05Z"/>
  <path class="cls-13" d="M3.11,9.98s.07.07.07.12c-.16.11-.28-.02-.44-.05-.12-.02-.33-.02-.45,0-.13.02-.22.09-.35.06,0,0-.01,0-.02,0l-.05-.03s-.01-.01-.02-.02v-.05c.03-.06.11-.05.15-.1,0,0,.01,0,.02,0,.09-.01.19-.03.29-.03.03,0,.06,0,.09,0,0,0,.01-.02.02-.02.22-.01.5.02.7.12Z"/>
  <path class="cls-4" d="M3.14,10.35s.02-.01.07,0c-.38.13-.77.12-1.16.05-.07-.01-.15-.05-.22-.06-.03-.05,0-.03.03-.02.51.13.77.12,1.28.04Z"/>
  <path class="cls-21" d="M1.9,11.66c.25.13.54.18.82.13.04,0,.12-.03.16-.04.05-.01.1-.04.15-.04-.27.17-.89.18-1.14-.05Z"/>
  <path class="cls-21" d="M3.17,10.1h.02c-.09.14-.31.01-.42-.01s-.28-.03-.4-.02c-.15.01-.32.12-.44.05.13.03.22-.04.35-.06.12-.02.33-.02.45,0,.16.03.28.15.44.05Z"/>
  <path class="cls-21" d="M3.04,11.3v.02c-.32.22-1.07.22-1.19-.2.06.05.07.12.13.17.25.21.8.22,1.06.02Z"/>
  <path class="cls-4" d="M1.81,10.33c0,.25-.02.49.03.73h-.02c-.09-.18-.03-.53-.05-.73.01,0,.02,0,.03,0Z"/>
  <path class="cls-20" d="M3.24,10.35c.01.2.02.56-.03.75l-.02-.02c.03-.09.03-.38.03-.48,0-.09-.01-.16-.02-.25,0,0,.02,0,.03,0Z"/>
  <path class="cls-18" d="M2.99,9.89s.04.02.07.03c.01,0,.03.03.05.03v.02c-.2-.1-.48-.13-.7-.12l-.02.02s-.06,0-.09,0v-.02c.22-.02.47-.04.68.03Z"/>
  <path class="cls-20" d="M3.46,11.02h-.03s-.01-.02-.02-.03c0,0,0-.01,0-.02h.03s0-.02,0-.03c0-.02,0-.05,0-.07,0-.16,0-.32,0-.49,0-.03-.01-.08.02-.09-.01.24.02.49,0,.73Z"/>
  <path class="cls-19" d="M.62,10.62l.02.07c-.08,0-.16.08-.22,0,0-.04.02-.02.04-.02.06,0,.1-.02.16-.03Z"/>
  <path class="cls-19" d="M3.14,10.35c-.08-.03-.09-.08-.03-.14.06.03.03.09.13.09,0,.02,0,.03,0,.05-.01,0-.03,0-.03,0-.05-.01-.02,0-.07,0Z"/>
  <path class="cls-1" d="M2.92,9.67l-.06.1-.04-.08-.08.02.1-.05s.06.01.09.02Z"/>
  <path class="cls-20" d="M1.58,11.1c-.03-.13,0-.27-.02-.41h.02c0,.08,0,.17,0,.25,0,.06.04.1,0,.16Z"/>
  <path class="cls-4" d="M2.31,9.86v.02c-.1,0-.19.02-.29.03.08-.06.2-.04.29-.05Z"/>
  <path class="cls-19" d="M3.45,10.86s0,.05,0,.07h-.05s.01.02.02.03c0,0,0,.01,0,.02-.07.03-.05-.07-.04-.1.02-.04.04-.02.07-.02Z"/>
  <path class="cls-9" d="M3.67,9.76c.07-.02.06.07.09.11l-.04.03s-.04-.09-.04-.1c0-.01,0-.02,0-.03Z"/>
  <path class="cls-10" d="M3.21,11.1c-.02.07-.02.04-.03.06-.01.02,0,.06-.02.07,0,0-.1.08-.11.09v-.02s.14-.18.15-.22l.02.02Z"/>
  <path class="cls-20" d="M3.62,10.22v.02s-.1.03-.15.03c0-.01,0-.03.01-.03.05-.02.1-.01.14-.02Z"/>
  <path class="cls-10" d="M2.99,9.89s.05-.03.09-.02v.04s-.02,0-.02,0c-.03-.01-.06-.03-.07-.03Z"/>
  <path class="cls-9" d="M1.61,11.27h-.08c0-.07.09-.07.08,0Z"/>
  <path class="cls-10" d="M3.58,11.1v.02s-.01.02-.04.01c-.03,0-.08-.02-.1-.05.05,0,.09.02.14.02Z"/>
  <path class="cls-4" d="M2,9.91s-.12.04-.15.1v-.02c.04-.07.08-.07.15-.09Z"/>
  <path class="cls-21" d="M3.07,11.7l.07-.15c-.02.1.02.08-.07.15Z"/>
  <path class="cls-9" d="M3.65,9.96s0,.03,0,.05l-.07-.02s.04-.03.07-.03Z"/>
  <path class="cls-10" d="M3.11,9.96s.02-.02.03-.02c-.02.07.05.08.06.12.01.02,0,.02-.01.03h-.02c0-.05-.04-.08-.07-.12v-.02Z"/>
  <rect class="cls-10" x="3.43" y="10.1" width=".03" height=".05"/>
  <path class="cls-10" d="M3.46,11.02s0,.04-.02.05c-.01-.02-.01-.03-.02-.05h.03Z"/>
  <path class="cls-9" d="M.03,10.86h.03s0,.03,0,.03H.03s0-.01,0-.03Z"/>
  <path class="cls-21" d="M1.85,10.01v.05s-.02,0-.02-.03c0-.03.01-.03.02-.04v.02Z"/>
  <path class="cls-21" d="M1.83,11.58s.05,0,.05.07c-.02-.02-.04-.04-.05-.07Z"/>
  <path class="cls-9" d="M3.21,11.47s-.04.04-.07.05c0-.03.04-.05.07-.05Z"/>
  <path class="cls-21" d="M1.92,10.11s-.02,0-.03,0c-.01,0-.01-.02-.02-.03l.05.03Z"/>
  <path class="cls-21" d="M1.85,11.1s-.01-.02-.02-.03h.02s0,.02,0,.03Z"/>
  <path class="cls-9" d="M1.56,11.15v-.02h.02s-.01.02-.02.02Z"/>
  <polygon class="cls-4" points="1.58 10.69 1.56 10.69 1.56 10.68 1.58 10.69"/>
  <path class="cls-5" d="M12.04,6.81v.03c-.57.06-1.21.08-1.77.17v-.02s.04-.07.11-.02c.55-.06,1.11-.11,1.66-.17Z"/>
  <path class="cls-18" d="M10.27,7v.02s-.07.03-.1.03c.06-.07.03-.03.1-.05Z"/>
  <path class="cls-1" d="M8.24,4.99s.09-.06.12-.1c.05-.05.04-.14.15-.12.06.02.05.09.05.14-.05.04-.06.1-.09.14,0,0-.01.01-.02.02l-.2.14c-.34.12-.7.09-1-.1,0,0-.01-.01-.02-.02-.11-.12-.2-.32.05-.27.02.01.02.02.03.03.05.11.18.18.29.21.24.07.42.06.63-.08Z"/>
  <path class="cls-10" d="M6.91,3.84c.32-.04.38.51.08.56-.37.06-.39-.51-.08-.56Z"/>
  <path class="cls-19" d="M8.55,4.28c-.07-.13-.08-.39.1-.43.42-.11.38.66-.07.47-.01-.01-.02-.01-.03-.03Z"/>
  <path class="cls-21" d="M8.26,5.21h.02c-.3.16-.76.13-1.02-.1.31.19.66.22,1,.1Z"/>
  <path class="cls-18" d="M8.24,4.98v.02c-.21.14-.39.15-.63.08-.11-.03-.24-.11-.29-.21.02.02.04.05.06.07.21.18.63.21.86.05Z"/>
  <path class="cls-21" d="M8.55,4.28c-.24-.23.1-.66.35-.41s-.08.65-.31.44c.45.19.49-.58.07-.47-.18.05-.17.3-.1.43Z"/>
  <path class="cls-22" d="M8.24,4.98s.09-.08.11-.11c.03-.03.03-.1.1-.11.21-.04.15.23.02.31.03-.04.04-.1.09-.14,0-.05,0-.12-.05-.14-.12-.03-.11.06-.15.12-.03.04-.08.07-.12.1v-.02Z"/>
  <path class="cls-21" d="M7.29,4.82c-.25-.05-.16.16-.05.27-.07-.06-.19-.16-.11-.26.05-.06.1-.06.16-.02Z"/>
  <path class="cls-22" d="M8.28,5.21h-.02l.2-.14c-.06.07-.11.1-.19.14Z"/>
  <path class="cls-10" d="M11,8.84l.03.03s.01.01.02.02c.07.13.04.28-.14.2,0,0-.02,0-.04-.02-.07-.06-.28-.29-.34-.38-.18-.24.06-.32.22-.46.08-.07.42-.4.5-.41.14-.02.16.13.08.22l-.57.5c.08.1.16.18.24.28Z"/>
  <path class="cls-10" d="M12.39,8.45s-.27-.37-.29-.45c-.04-.13.06-.22.17-.14.06.13.4.46.39.59,0,.07-.11.15-.16.2-.11.1-.26.23-.38.32-.04.03-.14.12-.18.13-.13.04-.17-.09-.11-.2.03-.05.26-.23.32-.29.07-.06.15-.13.23-.17Z"/>
  <path class="cls-21" d="M11.75,8.43s0,.01,0,.02c-.05.15-.1.31-.16.46-.04.09-.16.4-.22.44s-.14,0-.15-.08c0-.05.05-.19.07-.25.11-.3.25-.61.37-.91h.02c-.12.31-.3.7-.39,1.01-.02.06-.05.13-.03.19.01.04.13.04.15,0l.36-.87Z"/>
  <path class="cls-4" d="M11.75,8.45s0-.01,0-.02c.06-.16.13-.32.19-.49.02-.06.08-.24.07-.29-.01-.04-.11-.06-.14-.03-.03.02-.13.32-.15.38-.02.04-.04.09-.05.1h-.02c.05-.13.11-.35.17-.46.05-.09.2-.09.22.02.01.06-.01.11-.03.17-.06.2-.16.43-.26.62Z"/>
  <path class="cls-20" d="M10.91,9.09c.17.07.21-.07.14-.2.02.03.05.04.05.09,0,.14-.07.18-.19.11Z"/>
  <path class="cls-20" d="M11.03,8.87l-.03-.03s.02.02.03.03Z"/>
  <path class="cls-5" d="M13.31,11.32v.02c-.12.01-.3.08-.43.11-2.58.55-5.19,1.01-7.77,1.52l.04-.03c2.72-.53,5.44-1.05,8.16-1.62Z"/>
  <path class="cls-5" d="M13.14,11.27c-.18.07-.37.11-.56.15-2.34.5-4.71.94-7.07,1.39-.03,0-.05.02-.08,0l.04-.02c2.53-.46,5.04-1.03,7.57-1.5.03,0,.07-.01.1,0Z"/>
  <path class="cls-5" d="M6.13,12.19c-.17.06-.36.09-.54.13-.32.06-.64.11-.96.16.02-.02.05-.02.08-.03.49-.09.94-.19,1.42-.26Z"/>
  <path class="cls-5" d="M6.47,12.12c-.11.02-.21.05-.32.07.1-.05.21-.07.32-.07Z"/>
  <path class="cls-5" d="M5.1,11.8v.02c-.44.08-.89.22-1.34.27.43-.12.9-.2,1.34-.29Z"/>
  <path class="cls-5" d="M5.13,11.71c-.42.11-.91.22-1.34.3-.02,0-.12.02-.12,0,.35-.12.98-.22,1.36-.28.04,0,.07,0,.11,0Z"/>
  <path class="cls-25" d="M3.8,11s-.08.04-.12.05l.12-.05Z"/>
  <path class="cls-4" d="M2.39,9.88l.02-.02s-.01.02-.02.02Z"/>
  <path class="cls-3" d="M3.45,10.93s0,.02,0,.03h-.03s-.02-.03-.02-.03h.05Z"/>
  <path class="cls-19" d="M11.75,8.43l-.36.87s-.13.04-.15,0c-.02-.06.01-.13.03-.19.09-.31.27-.7.39-1.01,0,0,.03-.05.05-.1.02-.06.12-.35.15-.38.03-.03.13,0,.14.03.02.05-.05.23-.07.29-.06.16-.13.32-.19.49Z"/>
</svg>